<svg width="1927" height="576" viewBox="0 0 1927 576" fill="none" xmlns="http://www.w3.org/2000/svg">
<g clip-path="url(#clip0_0_1)">
<path d="M0.000244141 575.783V292.277C0.000244141 292.277 1644.08 16.8713 1741.59 1.29927C1839.09 -14.2727 1923.01 115.271 1923.01 115.271L1926.64 575.783H0.000244141Z" fill="#131313"/>
<mask id="mask0_0_1" style="mask-type:luminance" maskUnits="userSpaceOnUse" x="0" y="0" width="1927" height="576">
<path d="M0.000244141 575.783V292.277C0.000244141 292.277 1644.08 16.8713 1741.59 1.29927C1839.09 -14.2727 1923.01 115.271 1923.01 115.271L1926.64 575.783H0.000244141Z" fill="white"/>
</mask>
<g mask="url(#mask0_0_1)">
<path d="M-58.9242 301.515L-37.4296 308.237C-16.0114 314.566 26.5405 328.707 70.5567 341.544C113.055 354.676 156.021 368.736 192.552 350.429C229.915 331.961 261.08 283.117 302.705 291.02C344.997 299.404 398.576 364.375 439.304 367.664C480.172 370.926 508.36 310.436 547.416 297.75C584.816 285.387 631.736 319.053 670.423 311.838C709.686 303.901 740.992 255.03 782.617 262.932C824.633 271.37 877.107 336.555 923.281 360.485C967.822 384.12 1004.68 366.768 1040.2 343.259C1076.67 320.177 1111.65 290.966 1143.22 247.136C1175.2 203.227 1204.49 142.522 1243.18 135.308C1281.75 127.504 1330.69 173.003 1369.26 165.2C1408.91 157.798 1437.65 97.2005 1477.37 95.2871C1517.56 92.8736 1569.23 148.028 1613.97 171.931C1658.84 195.807 1697.33 188.325 1737.34 180.548C1775.7 173.093 1814.6 165.53 1851.19 147.518C1888.55 129.764 1923.67 100.525 1941.02 86.6601L1958.29 72.4021L1927.76 -84.6582L-58.9242 301.515Z" fill="url(#paint0_linear_0_1)"/>
</g>
</g>
<defs>
<linearGradient id="paint0_linear_0_1" x1="924.927" y1="-407.104" x2="1071.12" y2="353.054" gradientUnits="userSpaceOnUse">
<stop stop-color="#121212"/>
<stop offset="1" stop-color="#121212"/>
</linearGradient>
<clipPath id="clip0_0_1">
<rect width="1926.64" height="575.781" fill="white"/>
</clipPath>
</defs>
</svg>
