<svg height="357.994" viewBox="0 0 137.801 357.994" width="137.801" xmlns="http://www.w3.org/2000/svg"><path d="m16.445 26.849s-3.616-5.806-4.076-6.6-.062-8.24-.5-9.683a47.391 47.391 0 0 0 -3.552-6.835c-1.061-1.762-2.686-4.345-3.294-3.599s-.691 2.377-.154 4.568 1.807 4.789 1.749 5.96-7.289 6.04-6.567 9.101 4.03 4.205 5.039 5.962 3.455 6.47 3.455 6.47" fill="#ffb9b9" transform="matrix(.94551858 -.32556815 .32556815 .94551858 8.3708162342 67.02515935688)"/><rect fill="#624ff3" height="35.286" rx=".449" transform="matrix(.89152099254 -.45297939145 .45297939145 .89152099254 -.0002750462 60.40589297816)" width="10.518"/><path d="m.128 0h7.165a.128.128 0 0 1 .128.128v28.561a.128.128 0 0 1 -.128.128h-7.165a.128.128 0 0 1 -.128-.128v-28.561a.128.128 0 0 1 .128-.128z" fill="#fff" transform="matrix(.89150518025 -.45301050879 .45301050879 .89150518025 2.69466293216 60.68575425197)"/><g fill="#ffb9b9"><path d="m56.193 40.253c-.371.24-.853.539-1.411.9h-.01c-.465.288-.975.6-1.543.937-2.173 1.311-9.267 4.325-12.341 5.829-6.625 3.232-14.178 5.835-17.662 3.168l-.019-.01a.958.958 0 0 1 -.11-.093 2.152 2.152 0 0 1 -.213-.316 5.591 5.591 0 0 1 -.307-.482c-6.29-9.986-22.577-45.375-22.577-45.375a11.37 11.37 0 0 1 7.962-4.811l24.038 31.921c1.337-1.162 2.806-2.415 4.359-3.743a1.7 1.7 0 0 0 .641-.558c2.389-2.034 9.176-5.6 11.73-7.77l5.518 19.464z" transform="matrix(.94551858 -.32556815 .32556815 .94551858 23.12402459296 88.01134175601)"/><path d="m12.652 15.858c-2.174 1.31-5.044 2.942-8.118 4.442l-4.534-19.742.649-.558 2.425 1.766s8.826 12.467 9.374 13.471a1.99 1.99 0 0 1 .204.621z" transform="matrix(.94551858 -.32556815 .32556815 .94551858 66.48959935328 102.29086041051)"/><path d="m2.565.483s3.182 2.832 3.491 3.848-.321 1.507-1.342 1.263-3.939-2.787-4.25-3.166a1.5 1.5 0 0 1 0-2.147 1.681 1.681 0 0 1 2.101.202z" transform="matrix(.94551858 -.32556815 .32556815 .94551858 8.74644443057 84.04513955748)"/><path d="m2.985.6s3.721 3.313 4.081 4.5-.372 1.765-1.566 1.48-4.609-3.261-4.976-3.702a1.789 1.789 0 0 1 0-2.511 1.854 1.854 0 0 1 2.461.233z" transform="matrix(.94551858 -.32556815 .32556815 .94551858 7.29545227462 80.41474745108)"/><path d="m2.975.568s3.725 3.311 4.083 4.5-.373 1.764-1.567 1.478-4.61-3.258-4.974-3.702a1.8 1.8 0 0 1 0-2.511 1.952 1.952 0 0 1 2.458.235z" transform="matrix(.94551858 -.32556815 .32556815 .94551858 6.17608147778 76.80448678229)"/><path d="m2.978.576s3.722 3.311 4.083 4.5-.374 1.763-1.567 1.478-4.61-3.254-4.975-3.702a1.789 1.789 0 0 1 0-2.511 1.931 1.931 0 0 1 2.459.235z" transform="matrix(.94551858 -.32556815 .32556815 .94551858 4.89217673857 73.28155069192)"/></g><path d="m744.216 322.525c0-.239 0-.473.008-.72a27.144 27.144 0 0 1 27.091-26.805 26.715 26.715 0 0 1 19.165 8.064 27.651 27.651 0 0 1 7.939 19.464v26.952h-54.2z" fill="#1d2a5d" transform="translate(-681.62 -294.997)"/><path d="m752.049 784.426a5.616 5.616 0 0 1 2.513-5.508l16.119-7.91 12.152 1.534 2.87 10.289a5.476 5.476 0 0 1 -4.79 6.336l-22.677.049a5.616 5.616 0 0 1 -6.187-4.79z" fill="#f1f3fb" transform="translate(-674.529 -431.258)"/><path d="m447.874 457.583-1.874 11.941-.168 1.094-7.184 45.9-2.22 14.186-.681 4.352-1.889 13.73-8.8 63.939-15.306-3.47-.731-73.712-.126-12.654-.119-10.7-.106-9.409-.425-37.844z" fill="#1d2a5d" transform="translate(-314.511 -268.613)"/><ellipse cx="84.016" cy="25.993" fill="#ffb9b9" rx="20.521" ry="20.521"/><path d="m788.72 370.658-23.258 11.629a57.19 57.19 0 0 0 -7.182-33.176l20.179-3.078c.273 8.102 4.373 16.333 10.261 24.625z" fill="#ffb9b9" transform="translate(-681.959 -309.606)"/><path d="m782.774 457.275-41.043 8.893-3.42-26.678c-2.226-11.41-6.241-22.57.789-31.535l1.031-9.221a29.775 29.775 0 0 1 13.81-21.941l12.416-7.76c25.735 13.922 24.7 48.311 16.417 88.242z" fill="#ff5476" transform="translate(-664.726 -316.19)"/><path d="m451.931 552.6-.681 4.352-1.889 13.73-24.839-13.242-.126-12.654-.119-10.7z" opacity=".2" transform="translate(-330.01 -290.513)"/><path d="m760.636 559.755-1.87 11.945-.169 1.094a44.95 44.95 0 0 1 -11.429 12.7l-25.734 19.463-.425-37.844z" opacity=".2" transform="translate(-627.273 -370.785)"/><path d="m790.138 610.384-4.788 16.075-61.865-32.987a16.565 16.565 0 0 1 -4.151-25.277l33.866-38.529-15.049-33.86 43.094-11.287 4.788 10.261q15 14.005 13.5 32.688a44 44 0 0 1 -17.473 31.485l-32.285 24.411z" fill="#1d2a5d" transform="translate(-662.171 -349.249)"/><path d="m729.351 690.375a5.568 5.568 0 0 1 -5.289-2.838l-9.272-16.612 2.294-11.925 10.363-2.183a5.429 5.429 0 0 1 5.963 5.143l1.076 22.6a5.568 5.568 0 0 1 -5.134 5.816z" fill="#f1f3fb" transform="translate(-596.69 -398.562)"/><path d="m750.666 510.776.369 11.814a9.771 9.771 0 0 1 -9.766 10.076 9.771 9.771 0 0 1 -9.045-13.465l4.419-10.819 5.814-48.568-11.971-37.623c8.537-5.713 17.145-11.888 23.942-6.157l3.42 43.437z" fill="#ffb9b9" transform="translate(-631.249 -328.99)"/><path d="m763.8 410.987c-12.6-6.023-22.26-2.951-29.414 7.867l-4.638-25.873a13.8 13.8 0 0 1 7.667-14.9 11.212 11.212 0 0 1 15.165 5.837z" fill="#ff5476" transform="translate(-636.515 -318.469)"/><path d="m808.318 306.8-5.151 16.388-44.533-.791a27.529 27.529 0 0 1 49.684-15.6z" fill="#1d2a5d" transform="translate(-701.809 -295.168)"/></svg>