<svg height="575.781" viewBox="0 0 1926.637 575.781" width="1926.637" xmlns="http://www.w3.org/2000/svg" xmlns:xlink="http://www.w3.org/1999/xlink"><linearGradient id="a" gradientUnits="objectBoundingBox" x1=".544" x2=".5" y1="-1.909" y2="1"><stop offset="0" stop-color="#254cef"/><stop offset="1" stop-color="#4e6ef1"/></linearGradient><clipPath id="b"><path d="m11656.363 11029v-283.506s1644.081-275.405 1741.587-290.977 181.427 113.971 181.427 113.971l3.623 460.512z" transform="translate(-11656.363 -5265)"/></clipPath><g transform="translate(0 -5188.219)"><path d="m11656.363 11029v-283.506s1644.081-275.405 1741.587-290.977 181.427 113.971 181.427 113.971l3.623 460.512z" fill="#4e6ef1" transform="translate(-11656.363 -5265)"/><g clip-path="url(#b)"><path d="m0 53.959 19.817 10.7c19.817 10.3 58.889 32.3 99.647 53.3 39.212 21 78.706 43 118.059 32 40.2-11 80.112-53 119.465-37.3 39.915 16.3 80.112 90.3 119.465 101.3 39.494 11 78.706-43 119.465-48 39.072-5 78.706 37 118.059 37.3 40.056-.3 80.112-42.3 119.465-26.6 39.634 16.3 78.706 90.3 119.465 122.6 39.213 31.7 78.706 21.7 118.059 5.4 40.2-15.7 80.111-37.7 119.465-74.7 39.775-37 80.111-91 119.464-90.7 39.353-.3 78.706 53.7 118.059 53.4 40.337.3 80.112-53.7 119.464-48 39.915 5.3 80.112 69.3 119.465 101.3 39.494 32 78.706 32 119.465 32 39.072 0 78.706 0 118.059-10.7 40.056-10.3 80.112-32.3 99.788-42.6l19.677-10.7v-160z" fill="url(#a)" transform="matrix(.98162718 -.190809 .190809 .98162718 -69.22 5436.765)"/></g></g></svg>