<svg width="1927" height="576" viewBox="0 0 1927 576" fill="none" xmlns="http://www.w3.org/2000/svg">
<rect width="1927" height="576" fill="#F5F5F5"/>
<g clip-path="url(#clip0_0_1)">
<mask id="mask0_0_1" style="mask-type:luminance" maskUnits="userSpaceOnUse" x="0" y="0" width="1927" height="576">
<path d="M1926.64 0H0V575.781H1926.64V0Z" fill="white"/>
</mask>
<g mask="url(#mask0_0_1)">
<path d="M0.000244141 575.781V292.275C0.000244141 292.275 1644.08 16.8698 1741.59 1.29781C1839.09 -14.2742 1923.01 115.269 1923.01 115.269L1926.64 575.781H0.000244141Z" fill="#F5F5F5"/>
<mask id="mask1_0_1" style="mask-type:luminance" maskUnits="userSpaceOnUse" x="0" y="-1" width="1927" height="577">
<path d="M0.000244141 575.781V292.275C0.000244141 292.275 1644.08 16.8698 1741.59 1.29781C1839.09 -14.2742 1923.01 115.269 1923.01 115.269L1926.64 575.781H0.000244141Z" fill="#F5F5F5"/>
</mask>
<g mask="url(#mask1_0_1)">
<path d="M-58.9242 301.513L-37.4296 308.235C-16.0114 314.565 26.5405 328.705 70.5567 341.543C113.055 354.675 156.021 368.735 192.552 350.428C229.915 331.96 261.08 283.116 302.705 291.018C344.997 299.403 398.576 364.373 439.304 367.662C480.172 370.924 508.36 310.434 547.416 297.749C584.816 285.386 631.736 319.051 670.423 311.837C709.686 303.899 740.992 255.028 782.617 262.931C824.633 271.369 877.107 336.554 923.281 360.483C967.822 384.119 1004.68 366.767 1040.2 343.257C1076.67 320.175 1111.65 290.964 1143.22 247.135C1175.2 203.225 1204.49 142.521 1243.18 135.306C1281.75 127.503 1330.69 173.002 1369.26 165.199C1408.91 157.796 1437.65 97.1991 1477.37 95.2856C1517.56 92.8721 1569.23 148.026 1613.97 171.929C1658.84 195.806 1697.33 188.324 1737.34 180.547C1775.7 173.091 1814.6 165.529 1851.19 147.516C1888.55 129.763 1923.67 100.524 1941.02 86.6586L1958.29 72.4007L1927.76 -84.6597L-58.9242 301.513Z" fill="url(#paint0_linear_0_1)"/>
</g>
<path d="M0.000244141 575.781V292.275C0.000244141 292.275 1644.08 16.8698 1741.59 1.29781C1839.09 -14.2742 1923.01 115.269 1923.01 115.269L1926.64 575.781H0.000244141Z" fill="#121212"/>
<mask id="mask2_0_1" style="mask-type:luminance" maskUnits="userSpaceOnUse" x="0" y="-1" width="1927" height="577">
<path d="M0.000244141 575.781V292.275C0.000244141 292.275 1644.08 16.8698 1741.59 1.29781C1839.09 -14.2742 1923.01 115.269 1923.01 115.269L1926.64 575.781H0.000244141Z" fill="white"/>
</mask>
<g mask="url(#mask2_0_1)">
<path d="M-58.9242 301.513L-37.4296 308.235C-16.0114 314.565 26.5405 328.705 70.5567 341.543C113.055 354.675 156.021 368.735 192.552 350.428C229.915 331.96 261.08 283.116 302.705 291.018C344.997 299.403 398.576 364.373 439.304 367.662C480.172 370.924 508.36 310.434 547.416 297.749C584.816 285.386 631.736 319.051 670.423 311.837C709.686 303.899 740.992 255.028 782.617 262.931C824.633 271.369 877.107 336.554 923.281 360.483C967.822 384.119 1004.68 366.767 1040.2 343.257C1076.67 320.175 1111.65 290.964 1143.22 247.135C1175.2 203.225 1204.49 142.521 1243.18 135.306C1281.75 127.503 1330.69 173.002 1369.26 165.199C1408.91 157.796 1437.65 97.1991 1477.37 95.2856C1517.56 92.8721 1569.23 148.026 1613.97 171.929C1658.84 195.806 1697.33 188.324 1737.34 180.547C1775.7 173.091 1814.6 165.529 1851.19 147.516C1888.55 129.763 1923.67 100.524 1941.02 86.6586L1958.29 72.4007L1927.76 -84.6597L-58.9242 301.513Z" fill="url(#paint1_linear_0_1)"/>
</g>
</g>
</g>
<defs>
<linearGradient id="paint0_linear_0_1" x1="924.927" y1="-407.106" x2="1071.12" y2="353.053" gradientUnits="userSpaceOnUse">
<stop stop-color="#F5F5F5"/>
<stop offset="0.0001" stop-color="#121212"/>
<stop offset="1" stop-color="#F5F5F5"/>
</linearGradient>
<linearGradient id="paint1_linear_0_1" x1="924.927" y1="-407.106" x2="1071.12" y2="353.053" gradientUnits="userSpaceOnUse">
<stop stop-color="#131313"/>
<stop offset="0.0001" stop-color="#121212"/>
<stop offset="0.0002" stop-color="#131313"/>
<stop offset="1" stop-color="#131313"/>
</linearGradient>
<clipPath id="clip0_0_1">
<rect width="1927" height="576" fill="white"/>
</clipPath>
</defs>
</svg>
