<svg width="1927" height="982" viewBox="0 0 1927 982" fill="none" xmlns="http://www.w3.org/2000/svg">
<g clip-path="url(#clip0_0_1)">
<path d="M1926.64 0V466.524C1926.64 466.524 279.805 962.491 185.05 979.572C90.2951 996.653 0.000244141 864.745 0.000244141 864.745V0H1926.64Z" fill="#131313"/>
<mask id="mask0_0_1" style="mask-type:luminance" maskUnits="userSpaceOnUse" x="0" y="0" width="1927" height="982">
<path d="M1926.64 0V466.524C1926.64 466.524 279.805 962.491 185.05 979.572C90.2951 996.653 3.62329 864.79 3.62329 864.79L0.000244141 0H1926.64Z" fill="white"/>
</mask>
<g mask="url(#mask0_0_1)">
<path d="M206.604 367.087C207.219 358.233 210.624 349.802 216.329 343.004C222.033 336.205 229.745 331.388 238.357 329.244L378.91 294.266C387.512 292.126 396.57 292.762 404.789 296.083C413.007 299.404 419.964 305.241 424.664 312.757L501.518 435.673C506.221 443.196 508.422 452.014 507.804 460.864C507.186 469.714 503.782 478.141 498.08 484.937L405.031 595.828C399.328 602.624 391.621 607.44 383.012 609.585C374.404 611.73 365.338 611.094 357.113 607.768L222.718 553.426C214.5 550.103 207.544 544.265 202.846 536.748C198.148 529.231 195.949 520.421 196.564 511.578L206.604 367.087Z" fill="url(#paint0_linear_0_1)"/>
<path d="M6.63696 288L33.304 261.3C59.97 235 113.304 181 166.637 154.7C219.97 128 273.304 128 326.637 112C379.97 96 433.304 64 486.637 80C539.97 96 593.304 160 646.637 192C699.97 224 753.304 224 806.637 240C859.97 256 913.304 288 966.637 293.3C1019.97 299 1073.3 277 1126.64 240C1179.97 203 1233.3 149 1286.64 154.7C1339.97 160 1393.3 224 1446.64 208C1499.97 192 1553.3 96 1606.64 101.3C1659.97 107 1713.3 213 1766.64 234.7C1819.97 256 1873.3 192 1899.97 160L1926.64 128V0H6.63696V288Z" fill="url(#paint1_linear_0_1)"/>
<path d="M1187.66 662.447C1115.43 640.297 915.075 593.661 855.638 612.146C795.686 630.162 760.521 730.842 705.586 764.055C650.49 797.944 574.391 764.743 508.726 762.859C442.721 761.079 385.337 789.081 324.35 802.497C263.024 816.018 199.031 717.524 136.491 725.874C73.5012 733.943 10.4462 848.274 -18.7546 857.202L-49.079 866.473L16.4123 1080.69L1094.6 751.05C1154.46 732.749 1259.67 685.083 1187.66 662.447Z" fill="url(#paint2_linear_0_1)"/>
</g>
</g>
<defs>
<linearGradient id="paint0_linear_0_1" x1="-298.032" y1="-71.5617" x2="450.984" y2="541.081" gradientUnits="userSpaceOnUse">
<stop stop-color="#121212"/>
<stop offset="1" stop-color="#121212"/>
</linearGradient>
<linearGradient id="paint1_linear_0_1" x1="966.637" y1="376.863" x2="995.891" y2="32.4449" gradientUnits="userSpaceOnUse">
<stop stop-color="#121212"/>
<stop offset="1" stop-color="#121212"/>
</linearGradient>
<linearGradient id="paint2_linear_0_1" x1="349.792" y1="1080.53" x2="247.455" y2="733.148" gradientUnits="userSpaceOnUse">
<stop stop-color="#121212"/>
<stop offset="1" stop-color="#121212"/>
</linearGradient>
<clipPath id="clip0_0_1">
<rect width="1926.64" height="981.1" fill="white"/>
</clipPath>
</defs>
</svg>
