<svg height="981.1" viewBox="0 0 1926.637 981.1" width="1926.637" xmlns="http://www.w3.org/2000/svg" xmlns:xlink="http://www.w3.org/1999/xlink"><clipPath id="a"><path d="m13583 10233v466.524s-1646.832 495.967-1741.587 513.048-181.427-114.782-181.427-114.782l-3.623-864.79z" transform="translate(-11663 -10233)"/></clipPath><linearGradient id="b" gradientUnits="objectBoundingBox" x1=".459" x2=".5" y1="-2.151" y2="1"><stop offset="0" stop-color="#254cef"/><stop offset="1" stop-color="#4e6ef1"/></linearGradient><linearGradient id="c" x1=".5" xlink:href="#b" y1="1.281" y2=".379"/><linearGradient id="d" x1=".253" x2=".303" xlink:href="#b" y1="1.319" y2=".134"/><g transform="translate(6.637)"><path d="m13583 10233v466.524s-1646.832 495.967-1741.587 513.048-185.05-114.827-185.05-114.827v-864.745z" fill="#4e6ef1" transform="translate(-11663 -10233)"/><g clip-path="url(#a)"><path d="m141.8 17.964a42 42 0 0 1 49.4 0l117.14 85.186a42 42 0 0 1 15.246 46.935l-44.759 137.883a42 42 0 0 1 -39.948 29.032h-144.758a42 42 0 0 1 -39.948-29.032l-44.759-137.883a42 42 0 0 1 15.246-46.935z" fill="url(#b)" transform="matrix(.64278761 -.76604444 .76604444 .64278761 95.058 464.165)"/><path d="m0 288 26.667-26.7c26.666-26.3 80-80.3 133.333-106.6 53.333-26.7 106.667-26.7 160-42.7s106.667-48 160-32 106.667 80 160 112 106.667 32 160 48 106.667 48 160 53.3c53.333 5.7 106.667-16.3 160-53.3s106.667-91 160-85.3c53.333 5.3 106.667 69.3 160 53.3s106.667-112 160-106.7c53.333 5.7 106.667 111.7 160 133.4 53.333 21.3 106.667-42.7 133.333-74.7l26.667-32v-128h-1920z" fill="url(#c)"/><path d="m1242.348 166.476c-62.597-42.3-240.561-145.476-302.805-145.176-62.6-.3-125.664 85.7-187.909 101.4-62.597 16.3-125.664-37.7-187.909-58.7-62.6-21-125.664-11-187.908-16-62.6-5-95-117.9-157.248-128.2-62.597-10.7-156.324 80.2-186.859 80.2h-31.71v224h1127.451c62.597 0 177.142-14.824 114.897-57.524z" fill="url(#d)" transform="matrix(.95630476 -.2923717 .2923717 .95630476 -55.716 866.473)"/></g></g></svg>