<svg height="926.261" viewBox="0 0 892.96 926.261" width="892.96" xmlns="http://www.w3.org/2000/svg" xmlns:xlink="http://www.w3.org/1999/xlink"><clipPath id="a"><path d="m11663.032 14838.449s557.663-274.542 688.929-143.687 449.07-623.494-148.54-602.967-540.389-179.607-540.389-179.607z" transform="translate(-11662 -10232.817)"/></clipPath><g transform="translate(.446 -3679.371)"><path d="m11663.032 14838.449s557.663-274.542 688.929-143.687 449.07-623.494-148.54-602.967-540.389-179.607-540.389-179.607z" fill="#f3f7ff" transform="translate(-11662 -10232.817)"/><g clip-path="url(#a)"><path d="m11600.266 14678.291s14.528 10.64 188.943-65.911 257.226-213.442 105.457-239.475 4.395-243.87 197.732-224.1 178.725 507.512 323.729 463.571 100.3-206.52 5.824-250.46-199.929 388.873-542.664 290.007 52.729-505.314-193.338-663.5" fill="none" stroke="#fff" stroke-width="19" transform="translate(-11663 -10233)"/></g></g></svg>