<svg fill="none" height="55" viewBox="0 0 223 55" width="223" xmlns="http://www.w3.org/2000/svg"><path d="m90.084 40-1.116-5.112h-6.624l-1.116 5.112h-6.912l7.416-25.02h7.992l7.416 25.02zm-6.696-9.864h4.536l-2.268-10.404zm26.341-9.972c2.4 0 4.2.9 5.4 2.7 1.2 1.776 1.8 4.272 1.8 7.488 0 1.968-.312 3.732-.936 5.292s-1.524 2.784-2.7 3.672c-1.152.888-2.484 1.332-3.996 1.332-1.896 0-3.42-.648-4.572-1.944v8.712l-6.4077.648v-27.252h5.6877l.288 2.016c.744-.936 1.584-1.608 2.52-2.016.96-.432 1.932-.648 2.916-.648zm-2.484 15.876c2.04 0 3.06-1.872 3.06-5.616 0-2.184-.228-3.66-.684-4.428-.432-.792-1.092-1.188-1.98-1.188-1.152 0-2.124.672-2.916 2.016v7.704c.36.528.732.912 1.116 1.152.408.24.876.36 1.404.36zm24-15.876c2.4 0 4.2.9 5.4 2.7 1.2 1.776 1.8 4.272 1.8 7.488 0 1.968-.312 3.732-.936 5.292s-1.524 2.784-2.7 3.672c-1.152.888-2.484 1.332-3.996 1.332-1.896 0-3.42-.648-4.572-1.944v8.712l-6.408.648v-27.252h5.688l.288 2.016c.744-.936 1.584-1.608 2.52-2.016.96-.432 1.932-.648 2.916-.648zm-2.484 15.876c2.04 0 3.06-1.872 3.06-5.616 0-2.184-.228-3.66-.684-4.428-.432-.792-1.092-1.188-1.98-1.188-1.152 0-2.124.672-2.916 2.016v7.704c.36.528.732.912 1.116 1.152.408.24.876.36 1.404.36zm18.06 4.608c-1.8 0-3.192-.504-4.176-1.512s-1.476-2.46-1.476-4.356v-21.528l6.408-.648v21.96c0 .696.312 1.044.936 1.044.264 0 .54-.048.828-.144l1.188 4.536c-.984.432-2.22.648-3.708.648zm21.022-6.552c0 .696.084 1.212.252 1.548.192.336.516.588.972.756l-1.296 4.14c-1.224-.096-2.232-.348-3.024-.756-.768-.408-1.392-1.056-1.872-1.944-1.224 1.872-3.156 2.808-5.796 2.808-1.896 0-3.42-.552-4.572-1.656-1.128-1.128-1.692-2.58-1.692-4.356 0-2.112.78-3.732 2.34-4.86s3.816-1.692 6.768-1.692h1.656v-.648c0-1.032-.216-1.728-.648-2.088-.432-.384-1.212-.576-2.34-.576-.6 0-1.356.096-2.268.288-.888.168-1.8.408-2.736.72l-1.404-4.14c1.152-.48 2.388-.84 3.708-1.08 1.32-.264 2.544-.396 3.672-.396 2.88 0 4.98.576 6.3 1.728 1.32 1.128 1.98 2.868 1.98 5.22zm-8.82 2.052c.528 0 1.008-.132 1.44-.396.456-.288.828-.672 1.116-1.152v-3.096h-1.08c-1.152 0-2.004.216-2.556.648-.552.408-.828 1.032-.828 1.872 0 .648.168 1.164.504 1.548s.804.576 1.404.576zm23.621 3.852c-.792 2.568-2.124 4.524-3.996 5.868-1.848 1.368-4.296 2.112-7.344 2.232l-.684-4.428c1.824-.192 3.18-.564 4.068-1.116.888-.528 1.584-1.38 2.088-2.556h-2.196l-5.616-19.188h6.804l2.916 15.192 3.348-15.192h6.588zm24.573-9.9c0 .144-.036.864-.108 2.16h-11.736c.168 1.464.576 2.472 1.224 3.024.672.528 1.62.792 2.844.792.72 0 1.428-.132 2.124-.396.72-.288 1.5-.72 2.34-1.296l2.592 3.528c-1.008.84-2.16 1.512-3.456 2.016-1.296.48-2.7.72-4.212.72-3.264 0-5.748-.912-7.452-2.736-1.68-1.848-2.52-4.32-2.52-7.416 0-1.944.348-3.696 1.044-5.256.72-1.56 1.776-2.796 3.168-3.708s3.072-1.368 5.04-1.368c2.808 0 5.028.876 6.66 2.628 1.632 1.728 2.448 4.164 2.448 7.308zm-6.3-1.8c-.024-1.272-.24-2.256-.648-2.952s-1.092-1.044-2.052-1.044c-.888 0-1.56.312-2.016.936s-.744 1.716-.864 3.276h5.58zm19.897-8.064c.624 0 1.272.108 1.944.324l-1.044 6.192c-.624-.192-1.2-.288-1.728-.288-1.08 0-1.908.372-2.484 1.116-.552.72-.984 1.824-1.296 3.312v9.108h-6.408v-19.188h5.58l.576 3.636c.384-1.272 1.02-2.292 1.908-3.06.912-.768 1.896-1.152 2.952-1.152z" fill="#000"/><path d="m48.8889 0h-42.77779c-3.36111 0-6.0805545 2.75-6.0805545 6.11111l-.0305555 42.77779c0 3.3611 2.75 6.1111 6.11111 6.1111h42.77779c3.3611 0 6.1111-2.75 6.1111-6.1111v-42.77779c0-3.36111-2.75-6.11111-6.1111-6.11111zm-3.0556 33.6111h-12.2222v12.2222h-12.2222v-12.2222h-12.22223v-12.2222h12.22223v-12.22223h12.2222v12.22223h12.2222z" fill="#4e6ef1"/></svg>