<svg width="223" height="55" viewBox="0 0 223 55" fill="none" xmlns="http://www.w3.org/2000/svg">
<g clip-path="url(#clip0)">
<path d="M90.084 40L88.968 34.888H82.344L81.228 40H74.316L81.732 14.98H89.724L97.14 40H90.084ZM83.388 30.136H87.924L85.656 19.732L83.388 30.136ZM109.729 20.164C112.129 20.164 113.929 21.064 115.129 22.864C116.329 24.64 116.929 27.136 116.929 30.352C116.929 32.32 116.617 34.084 115.993 35.644C115.369 37.204 114.469 38.428 113.293 39.316C112.141 40.204 110.809 40.648 109.297 40.648C107.401 40.648 105.877 40 104.725 38.704V47.416L98.3173 48.064V20.812H104.005L104.293 22.828C105.037 21.892 105.877 21.22 106.813 20.812C107.773 20.38 108.745 20.164 109.729 20.164V20.164ZM107.245 36.04C109.285 36.04 110.305 34.168 110.305 30.424C110.305 28.24 110.077 26.764 109.621 25.996C109.189 25.204 108.529 24.808 107.641 24.808C106.489 24.808 105.517 25.48 104.725 26.824V34.528C105.085 35.056 105.457 35.44 105.841 35.68C106.249 35.92 106.717 36.04 107.245 36.04ZM131.245 20.164C133.645 20.164 135.445 21.064 136.645 22.864C137.845 24.64 138.445 27.136 138.445 30.352C138.445 32.32 138.133 34.084 137.509 35.644C136.885 37.204 135.985 38.428 134.809 39.316C133.657 40.204 132.325 40.648 130.813 40.648C128.917 40.648 127.393 40 126.241 38.704V47.416L119.833 48.064V20.812H125.521L125.809 22.828C126.553 21.892 127.393 21.22 128.329 20.812C129.289 20.38 130.261 20.164 131.245 20.164V20.164ZM128.761 36.04C130.801 36.04 131.821 34.168 131.821 30.424C131.821 28.24 131.593 26.764 131.137 25.996C130.705 25.204 130.045 24.808 129.157 24.808C128.005 24.808 127.033 25.48 126.241 26.824V34.528C126.601 35.056 126.973 35.44 127.357 35.68C127.765 35.92 128.233 36.04 128.761 36.04V36.04ZM146.821 40.648C145.021 40.648 143.629 40.144 142.645 39.136C141.661 38.128 141.169 36.676 141.169 34.78V13.252L147.577 12.604V34.564C147.577 35.26 147.889 35.608 148.513 35.608C148.777 35.608 149.053 35.56 149.341 35.464L150.529 40C149.545 40.432 148.309 40.648 146.821 40.648ZM167.843 34.096C167.843 34.792 167.927 35.308 168.095 35.644C168.287 35.98 168.611 36.232 169.067 36.4L167.771 40.54C166.547 40.444 165.539 40.192 164.747 39.784C163.979 39.376 163.355 38.728 162.875 37.84C161.651 39.712 159.719 40.648 157.079 40.648C155.183 40.648 153.659 40.096 152.507 38.992C151.379 37.864 150.815 36.412 150.815 34.636C150.815 32.524 151.595 30.904 153.155 29.776C154.715 28.648 156.971 28.084 159.923 28.084H161.579V27.436C161.579 26.404 161.363 25.708 160.931 25.348C160.499 24.964 159.719 24.772 158.591 24.772C157.991 24.772 157.235 24.868 156.323 25.06C155.435 25.228 154.523 25.468 153.587 25.78L152.183 21.64C153.335 21.16 154.571 20.8 155.891 20.56C157.211 20.296 158.435 20.164 159.563 20.164C162.443 20.164 164.543 20.74 165.863 21.892C167.183 23.02 167.843 24.76 167.843 27.112V34.096ZM159.023 36.148C159.551 36.148 160.031 36.016 160.463 35.752C160.919 35.464 161.291 35.08 161.579 34.6V31.504H160.499C159.347 31.504 158.495 31.72 157.943 32.152C157.391 32.56 157.115 33.184 157.115 34.024C157.115 34.672 157.283 35.188 157.619 35.572C157.955 35.956 158.423 36.148 159.023 36.148V36.148ZM182.644 40C181.852 42.568 180.52 44.524 178.648 45.868C176.8 47.236 174.352 47.98 171.304 48.1L170.62 43.672C172.444 43.48 173.8 43.108 174.688 42.556C175.576 42.028 176.272 41.176 176.776 40H174.58L168.964 20.812H175.768L178.684 36.004L182.032 20.812H188.62L182.644 40ZM207.217 30.1C207.217 30.244 207.181 30.964 207.109 32.26H195.373C195.541 33.724 195.949 34.732 196.597 35.284C197.269 35.812 198.217 36.076 199.441 36.076C200.161 36.076 200.869 35.944 201.565 35.68C202.285 35.392 203.065 34.96 203.905 34.384L206.497 37.912C205.489 38.752 204.337 39.424 203.041 39.928C201.745 40.408 200.341 40.648 198.829 40.648C195.565 40.648 193.081 39.736 191.377 37.912C189.697 36.064 188.857 33.592 188.857 30.496C188.857 28.552 189.205 26.8 189.901 25.24C190.621 23.68 191.677 22.444 193.069 21.532C194.461 20.62 196.141 20.164 198.109 20.164C200.917 20.164 203.137 21.04 204.769 22.792C206.401 24.52 207.217 26.956 207.217 30.1V30.1ZM200.917 28.3C200.893 27.028 200.677 26.044 200.269 25.348C199.861 24.652 199.177 24.304 198.217 24.304C197.329 24.304 196.657 24.616 196.201 25.24C195.745 25.864 195.457 26.956 195.337 28.516H200.917V28.3ZM220.814 20.236C221.438 20.236 222.086 20.344 222.758 20.56L221.714 26.752C221.09 26.56 220.514 26.464 219.986 26.464C218.906 26.464 218.078 26.836 217.502 27.58C216.95 28.3 216.518 29.404 216.206 30.892V40H209.798V20.812H215.378L215.954 24.448C216.338 23.176 216.974 22.156 217.862 21.388C218.774 20.62 219.758 20.236 220.814 20.236V20.236Z" fill="white"/>
<path d="M48.8889 0H6.11111C2.75 0 0.0305555 2.75 0.0305555 6.11111L0 48.8889C0 52.25 2.75 55 6.11111 55H48.8889C52.25 55 55 52.25 55 48.8889V6.11111C55 2.75 52.25 0 48.8889 0V0ZM45.8333 33.6111H33.6111V45.8333H21.3889V33.6111H9.16667V21.3889H21.3889V9.16667H33.6111V21.3889H45.8333V33.6111Z" fill="white"/>
</g>
<defs>
<clipPath id="clip0">
<rect width="223" height="55" fill="white"/>
</clipPath>
</defs>
</svg>
