<svg width="637" height="360" viewBox="0 0 637 360" fill="none" xmlns="http://www.w3.org/2000/svg">
<g clip-path="url(#clip0_404_14)">
<path opacity="0.61" d="M235.44 11.4481C221.803 14.9481 156.14 2.59712 132.606 0.948119C124.366 0.371119 76.1061 -2.06188 44.4641 31.6121C20.1031 57.5341 5.19809 102.562 22.1641 131.675C28.6461 142.795 38.4361 151.809 43.3091 163.781C60.2341 205.356 10.3541 246.231 11.5771 291.352C12.8141 336.994 65.5771 362.752 109.426 359.528C153.275 356.304 194.864 335.428 238.815 334.513C270.845 333.848 302.264 343.858 334.279 345.088C362.233 346.118 390.031 340.485 415.379 328.654C461.303 307.219 500.136 254.871 485.084 204.967C465.867 141.285 376.759 125.39 354.563 62.7601C350.453 51.1601 348.945 38.4991 343.099 27.7371C331.533 6.44712 303.899 0.383121 286.744 0.0131211C284.817 -0.0278789 269.067 -0.268882 257.412 4.26912C256.189 4.74612 251.889 6.49112 245.787 8.45512C245.787 8.46012 240.63 10.1161 235.44 11.4481Z" fill="#F3F7FF"/>
<g opacity="0.54">
<mask id="mask0_404_14" style="mask-type:luminance" maskUnits="userSpaceOnUse" x="524" y="280" width="113" height="51">
<path d="M524.237 312.971C528.047 303.967 533.788 295.911 541.055 289.371C542.201 288.171 543.653 287.306 545.255 286.871C548.829 286.203 551.801 289.484 555.189 290.805C561.143 293.125 567.677 289.116 572.104 284.505C573.276 283.053 574.738 281.862 576.395 281.005C577.902 280.502 579.496 280.314 581.078 280.453C597.996 280.862 615.422 283.763 629.578 293.03C633.186 295.392 636.914 299.08 636.069 303.309C634.928 309.017 627.202 309.859 621.403 309.361L609.381 308.325C607.483 308.002 605.535 308.164 603.716 308.795C599.216 310.81 598.916 317.56 594.783 320.248C589.589 323.625 582.152 318.51 576.631 321.32C574.08 322.62 572.589 325.32 570.417 327.184C563.969 332.722 553.848 329.431 547.029 324.356C540.21 319.281 534.051 312.453 525.7 310.889" fill="white"/>
</mask>
<g mask="url(#mask0_404_14)">
<path d="M524.237 312.971C528.047 303.967 533.788 295.911 541.055 289.371C542.201 288.171 543.653 287.306 545.255 286.871C548.829 286.203 551.801 289.484 555.189 290.805C561.143 293.125 567.677 289.116 572.104 284.505C573.276 283.053 574.738 281.862 576.395 281.005C577.902 280.502 579.496 280.314 581.078 280.453C597.996 280.862 615.422 283.763 629.578 293.03C633.186 295.392 636.914 299.08 636.069 303.309C634.928 309.017 627.202 309.859 621.403 309.361L609.381 308.325C607.483 308.002 605.535 308.164 603.716 308.795C599.216 310.81 598.916 317.56 594.783 320.248C589.589 323.625 582.152 318.51 576.631 321.32C574.08 322.62 572.589 325.32 570.417 327.184C563.969 332.722 553.848 329.431 547.029 324.356C540.21 319.281 534.051 312.453 525.7 310.889" fill="#4E6EF1"/>
<path d="M645.851 308.859C637.117 301.606 625.79 298.04 614.492 296.911C603.194 295.782 591.806 296.925 580.52 298.161C554.255 301.032 526.497 305.037 506.096 321.825" fill="#4E6EF1"/>
<path d="M645.851 308.859C637.117 301.606 625.79 298.04 614.492 296.911C603.194 295.782 591.806 296.925 580.52 298.161C554.255 301.032 526.497 305.037 506.096 321.825" stroke="white" stroke-width="0.391" stroke-miterlimit="10"/>
<path d="M579.462 298.089C582.875 290.236 588.006 283.249 594.477 277.643Z" fill="#4E6EF1"/>
<path d="M579.462 298.089C582.875 290.236 588.006 283.249 594.477 277.643" stroke="white" stroke-width="0.391" stroke-miterlimit="10"/>
<path d="M592.718 297.76C598.443 303.78 605.047 308.898 612.304 312.94Z" fill="#4E6EF1"/>
<path d="M592.718 297.76C598.443 303.78 605.047 308.898 612.304 312.94" stroke="white" stroke-width="0.391" stroke-miterlimit="10"/>
<path d="M612.729 296.573C616.177 292.569 620.387 289.291 625.114 286.929Z" fill="#4E6EF1"/>
<path d="M612.729 296.573C616.177 292.569 620.387 289.291 625.114 286.929" stroke="white" stroke-width="0.391" stroke-miterlimit="10"/>
<path d="M562.134 300.49C569.761 312.308 578.007 324.69 590.664 330.818Z" fill="#4E6EF1"/>
<path d="M562.134 300.49C569.761 312.308 578.007 324.69 590.664 330.818" stroke="white" stroke-width="0.391" stroke-miterlimit="10"/>
<path d="M546.588 302.233C547.084 295.212 549.66 288.498 553.988 282.947Z" fill="#4E6EF1"/>
<path d="M546.588 302.233C547.084 295.212 549.66 288.498 553.988 282.947" stroke="white" stroke-width="0.391" stroke-miterlimit="10"/>
<path d="M552.21 302C552.726 297.904 554.301 294.013 556.781 290.712Z" fill="#4E6EF1"/>
<path d="M552.21 302C552.726 297.904 554.301 294.013 556.781 290.712" stroke="white" stroke-width="0.039" stroke-miterlimit="10"/>
<path d="M558.239 300.773C559.427 295.528 561.393 290.489 564.071 285.825Z" fill="#4E6EF1"/>
<path d="M558.239 300.773C559.427 295.528 561.393 290.489 564.071 285.825" stroke="white" stroke-width="0.039" stroke-miterlimit="10"/>
<path d="M565.667 300.005C566.319 294.347 568.086 288.875 570.867 283.905Z" fill="#4E6EF1"/>
<path d="M565.667 300.005C566.319 294.347 568.086 288.875 570.867 283.905" stroke="white" stroke-width="0.039" stroke-miterlimit="10"/>
<path d="M573.736 298.872C575.122 291.595 577.915 284.658 581.96 278.452Z" fill="#4E6EF1"/>
<path d="M573.736 298.872C575.122 291.595 577.915 284.658 581.96 278.452" stroke="white" stroke-width="0.039" stroke-miterlimit="10"/>
<path d="M535.76 307.588C538.665 310.918 541.815 314.027 545.183 316.888Z" fill="#4E6EF1"/>
<path d="M535.76 307.588C538.665 310.918 541.815 314.027 545.183 316.888" stroke="white" stroke-width="0.039" stroke-miterlimit="10"/>
<path d="M543.538 303.975C546.022 307.327 548.693 310.537 551.538 313.588Z" fill="#4E6EF1"/>
<path d="M543.538 303.975C546.022 307.327 548.693 310.537 551.538 313.588" stroke="white" stroke-width="0.039" stroke-miterlimit="10"/>
<path d="M551.61 303.916C554.419 307.424 557.093 311.035 559.631 314.748Z" fill="#4E6EF1"/>
<path d="M551.61 303.916C554.419 307.424 557.093 311.035 559.631 314.748" stroke="white" stroke-width="0.039" stroke-miterlimit="10"/>
<path d="M600.181 297.3C604.69 302.326 609.606 306.971 614.881 311.186Z" fill="#4E6EF1"/>
<path d="M600.181 297.3C604.69 302.326 609.606 306.971 614.881 311.186" stroke="white" stroke-width="0.039" stroke-miterlimit="10"/>
<path d="M606.977 296.908C610.982 301.94 615.231 306.764 619.725 311.379Z" fill="#4E6EF1"/>
<path d="M606.977 296.908C610.982 301.94 615.231 306.764 619.725 311.379" stroke="white" stroke-width="0.039" stroke-miterlimit="10"/>
<path d="M616.014 296.587L626.523 311.012Z" fill="#4E6EF1"/>
<path d="M616.014 296.587L626.523 311.012" stroke="white" stroke-width="0.039" stroke-miterlimit="10"/>
<path d="M626.573 300.547C629.576 304.053 632.298 307.791 634.713 311.725Z" fill="#4E6EF1"/>
<path d="M626.573 300.547C629.576 304.053 632.298 307.791 634.713 311.725" stroke="white" stroke-width="0.039" stroke-miterlimit="10"/>
</g>
<path d="M528.303 308.872C523.713 311.701 519.284 314.784 515.038 318.107" stroke="white" stroke-width="0.391" stroke-miterlimit="10"/>
</g>
<g opacity="0.54">
<mask id="mask1_404_14" style="mask-type:luminance" maskUnits="userSpaceOnUse" x="530" y="165" width="91" height="124">
<path d="M535.382 288.294C533.182 282.002 530.966 275.606 530.682 269.033C530.398 262.46 532.301 255.569 537.262 251.233C540.142 248.718 543.901 247.171 546.426 244.321C554.926 234.727 545.892 215.561 557.054 208.947C560.223 207.068 564.19 206.947 567.787 205.953C586.205 200.869 589.915 175.805 606.687 167.069C610.018 165.334 614.428 164.432 617.555 166.688C620.274 168.65 621 172.305 620.731 175.508C620.01 184.094 613.938 191.282 612.296 199.718C610.042 211.291 616.068 224.889 609.166 234.46C605.282 239.847 598.054 242.48 594.812 248.26C591.55 254.078 592.851 262.219 587.874 266.741C583.853 270.397 577.318 270.094 572.692 273.021C570.085 274.671 568.271 277.231 565.947 279.232C557.324 286.654 543.932 285.068 532.3 283.053" fill="white"/>
</mask>
<g mask="url(#mask1_404_14)">
<path d="M535.287 288.257C533.087 281.965 530.871 275.569 530.587 268.996C530.303 262.423 532.206 255.531 537.167 251.196C540.047 248.681 543.806 247.134 546.331 244.284C554.831 234.69 545.797 215.524 556.959 208.909C560.128 207.032 564.095 206.909 567.692 205.917C586.109 200.833 589.819 175.769 606.592 167.032C609.923 165.297 614.332 164.395 617.46 166.651C620.178 168.613 620.905 172.267 620.636 175.471C619.915 184.057 613.843 191.245 612.201 199.681C609.947 211.254 615.973 224.85 609.071 234.421C605.185 239.809 597.957 242.442 594.715 248.221C591.454 254.039 592.756 262.18 587.778 266.702C583.756 270.358 577.222 270.055 572.596 272.982C569.989 274.632 568.175 277.192 565.851 279.193C557.228 286.615 543.836 285.029 532.204 283.014" fill="#FFB260"/>
<path d="M621.214 162.362C609.559 169.662 604.622 183.403 597.733 195.068C593.312 202.556 587.868 209.43 583.56 216.981C579.687 223.772 576.754 231.081 572.525 237.66C569.868 241.622 566.985 245.428 563.892 249.06L512.524 311.762" fill="#FFB260"/>
<path d="M621.214 162.362C609.559 169.662 604.622 183.403 597.733 195.068C593.312 202.556 587.868 209.43 583.56 216.981C579.687 223.772 576.754 231.081 572.525 237.66C569.868 241.622 566.985 245.428 563.892 249.06L512.524 311.762" stroke="white" stroke-width="0.343" stroke-miterlimit="10"/>
<path d="M543.981 242.484L548.476 267.106Z" fill="#FFB260"/>
<path d="M543.981 242.484L548.476 267.106" stroke="white" stroke-width="0.343" stroke-miterlimit="10"/>
<path d="M554.27 260.408L595.832 257.067Z" fill="#FFB260"/>
<path d="M554.27 260.408L595.832 257.067" stroke="white" stroke-width="0.343" stroke-miterlimit="10"/>
<path d="M578.162 228.538C579.107 227.561 580.34 226.91 581.68 226.682C594.385 223.125 607.28 220.284 620.304 218.174" fill="#FFB260"/>
<path d="M578.162 228.538C579.107 227.561 580.34 226.91 581.68 226.682C594.385 223.125 607.28 220.284 620.304 218.174" stroke="white" stroke-width="0.343" stroke-miterlimit="10"/>
<path d="M573.122 236.507C569.375 226.045 566.381 215.329 564.163 204.44Z" fill="#FFB260"/>
<path d="M573.122 236.507C569.375 226.045 566.381 215.329 564.163 204.44" stroke="white" stroke-width="0.343" stroke-miterlimit="10"/>
<path d="M598.311 194.982C596.286 189.034 594.563 183.01 593.144 176.909Z" fill="#FFB260"/>
<path d="M598.311 194.982C596.286 189.034 594.563 183.01 593.144 176.909" stroke="white" stroke-width="0.343" stroke-miterlimit="10"/>
<path d="M597.518 194.308C605.602 191.928 614.762 192.79 622.24 189.064Z" fill="#FFB260"/>
<path d="M597.518 194.308C605.602 191.928 614.762 192.79 622.24 189.064" stroke="white" stroke-width="0.343" stroke-miterlimit="10"/>
<path d="M570.032 242.741C565.277 230.106 559.988 217.66 554.165 205.404Z" fill="#FFB260"/>
<path d="M570.032 242.741C565.277 230.106 559.988 217.66 554.165 205.404" stroke="white" stroke-width="0.034" stroke-miterlimit="10"/>
<path d="M565.361 246.605C561.123 235.405 556.537 224.325 551.601 213.367Z" fill="#FFB260"/>
<path d="M565.361 246.605C561.123 235.405 556.537 224.325 551.601 213.367" stroke="white" stroke-width="0.034" stroke-miterlimit="10"/>
<path d="M561.914 251.764C558.622 243.37 554.841 235.176 550.591 227.225Z" fill="#FFB260"/>
<path d="M561.914 251.764C558.622 243.37 554.841 235.176 550.591 227.225" stroke="white" stroke-width="0.034" stroke-miterlimit="10"/>
<path d="M557.437 257.551C554.389 251.868 551.496 246.115 548.757 240.292Z" fill="#FFB260"/>
<path d="M557.437 257.551C554.389 251.868 551.496 246.115 548.757 240.292" stroke="white" stroke-width="0.034" stroke-miterlimit="10"/>
<path d="M602.987 187.39C608.775 185.66 614.523 183.821 620.23 181.873Z" fill="#FFB260"/>
<path d="M602.987 187.39C608.775 185.66 614.523 183.821 620.23 181.873" stroke="white" stroke-width="0.034" stroke-miterlimit="10"/>
<path d="M606.13 180.029C612.815 178.219 619.541 176.54 626.306 174.993Z" fill="#FFB260"/>
<path d="M606.13 180.029C612.815 178.219 619.541 176.54 626.306 174.993" stroke="white" stroke-width="0.034" stroke-miterlimit="10"/>
<path d="M609.902 174.165C615.519 172.401 621.082 170.501 626.593 168.465Z" fill="#FFB260"/>
<path d="M609.902 174.165C615.519 172.401 621.082 170.501 626.593 168.465" stroke="white" stroke-width="0.034" stroke-miterlimit="10"/>
<path d="M548.128 268.486C560.751 269.783 573.456 270.095 586.128 269.42Z" fill="#FFB260"/>
<path d="M548.128 268.486C560.751 269.783 573.456 270.095 586.128 269.42" stroke="white" stroke-width="0.034" stroke-miterlimit="10"/>
<path d="M542.096 274.34C543.095 274.496 544.111 274.52 545.117 274.41C554.764 273.826 564.446 274.273 573.998 275.743" fill="#FFB260"/>
<path d="M542.096 274.34C543.095 274.496 544.111 274.52 545.117 274.41C554.764 273.826 564.446 274.273 573.998 275.743" stroke="white" stroke-width="0.034" stroke-miterlimit="10"/>
<path d="M538.185 278.168C540.985 279.82 544.26 280.468 547.46 281.031C553.448 282.08 559.463 282.919 565.503 283.548" fill="#FFB260"/>
<path d="M538.185 278.168C540.985 279.82 544.26 280.468 547.46 281.031C553.448 282.08 559.463 282.919 565.503 283.548" stroke="white" stroke-width="0.034" stroke-miterlimit="10"/>
</g>
<path d="M536.622 282.995C534.265 286.765 532.294 290.763 530.737 294.928" stroke="white" stroke-width="0.343" stroke-miterlimit="10"/>
</g>
<path d="M0 85.082H155.892V124.666H47.152V179.389H149.012V218.971H47.152V308.427H0V85.082Z" fill="black"/>
<path d="M203.998 256.837L186.573 308.427H139.098L214.938 85.082H275.598L354.717 308.426H303.947L285.589 256.836L203.998 256.837ZM275.198 217.256C259.341 170.121 249.234 140.007 243.843 119.933H243.52C238.013 141.951 226.857 176.987 214.148 217.256H275.198Z" fill="black"/>
<path d="M570.416 195.991C570.416 258.15 533.094 311.666 460.553 311.666C390.461 311.666 353.777 260.728 353.777 196.755C353.777 131.755 394.299 81.843 463.677 81.843C529.012 81.843 570.416 127.622 570.416 195.991ZM403.651 195.783C403.651 239.383 422.786 272.37 462.381 272.37C505.33 272.37 520.541 236.403 520.541 196.601C520.541 154.348 503.232 121.141 461.602 121.141C421.259 121.135 403.652 152.299 403.652 195.783H403.651ZM523.367 274.214L586.873 317.75L558.954 349.85L480.207 295.297L523.367 274.214Z" fill="black"/>
<path d="M51.8999 312.465C50.1149 312.535 48.3384 312.749 46.5879 313.106C42.9879 313.879 41.7519 314.869 41.3119 315.251C40.3145 316.121 39.55 317.226 39.0879 318.466C38.5254 319.962 38.4678 321.602 38.9239 323.134C40.3089 327.134 45.8509 327.975 46.4669 328.061C48.3949 328.327 50.6769 327.709 55.2439 326.474C57.8149 325.774 59.6059 325.168 61.6049 324.485C67.2429 322.554 70.0789 321.56 70.9349 320.11C72.3759 317.667 71.9349 313.767 69.9009 312.077C69.0539 311.377 68.3419 311.398 61.0379 311.826C48.8269 312.539 59.4969 311.968 51.8999 312.465Z" fill="#3282B8"/>
<mask id="mask2_404_14" style="mask-type:luminance" maskUnits="userSpaceOnUse" x="45" y="311" width="27" height="18">
<path d="M48.298 317.079C47.7173 315.669 46.8782 314.38 45.824 313.279C46.062 313.22 46.324 313.157 46.587 313.102C48.3399 312.748 50.1181 312.533 51.905 312.461C59.499 311.961 48.827 312.534 61.036 311.822C68.347 311.391 69.053 311.372 69.903 312.078C70.7118 312.799 71.2768 313.753 71.52 314.809C71.8559 316.046 71.8693 317.348 71.559 318.591C71.4212 319.123 71.2123 319.634 70.938 320.111C70.078 321.557 67.238 322.553 61.608 324.486C59.608 325.17 57.808 325.773 55.247 326.474C52.8515 327.238 50.3913 327.781 47.897 328.097C48.591 327.038 49.0581 325.846 49.269 324.597C49.3312 323.813 49.3051 323.024 49.191 322.246C49.091 321.322 48.968 320.392 48.832 319.472C48.7318 318.659 48.553 317.857 48.298 317.079Z" fill="white"/>
</mask>
<g mask="url(#mask2_404_14)">
<path d="M56.2451 324.349C56.6234 324.349 56.9301 324.042 56.9301 323.664C56.9301 323.286 56.6234 322.979 56.2451 322.979C55.8667 322.979 55.5601 323.286 55.5601 323.664C55.5601 324.042 55.8667 324.349 56.2451 324.349Z" stroke="#FFDEF1" stroke-width="0.263" stroke-miterlimit="10"/>
<path opacity="0.29" d="M50.1289 323.508C57.6622 321.928 65.1649 320.2 72.6369 318.325" stroke="#FFDEF1" stroke-width="0.092" stroke-miterlimit="10"/>
<path opacity="0.29" d="M72.211 314.679C70.511 315.068 68.725 314.938 67.004 315.244C66.049 315.413 65.121 315.717 64.164 315.88C63.048 316.071 61.907 316.07 60.781 316.18C59.0953 316.411 57.4237 316.735 55.774 317.151C53.6556 317.61 51.5128 317.947 49.356 318.162" stroke="#FFDEF1" stroke-width="0.092" stroke-miterlimit="10"/>
<path opacity="0.97" d="M54.8159 316.042C55.9024 318.326 56.424 320.838 56.3369 323.366" stroke="#FFDEF1" stroke-width="0.092" stroke-miterlimit="10"/>
<path opacity="0.97" d="M58.8499 315.331C59.4159 316.94 59.832 318.598 60.0928 320.284C60.2204 321.012 60.1762 321.759 59.9639 322.467" stroke="#FFDEF1" stroke-width="0.087" stroke-miterlimit="10"/>
<path opacity="0.97" d="M63.0801 314.564L63.8561 319.364C64.0581 320.144 64.0384 320.964 63.7991 321.733" stroke="#FFDEF1" stroke-width="0.077" stroke-miterlimit="10"/>
<path d="M59.9579 323.411C60.3363 323.411 60.6429 323.104 60.6429 322.726C60.6429 322.348 60.3363 322.041 59.9579 322.041C59.5796 322.041 59.2729 322.348 59.2729 322.726C59.2729 323.104 59.5796 323.411 59.9579 323.411Z" stroke="#FFDEF1" stroke-width="0.263" stroke-miterlimit="10"/>
<path d="M63.6931 322.623C64.0714 322.623 64.3781 322.316 64.3781 321.938C64.3781 321.56 64.0714 321.253 63.6931 321.253C63.3147 321.253 63.0081 321.56 63.0081 321.938C63.0081 322.316 63.3147 322.623 63.6931 322.623Z" stroke="#FFDEF1" stroke-width="0.263" stroke-miterlimit="10"/>
<path d="M62.8859 314.917C63.2642 314.917 63.5709 314.61 63.5709 314.232C63.5709 313.854 63.2642 313.547 62.8859 313.547C62.5076 313.547 62.2009 313.854 62.2009 314.232C62.2009 314.61 62.5076 314.917 62.8859 314.917Z" stroke="#FFDEF1" stroke-width="0.263" stroke-miterlimit="10"/>
<path d="M58.8779 315.627C59.2562 315.627 59.5629 315.32 59.5629 314.942C59.5629 314.564 59.2562 314.257 58.8779 314.257C58.4996 314.257 58.1929 314.564 58.1929 314.942C58.1929 315.32 58.4996 315.627 58.8779 315.627Z" stroke="#FFDEF1" stroke-width="0.263" stroke-miterlimit="10"/>
<path d="M54.7709 316.403C55.1493 316.403 55.4559 316.096 55.4559 315.718C55.4559 315.34 55.1493 315.033 54.7709 315.033C54.3926 315.033 54.0859 315.34 54.0859 315.718C54.0859 316.096 54.3926 316.403 54.7709 316.403Z" stroke="#FFDEF1" stroke-width="0.263" stroke-miterlimit="10"/>
</g>
<path d="M39.0919 318.465C39.4216 317.579 39.9072 316.76 40.5259 316.045C40.7731 315.765 41.038 315.5 41.3189 315.254C41.7189 314.906 42.8129 314.029 45.8249 313.283C46.8791 314.384 47.7182 315.673 48.2989 317.083C48.5547 317.862 48.7342 318.664 48.8349 319.478C48.9709 320.397 49.0919 321.328 49.1939 322.252C49.308 323.03 49.3342 323.819 49.2719 324.603C49.0611 325.852 48.594 327.043 47.8999 328.103C47.4218 328.136 46.9417 328.119 46.4669 328.054C45.0053 327.84 43.5885 327.389 42.2729 326.717C40.7412 325.991 39.5442 324.707 38.9259 323.129C38.4711 321.598 38.5294 319.96 39.0919 318.465Z" fill="#FFDEF1"/>
<path d="M129.646 323.683C131.401 324.018 133.179 324.211 134.965 324.26C138.647 324.32 140.074 323.637 140.589 323.36C141.758 322.739 142.752 321.835 143.482 320.731C144.369 319.4 144.796 317.815 144.697 316.219C144.252 312.012 139.045 309.937 138.463 309.719C136.646 309.019 134.283 309.11 129.556 309.281C126.893 309.381 125.011 309.565 122.91 309.781C116.983 310.381 113.995 310.713 112.833 311.934C110.877 313.988 110.421 317.885 112.026 319.991C112.693 320.867 113.389 321.007 120.602 322.241C132.657 324.302 122.132 322.45 129.646 323.683Z" fill="#3282B8"/>
<mask id="mask3_404_14" style="mask-type:luminance" maskUnits="userSpaceOnUse" x="111" y="309" width="27" height="16">
<path d="M134.198 320.001C134.445 321.505 134.972 322.95 135.751 324.26C135.504 324.26 135.24 324.267 134.967 324.26C133.179 324.209 131.399 324.016 129.642 323.683C122.132 322.449 132.657 324.306 120.603 322.241C113.383 321.009 112.691 320.866 112.023 319.987C111.398 319.102 111.063 318.045 111.063 316.962C111.017 315.681 111.299 314.41 111.882 313.269C112.136 312.782 112.455 312.331 112.83 311.929C113.995 310.714 116.983 310.385 122.908 309.777C125.008 309.562 126.894 309.377 129.553 309.277C132.059 309.074 134.579 309.101 137.08 309.357C136.163 310.232 135.438 311.287 134.951 312.457C134.714 313.207 134.561 313.981 134.496 314.765C134.387 315.689 134.296 316.621 134.219 317.547C134.132 318.362 134.125 319.184 134.198 320.001Z" fill="white"/>
</mask>
<g mask="url(#mask3_404_14)">
<path d="M127.946 312.477C128.324 312.477 128.631 312.17 128.631 311.792C128.631 311.414 128.324 311.107 127.946 311.107C127.567 311.107 127.261 311.414 127.261 311.792C127.261 312.17 127.567 312.477 127.946 312.477Z" stroke="#FFDEF1" stroke-width="0.263" stroke-miterlimit="10"/>
<path opacity="0.29" d="M133.868 313.326C126.17 313.162 118.47 313.149 110.768 313.287" stroke="#FFDEF1" stroke-width="0.092" stroke-miterlimit="10"/>
<path opacity="0.29" d="M110.362 316.933C112.109 316.933 113.817 317.469 115.562 317.561C116.532 317.611 117.504 317.526 118.474 317.583C119.604 317.649 120.713 317.908 121.838 318.05C123.533 318.207 125.236 318.27 126.938 318.237C129.105 318.269 131.269 318.424 133.419 318.702" stroke="#FFDEF1" stroke-width="0.092" stroke-miterlimit="10"/>
<path opacity="0.97" d="M127.616 319.537C127.073 317.067 127.133 314.502 127.79 312.06" stroke="#FFDEF1" stroke-width="0.092" stroke-miterlimit="10"/>
<path opacity="0.97" d="M123.525 319.318C123.338 317.622 123.308 315.912 123.435 314.211C123.475 313.472 123.687 312.753 124.054 312.111" stroke="#FFDEF1" stroke-width="0.087" stroke-miterlimit="10"/>
<path opacity="0.97" d="M119.231 319.111L119.561 314.257C119.54 313.452 119.744 312.658 120.151 311.963" stroke="#FFDEF1" stroke-width="0.077" stroke-miterlimit="10"/>
<path d="M124.117 312.551C124.495 312.551 124.802 312.244 124.802 311.866C124.802 311.488 124.495 311.181 124.117 311.181C123.739 311.181 123.432 311.488 123.432 311.866C123.432 312.244 123.739 312.551 124.117 312.551Z" stroke="#FFDEF1" stroke-width="0.263" stroke-miterlimit="10"/>
<path d="M120.301 312.474C120.679 312.474 120.986 312.167 120.986 311.789C120.986 311.411 120.679 311.104 120.301 311.104C119.923 311.104 119.616 311.411 119.616 311.789C119.616 312.167 119.923 312.474 120.301 312.474Z" stroke="#FFDEF1" stroke-width="0.263" stroke-miterlimit="10"/>
<path d="M119.345 320.163C119.723 320.163 120.03 319.856 120.03 319.478C120.03 319.1 119.723 318.793 119.345 318.793C118.967 318.793 118.66 319.1 118.66 319.478C118.66 319.856 118.967 320.163 119.345 320.163Z" stroke="#FFDEF1" stroke-width="0.263" stroke-miterlimit="10"/>
<path d="M123.41 320.378C123.788 320.378 124.095 320.071 124.095 319.693C124.095 319.315 123.788 319.008 123.41 319.008C123.032 319.008 122.725 319.315 122.725 319.693C122.725 320.071 123.032 320.378 123.41 320.378Z" stroke="#FFDEF1" stroke-width="0.263" stroke-miterlimit="10"/>
<path d="M127.585 320.55C127.963 320.55 128.27 320.243 128.27 319.865C128.27 319.487 127.963 319.18 127.585 319.18C127.207 319.18 126.9 319.487 126.9 319.865C126.9 320.243 127.207 320.55 127.585 320.55Z" stroke="#FFDEF1" stroke-width="0.263" stroke-miterlimit="10"/>
</g>
<path d="M143.479 320.734C142.958 321.523 142.3 322.212 141.535 322.768C141.231 322.985 140.913 323.183 140.584 323.36C140.113 323.607 138.852 324.216 135.75 324.26C134.971 322.95 134.444 321.505 134.197 320.001C134.124 319.185 134.131 318.363 134.217 317.548C134.292 316.621 134.385 315.689 134.494 314.766C134.558 313.982 134.711 313.208 134.949 312.458C135.436 311.288 136.161 310.233 137.078 309.358C137.55 309.431 138.014 309.552 138.461 309.721C139.837 310.26 141.115 311.02 142.245 311.972C143.573 313.026 144.449 314.546 144.694 316.224C144.793 317.82 144.366 319.404 143.479 320.734Z" fill="#FFDEF1"/>
<path d="M54.0259 297.039C73.2839 293.994 92.4172 290.265 111.426 285.853C115.595 284.886 119.826 283.879 124.098 284.093C128.37 284.307 132.778 285.922 135.386 289.314C136.259 290.397 136.833 291.689 137.052 293.062C137.459 296.104 135.585 298.979 133.482 301.215C127.574 307.505 119.303 311.215 110.826 312.846C102.349 314.477 93.6259 314.146 85.0259 313.346C74.7729 312.382 64.4549 310.696 55.0199 306.566C54.5873 306.415 54.1978 306.161 53.8849 305.826C53.5815 305.364 53.4224 304.823 53.4279 304.27C53.2243 301.647 53.3703 299.009 53.8619 296.424" fill="#1D2A5D"/>
<path d="M117.976 311.23C71.376 295.12 63.776 290.83 63.776 290.83C60.0115 288.748 55.8894 287.391 51.624 286.83C47.382 286.274 42.757 287.073 39.584 289.944C38.5317 290.852 37.735 292.02 37.273 293.331C36.328 296.251 37.657 299.416 39.323 301.993C44.009 309.241 51.481 314.377 59.523 317.493C67.565 320.609 76.216 321.86 84.814 322.604C101.721 324.068 113.225 320.919 115.548 321.31C115.988 321.412 116.45 321.34 116.838 321.11C117.068 320.877 117.247 320.599 117.366 320.294C117.484 319.989 117.538 319.663 117.525 319.336C117.763 317.52 117.972 318.364 118.572 315.129C119.023 312.694 118.95 311.973 118.506 311.539C118.355 311.397 118.174 311.292 117.976 311.23Z" fill="#1D2A5D"/>
<path d="M116.923 311.138C111.218 309.947 105.626 308.266 100.21 306.113C98.516 305.382 96.863 304.559 95.177 303.813C93.416 303.036 91.62 302.342 89.825 301.65L58.348 289.506C55.348 288.347 52.091 287.172 48.98 287.999" stroke="white" stroke-width="0.095" stroke-miterlimit="10"/>
<path d="M86.291 299.673C90.059 296.33 94.832 294.387 99.505 292.505C101.906 291.447 104.404 290.624 106.964 290.046C110.712 289.326 114.57 289.671 118.369 290.019" stroke="white" stroke-width="0.095" stroke-miterlimit="10"/>
<path d="M107.812 321.657C110.19 320.336 111.999 318.188 112.898 315.621" stroke="white" stroke-width="0.095" stroke-miterlimit="10"/>
<path d="M112.934 319.996C113.757 318.891 114.453 317.697 115.01 316.437" stroke="white" stroke-width="0.095" stroke-miterlimit="10"/>
<path opacity="0.29" d="M134.905 291.091C135.423 292.255 135.644 293.529 135.548 294.8C135.451 296.07 135.04 297.296 134.351 298.368" stroke="#FFDEF1" stroke-width="0.095" stroke-miterlimit="10"/>
<path d="M40.1069 294.623C40.5566 297.044 41.586 299.32 43.1069 301.256C44.6243 303.184 46.3819 304.911 48.3369 306.394" stroke="white" stroke-width="0.095" stroke-miterlimit="10"/>
<path d="M118.282 276.609C118.272 279.615 118.137 282.794 116.551 285.358C114.931 287.948 112.059 289.505 109.151 290.447C107.521 290.969 105.847 291.348 104.151 291.579C99.4976 292.626 94.7608 293.259 89.996 293.472C89.9632 293.479 89.9296 293.482 89.896 293.481C89.135 293.517 88.375 293.553 87.596 293.571C86.537 293.598 85.459 293.617 84.373 293.617C81.548 293.617 78.803 293.508 76.204 293.308C76.122 293.299 76.05 293.299 75.977 293.291C75.507 293.254 75.036 293.209 74.577 293.163C65.865 292.34 58.847 290.428 55.432 287.992C55.413 287.983 55.405 287.975 55.386 287.965C55.377 287.984 55.369 287.992 55.36 288.011C55.351 288.03 55.35 288.038 55.341 288.047C55.332 288.02 55.314 288.002 55.305 287.975C54.5796 286.48 53.9276 284.994 53.349 283.519C47.126 267.644 49.236 252.89 54.39 246.519C58.04 242 67.367 236.574 69.885 235.905C69.958 235.886 70.021 235.878 70.093 235.859C70.518 235.751 70.945 235.651 71.38 235.559C72.9257 235.25 74.489 235.035 76.061 234.917C76.061 234.917 76.378 234.89 76.661 234.871C76.996 234.789 77.332 234.709 77.661 234.644C78.394 234.482 79.128 234.355 79.843 234.244H79.852C84.1291 233.669 88.4688 233.748 92.722 234.48C93.518 234.598 94.333 234.725 95.167 234.861C96.3163 235.05 97.5163 235.259 98.767 235.486C99.467 235.612 100.188 235.739 100.922 235.875C102.89 236.267 104.821 236.831 106.691 237.56C108.761 238.246 110.66 239.367 112.262 240.847C115.024 243.601 115.875 247.695 116.455 251.547C117.701 259.842 118.312 268.221 118.282 276.609Z" fill="#2E3783"/>
<path d="M95.16 234.869L94.66 237.513C93.56 241.172 92.739 244.458 92.125 247.248C91.799 248.689 91.525 249.993 91.309 251.148C90.875 253.42 90.349 256.49 89.897 260.231C89.897 260.258 89.887 260.277 89.887 260.294C89.7537 261.445 89.624 262.658 89.498 263.935C89.498 263.99 89.489 264.044 89.489 264.097C89.48 264.197 89.47 264.315 89.462 264.433C89.362 265.483 89.281 266.57 89.209 267.702C89.199 267.828 89.19 267.965 89.182 268.108C88.6535 276.568 88.8928 285.058 89.897 293.475C89.136 293.511 88.376 293.547 87.597 293.565C86.538 293.592 85.46 293.611 84.374 293.611C81.549 293.611 78.804 293.502 76.205 293.302C76.123 293.293 76.051 293.293 75.978 293.285C76.4767 275.851 76.9767 258.411 77.478 240.966V240.949C77.514 239.816 77.541 238.684 77.578 237.549L77.66 234.642C78.393 234.48 79.127 234.353 79.842 234.242H79.851C84.1281 233.667 88.4679 233.746 92.721 234.478C93.513 234.603 94.326 234.733 95.16 234.869Z" fill="#FFDEF1"/>
<path d="M99.9509 251.288C99.8779 252.946 99.7969 254.612 99.7239 256.27C99.6519 257.882 99.398 259.792 98.04 260.49C97.4368 260.695 96.8229 260.868 96.2009 261.006C95.8834 261.096 95.608 261.295 95.4238 261.568C95.2395 261.842 95.1584 262.172 95.195 262.5C95.2925 262.786 95.4535 263.046 95.6659 263.261C96.2838 264.16 96.7117 265.175 96.9234 266.245C97.1351 267.314 97.1261 268.416 96.8969 269.482C96.7998 270.096 96.6663 270.705 96.497 271.303C96.0793 272.8 95.5097 274.25 94.7969 275.631C93.2209 278.719 92.7409 286.047 91.5099 289.659C90.9669 291.259 90.387 291.824 90.097 293.137C90.0713 293.251 90.0379 293.364 89.9969 293.473C89.9641 293.48 89.9305 293.483 89.8969 293.482C89.1359 293.518 88.376 293.554 87.597 293.572C87.4659 292.148 87.5268 290.714 87.778 289.306C88.403 284.797 87.9959 280.196 88.4569 275.668C88.7929 272.344 89.0189 269.916 89.1819 268.114C89.1909 267.97 89.199 267.834 89.209 267.707C89.335 266.239 89.4089 265.216 89.4619 264.438C89.4709 264.32 89.4809 264.202 89.4889 264.102C89.4889 264.049 89.4979 263.994 89.4979 263.94C89.5421 262.719 89.6721 261.502 89.8869 260.299C89.8869 260.282 89.8969 260.263 89.8969 260.236C90.3489 257.602 91.3639 252.393 92.1249 247.249C92.6879 243.875 92.9994 240.463 93.0569 237.043C93.0601 236.18 92.9446 235.321 92.7139 234.489C92.518 233.777 92.079 233.155 91.4729 232.732C90.8693 232.416 90.1861 232.283 89.5079 232.351C86.8026 232.165 84.0892 232.57 81.556 233.537C80.822 233.817 80.2789 234.037 79.8439 234.252H79.8349C79.4498 234.434 79.1 234.682 78.8019 234.986C78.1469 235.703 77.7186 236.597 77.5709 237.557C77.408 238.683 77.3745 239.824 77.471 240.957V240.974C77.633 244.443 77.0079 247.956 77.4339 251.407C77.9409 255.607 78.0339 266.06 76.2029 293.307C76.1209 293.298 76.0489 293.298 75.9759 293.29C75.5059 293.253 75.0349 293.208 74.5759 293.162C73.6759 290.681 72.855 279.962 70.736 273.647C70.736 273.647 69.0509 268.312 70.4189 265.405C70.5369 265.161 70.6729 264.925 70.8079 264.69C71.6329 263.35 71.8589 263.07 72.0219 262.716C72.5479 261.502 71.189 260.216 70.347 257.943C69.8838 256.426 69.6456 254.849 69.6399 253.262C69.3499 249.376 69.712 246.379 70.347 241.362C70.5487 239.406 70.8939 237.468 71.3799 235.562C71.6831 234.379 72.0735 233.22 72.5479 232.094C72.914 231.165 73.4347 230.304 74.0879 229.549C74.9217 228.747 75.9197 228.135 77.013 227.756C79.2325 226.855 81.5676 226.269 83.9499 226.016C86.7358 225.727 89.549 226.161 92.1189 227.274C94.0321 227.93 95.6896 229.173 96.8559 230.825C97.3747 231.705 97.7993 232.637 98.1229 233.605C98.3769 234.267 98.586 234.905 98.758 235.49C98.9902 236.265 99.1835 237.05 99.3369 237.844C100.195 242.132 100.294 243.771 99.9509 251.288Z" fill="#323370"/>
<path opacity="0.29" d="M109.415 240.987C106.492 243.649 106.307 248.106 106.331 252.059L106.47 275.713C106.537 276.984 106.425 278.257 106.138 279.497C105.128 283.081 101.332 285.451 100.638 289.108" stroke="white" stroke-width="0.095" stroke-miterlimit="10"/>
<path opacity="0.29" d="M109.122 278.792C111.751 278.143 114.515 278.317 117.041 279.292" stroke="white" stroke-width="0.095" stroke-miterlimit="10"/>
<path opacity="0.29" d="M115.099 282.927L108.283 279.92" stroke="white" stroke-width="0.095" stroke-miterlimit="10"/>
<path opacity="0.29" d="M56.959 245.889C62.29 252.359 63.359 261.309 63.235 269.689C63.188 272.925 62.999 276.203 63.696 279.365C64.651 283.693 67.187 287.478 69.672 291.147" stroke="white" stroke-width="0.095" stroke-miterlimit="10"/>
<path opacity="0.29" d="M61.7391 279.77C60.8316 279.767 59.9331 279.949 59.0981 280.304C58.2631 280.66 57.5091 281.181 56.8821 281.837" stroke="#FFDEF1" stroke-width="0.095" stroke-miterlimit="10"/>
<path opacity="0.29" d="M62.883 282.011C60.8523 282.873 59.1105 284.298 57.863 286.118" stroke="#FFDEF1" stroke-width="0.095" stroke-miterlimit="10"/>
<path d="M77.4089 228.394L77.5769 236.047C77.5621 236.543 77.6245 237.039 77.7619 237.516C78.2369 238.888 79.7799 239.416 81.1389 239.579C84.5174 239.973 87.9322 239.253 90.8639 237.529C91.8295 237.052 92.6073 236.266 93.0729 235.295C93.416 233.964 93.3062 232.557 92.7609 231.295L91.3959 226.895C91.2551 226.153 90.8631 225.482 90.2859 224.995C89.9445 224.837 89.5745 224.75 89.1984 224.739C88.8223 224.728 88.4479 224.794 88.0979 224.932C84.5064 225.862 81.0323 227.198 77.7429 228.914" fill="#FFB260"/>
<path d="M77.7029 198.192C75.3529 197.803 73.0759 199.68 72.0939 201.999C71.2598 204.409 70.9896 206.978 71.3039 209.509C71.6051 214.415 72.295 219.289 73.3669 224.086C74.2189 227.898 75.5849 232.025 78.8049 233.891C82.7249 236.162 87.8919 233.875 90.4729 229.985C93.0539 226.095 93.6159 221.096 93.7479 216.329C93.9124 213.678 93.6928 211.017 93.0959 208.429C91.1599 201.211 83.5489 196.329 76.6899 197.913" fill="#FFB260"/>
<path d="M92.7079 213.825C92.0429 211.705 91.2169 209.378 89.3509 208.372C88.5846 207.997 87.7475 207.789 86.8949 207.761C83.7749 207.536 80.6349 208.328 77.5269 207.966C74.4189 207.604 71.0829 205.533 70.7079 202.209C70.3679 199.184 72.7349 196.401 75.4499 195.485C78.1649 194.569 81.1069 195.085 83.8849 195.754C87.6849 196.67 91.7969 198.161 93.7089 201.793C94.9299 204.113 95.0149 206.911 94.8939 209.571C94.8106 211.43 94.6439 213.281 94.3939 215.126" fill="#1D2A5D"/>
<path d="M91.4871 217.033L93.0661 215.151C93.4479 214.639 93.9138 214.196 94.4441 213.841C94.699 213.672 94.9962 213.579 95.3018 213.571C95.6073 213.563 95.9089 213.641 96.1721 213.797C96.6217 214.171 96.9198 214.696 97.0111 215.274C97.5901 217.805 96.0491 220.704 93.8111 221.296C93.4664 221.417 93.0882 221.398 92.7571 221.244C92.3817 220.967 92.1237 220.56 92.0341 220.102C91.6682 218.829 91.6887 217.477 92.0931 216.216" fill="#FFB260"/>
<path d="M102.084 256.289H56.9929C53.4025 256.289 50.4919 259.2 50.4919 262.79V289.415C50.4919 293.005 53.4025 295.916 56.9929 295.916H102.084C105.674 295.916 108.585 293.005 108.585 289.415V262.79C108.585 259.2 105.674 256.289 102.084 256.289Z" fill="#F1F3FB"/>
<path d="M319.427 287.71L311.14 291.627C309.607 292.176 308.274 293.172 307.313 294.486C306.919 295.315 306.717 296.222 306.722 297.139C306.727 298.057 306.939 298.962 307.342 299.786C308.033 301.48 309.112 302.992 309.842 304.67C311.428 308.33 311.242 312.47 311.666 316.439C311.708 317.394 311.97 318.327 312.432 319.164C312.927 319.866 313.589 320.432 314.358 320.813C316.065 321.746 317.992 322.199 319.936 322.126C321.714 322.056 323.842 321.087 323.85 319.306C323.768 318.493 323.461 317.718 322.965 317.069C321.231 314.496 320.077 311.578 319.581 308.515C319.346 306.983 319.46 305.417 319.914 303.935C320.369 302.453 321.152 301.092 322.205 299.955C323.149 299.03 324.417 298.155 324.479 296.838C324.44 296.087 324.192 295.361 323.762 294.744L319.378 287.039" fill="#32224C"/>
<mask id="mask4_404_14" style="mask-type:luminance" maskUnits="userSpaceOnUse" x="306" y="287" width="19" height="36">
<path d="M319.427 287.71L311.14 291.627C309.607 292.176 308.274 293.172 307.313 294.486C306.919 295.315 306.717 296.222 306.722 297.139C306.727 298.057 306.939 298.962 307.342 299.786C308.033 301.48 309.112 302.992 309.842 304.67C311.428 308.33 311.242 312.47 311.666 316.439C311.708 317.394 311.97 318.327 312.432 319.164C312.927 319.866 313.589 320.432 314.358 320.813C316.065 321.746 317.992 322.199 319.936 322.126C321.714 322.056 323.842 321.087 323.85 319.306C323.768 318.493 323.461 317.718 322.965 317.069C321.231 314.496 320.077 311.578 319.581 308.515C319.346 306.983 319.46 305.417 319.914 303.935C320.369 302.453 321.152 301.092 322.205 299.955C323.149 299.03 324.417 298.155 324.479 296.838C324.44 296.087 324.192 295.361 323.762 294.744L319.378 287.039" fill="white"/>
</mask>
<g mask="url(#mask4_404_14)">
<path opacity="0.29" d="M314.895 319.197C315.65 317.472 316.864 315.987 318.406 314.905C319.179 314.373 320.06 314.017 320.986 313.862C321.911 313.707 322.86 313.758 323.764 314.01" stroke="#FFDEF1" stroke-width="0.081" stroke-miterlimit="10"/>
<path d="M315.99 305.712C316.684 305.353 317.449 305.151 318.23 305.121C319.011 305.092 319.789 305.235 320.508 305.54" stroke="#FFDEF1" stroke-width="0.067" stroke-miterlimit="10"/>
<path d="M316.451 308.507C317.229 308.146 318.081 307.977 318.938 308.013C319.795 308.049 320.63 308.289 321.375 308.714" stroke="#FFDEF1" stroke-width="0.067" stroke-miterlimit="10"/>
<path d="M317.121 311.049C317.829 310.698 318.613 310.527 319.403 310.55C320.194 310.572 320.966 310.789 321.653 311.18" stroke="#FFDEF1" stroke-width="0.067" stroke-miterlimit="10"/>
<path d="M316.956 311.666C317.22 311.666 317.434 311.452 317.434 311.188C317.434 310.924 317.22 310.71 316.956 310.71C316.692 310.71 316.478 310.924 316.478 311.188C316.478 311.452 316.692 311.666 316.956 311.666Z" stroke="#FFDEF1" stroke-width="0.092" stroke-miterlimit="10"/>
<path d="M316.956 311.666C317.22 311.666 317.434 311.452 317.434 311.188C317.434 310.924 317.22 310.71 316.956 310.71C316.692 310.71 316.478 310.924 316.478 311.188C316.478 311.452 316.692 311.666 316.956 311.666Z" stroke="#FFDEF1" stroke-width="0.092" stroke-miterlimit="10"/>
<path d="M316.309 308.967C316.573 308.967 316.787 308.753 316.787 308.489C316.787 308.225 316.573 308.011 316.309 308.011C316.045 308.011 315.831 308.225 315.831 308.489C315.831 308.753 316.045 308.967 316.309 308.967Z" stroke="#FFDEF1" stroke-width="0.092" stroke-miterlimit="10"/>
<path d="M315.806 306.279C316.07 306.279 316.284 306.065 316.284 305.801C316.284 305.537 316.07 305.323 315.806 305.323C315.542 305.323 315.328 305.537 315.328 305.801C315.328 306.065 315.542 306.279 315.806 306.279Z" stroke="#FFDEF1" stroke-width="0.092" stroke-miterlimit="10"/>
<path opacity="0.29" d="M324.095 319.532C323.495 320.08 322.791 320.5 322.025 320.769C321.258 321.038 320.445 321.149 319.635 321.096C318.201 321.135 316.778 320.836 315.481 320.223C314.178 319.598 313.162 318.501 312.64 317.153C312.43 316.481 312.296 315.788 312.24 315.086L311.453 308.345C311.355 307.121 311.124 305.911 310.766 304.737C310.204 303.107 309.166 301.686 308.466 300.11C307.498 297.918 307.209 295.487 307.636 293.129" stroke="#FFDEF1" stroke-width="0.081" stroke-miterlimit="10"/>
</g>
<path d="M322.793 316.704L325.009 323.879C325.308 325.148 325.869 326.341 326.658 327.379C327.413 328.146 328.3 328.77 329.278 329.219C331.708 330.613 334.33 331.643 337.059 332.274C339.814 332.899 342.701 332.517 345.199 331.197C347.122 330.081 348.669 327.583 347.51 325.685C346.44 323.933 343.91 323.925 342.169 322.841C341.422 322.324 340.755 321.702 340.188 320.992L332.625 312.406C332.429 312.146 332.174 311.935 331.882 311.791C331.456 311.673 331.003 311.701 330.595 311.869C327.552 312.794 324.776 314.438 322.502 316.662" fill="#32224C"/>
<mask id="mask5_404_14" style="mask-type:luminance" maskUnits="userSpaceOnUse" x="322" y="311" width="26" height="22">
<path d="M322.793 316.704L325.009 323.879C325.308 325.148 325.869 326.341 326.658 327.379C327.413 328.146 328.3 328.77 329.278 329.219C331.708 330.613 334.33 331.643 337.059 332.274C339.814 332.899 342.701 332.517 345.199 331.197C347.122 330.081 348.669 327.583 347.51 325.685C346.44 323.933 343.91 323.925 342.169 322.841C341.422 322.324 340.755 321.702 340.188 320.992L332.625 312.406C332.429 312.146 332.174 311.935 331.882 311.791C331.456 311.673 331.003 311.701 330.595 311.869C327.552 312.794 324.776 314.438 322.502 316.662" fill="white"/>
</mask>
<g mask="url(#mask5_404_14)">
<path opacity="0.29" d="M324.165 321.915C326.786 325.916 330.711 328.886 335.274 330.321C337.551 331.003 339.963 331.103 342.289 330.612C344.615 330.121 346.781 329.055 348.588 327.511" stroke="#FFDEF1" stroke-width="0.087" stroke-miterlimit="10"/>
<path opacity="0.29" d="M336.807 330.38C337.227 328.409 338.181 326.591 339.564 325.126C340.26 324.402 341.107 323.84 342.044 323.479C342.981 323.117 343.986 322.966 344.988 323.036" stroke="#FFDEF1" stroke-width="0.087" stroke-miterlimit="10"/>
<path d="M331.963 318.582C332.389 317.863 332.968 317.246 333.66 316.777C334.351 316.307 335.138 315.996 335.963 315.866" stroke="#FFDEF1" stroke-width="0.071" stroke-miterlimit="10"/>
<path d="M333.965 320.857C334.467 320.089 335.145 319.452 335.943 319C336.741 318.547 337.635 318.293 338.552 318.257" stroke="#FFDEF1" stroke-width="0.071" stroke-miterlimit="10"/>
<path d="M336.014 322.785C336.458 322.065 337.073 321.465 337.803 321.038C338.534 320.611 339.358 320.37 340.203 320.336" stroke="#FFDEF1" stroke-width="0.071" stroke-miterlimit="10"/>
<path d="M335.942 323.515C336.224 323.515 336.453 323.286 336.453 323.004C336.453 322.722 336.224 322.493 335.942 322.493C335.66 322.493 335.431 322.722 335.431 323.004C335.431 323.286 335.66 323.515 335.942 323.515Z" stroke="#FFDEF1" stroke-width="0.099" stroke-miterlimit="10"/>
<path d="M335.942 323.515C336.224 323.515 336.453 323.286 336.453 323.004C336.453 322.722 336.224 322.493 335.942 322.493C335.66 322.493 335.431 322.722 335.431 323.004C335.431 323.286 335.66 323.515 335.942 323.515Z" stroke="#FFDEF1" stroke-width="0.099" stroke-miterlimit="10"/>
<path d="M333.826 321.433C334.108 321.433 334.337 321.204 334.337 320.922C334.337 320.64 334.108 320.411 333.826 320.411C333.544 320.411 333.315 320.64 333.315 320.922C333.315 321.204 333.544 321.433 333.826 321.433Z" stroke="#FFDEF1" stroke-width="0.099" stroke-miterlimit="10"/>
<path d="M331.846 319.278C332.128 319.278 332.357 319.049 332.357 318.767C332.357 318.485 332.128 318.256 331.846 318.256C331.564 318.256 331.335 318.485 331.335 318.767C331.335 319.049 331.564 319.278 331.846 319.278Z" stroke="#FFDEF1" stroke-width="0.099" stroke-miterlimit="10"/>
</g>
<path d="M291.292 205.886C290.427 218.086 295.728 229.739 299.412 241.402C303.263 253.593 305.422 266.293 309.76 278.318C310.827 280.934 311.674 283.635 312.292 286.392C312.65 288.36 312.719 290.369 313.002 292.349C313.502 295.289 314.238 298.183 315.202 301.005L317.502 308.371C318.423 311.316 319.391 314.348 321.395 316.694C322.054 317.591 323.027 318.206 324.119 318.418C324.989 318.442 325.85 318.25 326.628 317.861C328.923 316.928 331.182 315.909 333.405 314.806C333.909 314.599 334.36 314.284 334.727 313.882C334.978 313.466 335.138 313.001 335.196 312.518C335.254 312.035 335.209 311.546 335.064 311.082C334.407 308.404 333.503 305.793 332.364 303.282C331.213 300.393 330.221 297.443 329.392 294.446C328.243 290.156 327.325 285.807 326.641 281.419C322.474 256.034 322.615 230.155 320.111 204.555C320.135 204.361 320.111 204.165 320.04 203.983C319.969 203.801 319.854 203.639 319.705 203.513C319.556 203.387 319.378 203.299 319.187 203.259C318.996 203.218 318.798 203.226 318.611 203.281L300.396 203.426C297.125 203.452 293.266 203.797 291.591 206.606" fill="#624FF3"/>
<path d="M312.2 213.219C318.8 207.064 326.175 200.564 335.183 199.995C335.695 199.933 336.215 199.981 336.707 200.137C337.224 200.374 337.671 200.74 338.007 201.198C339.474 203.223 340.565 205.495 341.227 207.906L350.679 235.75C351.949 239.105 352.868 242.583 353.421 246.128C354.221 252.76 352.441 259.435 350.111 265.695C345.447 278.213 338.565 289.786 329.793 299.861C329.695 300.008 329.567 300.134 329.419 300.23C329.27 300.325 329.103 300.389 328.928 300.417C328.764 300.396 328.606 300.343 328.462 300.261C328.319 300.178 328.194 300.068 328.093 299.937C324.812 296.575 322.567 292.34 321.626 287.737C321.418 286.89 321.362 286.013 321.459 285.146C321.778 283.856 322.348 282.642 323.135 281.572C328.101 273.45 329.18 263.499 333.581 255.058C334.129 254.223 334.445 253.256 334.496 252.258C334.394 251.487 334.121 250.749 333.696 250.098L326.86 237.679L312.488 211.579" fill="#624FF3"/>
<g opacity="0.29">
<path d="M326.202 278.256L335.273 255.908C336.332 253.301 337.408 250.457 336.663 247.743C336.233 246.448 335.601 245.228 334.791 244.13L324.009 227.793" fill="#624FF3"/>
<path d="M326.202 278.256L335.273 255.908C336.332 253.301 337.408 250.457 336.663 247.743C336.233 246.448 335.601 245.228 334.791 244.13L324.009 227.793" stroke="#FFDEF1" stroke-width="0.071" stroke-miterlimit="10"/>
</g>
<g opacity="0.29">
<path d="M323.231 215.817C322.535 219.749 322.07 223.719 321.839 227.706C321.747 230.122 321.826 232.541 321.905 234.957C322.518 253.614 323.146 272.393 327.155 290.625" fill="#624FF3"/>
<path d="M323.231 215.817C322.535 219.749 322.07 223.719 321.839 227.706C321.747 230.122 321.826 232.541 321.905 234.957C322.518 253.614 323.146 272.393 327.155 290.625" stroke="#FFDEF1" stroke-width="0.071" stroke-miterlimit="10"/>
</g>
<g opacity="0.29">
<path d="M334.59 252.259C336.81 252.72 338.876 253.74 340.59 255.224Z" fill="#624FF3"/>
<path d="M334.59 252.259C336.81 252.72 338.876 253.74 340.59 255.224" stroke="#FFDEF1" stroke-width="0.071" stroke-miterlimit="10"/>
</g>
<g opacity="0.29">
<path d="M333.937 253.717C336.272 255.498 338.333 257.613 340.053 259.994Z" fill="#624FF3"/>
<path d="M333.937 253.717C336.272 255.498 338.333 257.613 340.053 259.994" stroke="#FFDEF1" stroke-width="0.071" stroke-miterlimit="10"/>
</g>
<g opacity="0.29">
<path d="M328.915 300.041L327.059 307.271Z" fill="#624FF3"/>
<path d="M328.915 300.041L327.059 307.271" stroke="#FFDEF1" stroke-width="0.071" stroke-miterlimit="10"/>
</g>
<g opacity="0.29">
<path d="M329.991 304.602C329.848 306.982 329.257 309.314 328.25 311.475Z" fill="#624FF3"/>
<path d="M329.991 304.602C329.848 306.982 329.257 309.314 328.25 311.475" stroke="#FFDEF1" stroke-width="0.071" stroke-miterlimit="10"/>
</g>
<g opacity="0.29">
<path d="M302.857 215.317C303.104 216.823 303.262 218.342 303.328 219.866C303.37 220.413 303.346 220.964 303.256 221.506C303.069 222.239 302.773 222.939 302.377 223.584L297.763 232.01" fill="#624FF3"/>
<path d="M302.857 215.317C303.104 216.823 303.262 218.342 303.328 219.866C303.37 220.413 303.346 220.964 303.256 221.506C303.069 222.239 302.773 222.939 302.377 223.584L297.763 232.01" stroke="#FFDEF1" stroke-width="0.071" stroke-miterlimit="10"/>
</g>
<g opacity="0.29">
<path d="M317.984 215.764C319.384 219.631 320.607 223.558 321.653 227.546Z" fill="#624FF3"/>
<path d="M317.984 215.764C319.384 219.631 320.607 223.558 321.653 227.546" stroke="#FFDEF1" stroke-width="0.071" stroke-miterlimit="10"/>
</g>
<path d="M328.957 213.671C323.174 214.765 317.3 215.309 311.414 215.297C311.067 207.559 310.719 199.822 310.371 192.087C309.971 183.21 309.571 174.328 308.831 165.474L309.4 166.899C309.226 166.161 309.015 165.433 308.768 164.717C308.499 161.587 308.178 158.46 307.633 155.367C306.291 147.793 303.624 140.515 299.756 133.867C300.188 134.416 300.699 134.898 301.271 135.298C303.67 137.183 306.668 138.141 309.716 137.998C311.228 137.897 312.679 137.365 313.899 136.465C315.118 135.566 316.055 134.337 316.599 132.922C316.881 131.939 317.025 130.921 317.026 129.898C317.041 129.431 317.046 128.965 317.042 128.498C318.004 128.488 318.966 128.531 319.924 128.626C317.653 136.569 317.072 144.9 318.218 153.081C318.239 153.238 318.262 153.394 318.285 153.551C318.295 153.621 318.307 153.693 318.317 153.764C318.334 153.875 318.351 153.987 318.37 154.097C318.402 154.297 318.435 154.502 318.47 154.703C318.494 154.848 318.519 154.995 318.545 155.14C318.555 155.2 318.565 155.259 318.577 155.32C318.603 155.471 318.63 155.62 318.657 155.774V155.791C318.69 155.968 318.722 156.144 318.757 156.321L318.766 156.371C318.798 156.532 318.828 156.696 318.859 156.858C318.886 156.999 318.914 157.14 318.942 157.279L319.007 157.599C319.089 158.007 319.173 158.415 319.26 158.823C319.317 159.096 319.376 159.368 319.435 159.639C319.544 160.146 319.655 160.652 319.768 161.156L319.884 161.679C322.454 173.171 325.298 184.671 327.208 196.279L328.957 213.671Z" fill="#FFB260"/>
<path d="M285.839 208.856C286.082 209.11 286.339 209.356 286.595 209.584C286.645 209.728 286.703 209.87 286.766 210.009L285.839 208.856Z" fill="#32224C"/>
<path d="M308.832 165.474C309.575 174.328 309.973 183.21 310.372 192.087C310.719 199.82 311.067 207.557 311.415 215.297H310.871C307.293 215.269 303.721 215.031 300.171 214.585C295.312 213.973 290.204 212.817 286.591 209.585C286.017 207.5 285.926 205.311 286.325 203.185C286.825 198.715 287.299 194.212 287.682 189.695C289.212 171.734 289.289 153.584 283.456 136.685L283.446 136.655L283.429 136.603L283.4 136.521C287.321 135.221 290.971 133.078 294.789 131.539C294.851 131.513 294.914 131.489 294.977 131.464C294.994 131.721 295.014 131.978 295.032 132.234C295.216 134.775 295.401 137.315 295.586 139.853C295.569 140.629 295.777 141.393 296.186 142.053C296.923 143.017 298.365 143.165 299.386 143.785C299.664 143.947 299.908 144.161 300.103 144.417C300.112 144.426 300.119 144.437 300.126 144.446C300.478 145.067 300.671 145.766 300.689 146.48C301.511 153.109 305.577 158.757 308.76 164.714C309.007 165.43 309.218 166.159 309.392 166.896L308.832 165.474Z" fill="#32224C"/>
<path d="M317.043 128.499C317.048 128.966 317.042 129.432 317.027 129.899C317.026 130.922 316.882 131.94 316.6 132.923C316.056 134.338 315.12 135.567 313.9 136.466C312.68 137.366 311.229 137.898 309.717 137.999C306.669 138.142 303.671 137.184 301.272 135.299C300.7 134.899 300.189 134.417 299.757 133.868C299.584 133.641 299.438 133.394 299.323 133.133C298.796 132.255 298.247 131.388 297.678 130.533C298.241 130.369 298.807 130.226 299.378 130.105C299.786 130.019 300.197 129.944 300.613 129.885C302.959 129.546 305.346 129.658 307.713 129.485C308.063 129.459 308.413 129.428 308.763 129.39C311.158 129.141 313.53 128.678 315.932 128.541C316.103 128.531 316.272 128.522 316.443 128.515C316.643 128.511 316.843 128.502 317.043 128.499Z" fill="#FFDEF1"/>
<path d="M347.439 207.936C347.231 208.182 346.956 208.363 346.648 208.456C341.022 210.748 335.182 212.478 329.215 213.621L328.958 213.671L327.208 196.277C325.298 184.671 322.453 173.17 319.884 161.677L319.768 161.154C320.861 155.629 322.094 150.122 320.988 144.685C320.778 144.003 320.739 143.28 320.876 142.579L320.887 142.543C321.052 142.094 321.327 141.694 321.687 141.379C322.463 140.639 323.511 140.055 323.855 139.055C324.032 138.299 323.986 137.508 323.723 136.778C323.09 134.311 322.456 131.845 321.823 129.378L321.687 128.849C322.476 128.973 323.259 129.128 324.04 129.307C324.166 129.334 324.293 129.364 324.419 129.395C328.278 130.422 332.055 131.733 335.719 133.318C336.025 133.407 336.294 133.59 336.489 133.841C336.644 134.198 336.661 134.599 336.536 134.967L336.529 134.997C335.12 141.911 336.4 149.02 337.885 155.959C338.056 156.759 338.228 157.555 338.401 158.346C338.891 160.604 339.373 162.864 339.846 165.125C340.815 169.76 341.749 174.403 342.646 179.054C344.423 188.239 346.059 197.449 347.556 206.684C347.679 207.101 347.637 207.549 347.439 207.936Z" fill="#32224C"/>
<path d="M283.853 136.37C286.626 137.311 289.122 138.926 291.116 141.07C294.089 144.312 295.026 147.97 295.753 150.553C296.26 152.193 296.553 153.891 296.626 155.605C296.714 160.951 293.394 165.943 293.626 171.285C295.18 171.737 296.821 169.594 298.218 170.409C298.579 170.664 298.868 171.009 299.057 171.409C300.098 173.2 301.134 174.995 302.163 176.793C302.572 177.365 302.791 178.051 302.789 178.754C302.608 179.513 302.164 180.184 301.535 180.646C297.382 184.471 292.771 187.976 287.422 189.785C285.849 190.398 284.155 190.632 282.475 190.469C278.61 189.909 275.984 186.161 274.817 182.434C273.062 176.822 273.541 170.773 274.33 164.947C275.203 156.939 276.826 149.031 279.178 141.326C279.468 140.431 279.804 139.552 280.185 138.692C280.773 138.043 281.462 137.492 282.225 137.062C282.741 136.772 283.287 136.54 283.853 136.37Z" fill="#32224C"/>
<path d="M335.716 133.322C333.955 136.201 333.348 139.64 334.016 142.948C335.282 149.342 336.962 155.648 339.046 161.824C339.23 162.311 339.754 163.676 339.126 164.483C338.94 164.701 338.698 164.864 338.426 164.954C336.086 165.964 334.91 166.484 334.611 167.168C334.423 167.599 334.651 167.743 334.911 169.107C335.494 172.157 335.398 172.649 335.223 172.955C334.696 173.879 333.666 173.61 333.502 174.172C333.133 175.436 337.724 178.898 342.991 179.154C344.534 179.229 346.891 179.417 348.498 177.863C350.131 176.282 350.398 173.786 350.439 171.513C350.732 156.54 350.05 146.933 342.185 138.571C340.272 136.541 338.097 134.775 335.716 133.322Z" fill="#32224C"/>
<path d="M299.757 133.863C299.584 133.636 299.438 133.389 299.323 133.128C299.468 133.372 299.613 133.617 299.757 133.863Z" fill="#32224C"/>
<path d="M327.208 196.277C325.298 184.671 322.453 173.17 319.884 161.677L319.768 161.154C320.861 155.629 322.094 150.122 320.988 144.685C320.778 144.003 320.739 143.279 320.876 142.579L320.887 142.543C321.052 142.094 321.327 141.694 321.687 141.379L321.801 142.502L322.094 145.418L327.208 196.277Z" fill="#32224C"/>
<path d="M308.769 164.717C305.586 158.76 301.519 153.117 300.698 146.483C300.681 145.769 300.487 145.07 300.135 144.449C300.128 144.44 300.121 144.429 300.112 144.42C299.917 144.164 299.673 143.95 299.395 143.788C298.369 143.167 296.927 143.02 296.195 142.056C295.786 141.396 295.578 140.632 295.595 139.856C295.41 137.317 295.225 134.777 295.04 132.237C295.023 131.981 295.003 131.724 294.985 131.467L295.235 131.367L295.281 131.35C295.943 131.093 296.613 130.856 297.289 130.65C297.42 130.608 297.55 130.57 297.681 130.531C298.25 131.384 298.798 132.251 299.326 133.131C299.441 133.392 299.587 133.639 299.76 133.866C303.628 140.514 306.295 147.792 307.637 155.366C308.179 158.46 308.5 161.587 308.769 164.717Z" fill="#323370"/>
<path d="M319.768 161.156C319.545 162.284 319.328 163.414 319.137 164.542L319.437 159.642C319.546 160.147 319.657 160.652 319.768 161.156Z" fill="#FFB260"/>
<path d="M323.848 139.058C323.505 140.058 322.456 140.642 321.68 141.382C321.32 141.697 321.045 142.097 320.88 142.546L320.869 142.582C320.732 143.282 320.771 144.006 320.981 144.688C322.087 150.125 320.855 155.632 319.761 161.157C319.649 160.653 319.538 160.147 319.428 159.64C319.369 159.369 319.311 159.097 319.253 158.824C319.167 158.416 319.083 158.008 319 157.6L318.935 157.28C318.906 157.141 318.879 157 318.852 156.859C318.82 156.697 318.79 156.533 318.759 156.372L318.75 156.322C318.715 156.145 318.684 155.969 318.65 155.792V155.775C318.623 155.623 318.595 155.475 318.57 155.321C318.559 155.261 318.548 155.202 318.538 155.141C318.512 154.996 318.488 154.849 318.463 154.704C318.43 154.504 318.397 154.304 318.363 154.098C318.344 153.987 318.327 153.875 318.31 153.765C318.3 153.695 318.288 153.623 318.278 153.552C318.255 153.395 318.232 153.239 318.21 153.082C317.065 144.901 317.646 136.57 319.916 128.627C320.077 128.643 320.239 128.66 320.4 128.679C320.699 128.714 320.996 128.752 321.293 128.795C321.421 128.814 321.549 128.832 321.677 128.854L321.813 129.383C322.446 131.85 323.08 134.316 323.713 136.783C323.977 137.512 324.024 138.303 323.848 139.058Z" fill="#323370"/>
<path opacity="0.29" d="M276.153 184.991C278.042 186.363 280.386 186.957 282.7 186.65C284.991 186.334 287.216 185.649 289.289 184.622C293.845 182.566 298.162 180.017 302.164 177.022" stroke="#FFDEF1" stroke-width="0.071" stroke-miterlimit="10"/>
<path opacity="0.29" d="M335.756 172.738C337.961 173.715 340.233 174.532 342.556 175.181C344.888 175.83 347.332 175.966 349.721 175.581" stroke="#FFDEF1" stroke-width="0.071" stroke-miterlimit="10"/>
<path opacity="0.29" d="M288.635 210.624C289.439 208.445 290.097 206.214 290.604 203.947C291.565 199.154 291.164 194.204 290.759 189.331" stroke="#FFDEF1" stroke-width="0.071" stroke-miterlimit="10"/>
<path opacity="0.29" d="M282.967 136.691C284.696 136.825 286.325 137.554 287.578 138.754C288.817 139.948 289.875 141.318 290.717 142.819C293.795 147.901 296.094 153.752 295.517 159.666" stroke="#FFDEF1" stroke-width="0.071" stroke-miterlimit="10"/>
<path opacity="0.29" d="M336.529 134.058C334.753 137.57 334.031 141.52 334.451 145.433C334.877 149.321 335.677 153.16 336.841 156.894" stroke="#FFDEF1" stroke-width="0.071" stroke-miterlimit="10"/>
<path opacity="0.29" d="M282.684 174.913C284.153 173.649 285.9 172.752 287.784 172.297C289.667 171.841 291.631 171.84 293.515 172.293" stroke="#FFDEF1" stroke-width="0.071" stroke-miterlimit="10"/>
<path opacity="0.29" d="M286.91 171.855L281.648 171.71" stroke="#FFDEF1" stroke-width="0.071" stroke-miterlimit="10"/>
<path opacity="0.29" d="M339.316 164.362C339.96 164.123 340.652 164.041 341.335 164.122C342.017 164.204 342.67 164.446 343.24 164.83" stroke="#FFDEF1" stroke-width="0.071" stroke-miterlimit="10"/>
<path opacity="0.29" d="M339.197 163.839C339.727 163.158 340.403 162.604 341.175 162.217C341.947 161.831 342.796 161.623 343.659 161.607" stroke="#FFDEF1" stroke-width="0.071" stroke-miterlimit="10"/>
<path opacity="0.29" d="M293.874 171.376C294.806 167.86 295.31 164.244 295.374 160.607" stroke="#FFDEF1" stroke-width="0.068" stroke-miterlimit="10"/>
<path opacity="0.29" d="M323.501 131.03C327.652 131.763 331.621 133.294 335.189 135.538" stroke="#FFDEF1" stroke-width="0.071" stroke-miterlimit="10"/>
<path opacity="0.29" d="M286.623 137.39C288.791 135.756 291.26 134.565 293.888 133.884" stroke="#FFDEF1" stroke-width="0.071" stroke-miterlimit="10"/>
<path d="M331.428 153.914C331.119 153.613 330.729 153.408 330.306 153.325C328.728 152.906 327.078 152.833 325.469 153.111C323.861 153.388 322.331 154.009 320.984 154.932C320.958 154.977 320.926 155.018 320.898 155.063C320.753 161.766 320.608 168.468 320.463 175.169C320.396 175.64 320.502 176.118 320.763 176.516C321.078 176.807 321.484 176.981 321.912 177.007C324.208 177.383 326.553 177.349 328.837 176.907C329.375 176.861 329.876 176.616 330.243 176.22C330.451 175.87 330.561 175.471 330.562 175.064C331.138 168.61 331.552 162.143 331.803 155.664C331.902 155.054 331.768 154.43 331.428 153.914Z" fill="#4E6EF1"/>
<path d="M337.816 165.657C337.726 165.48 337.674 165.388 337.385 164.831C336.243 162.619 336.335 162.662 336.078 162.241C335.2 160.914 333.851 159.972 332.303 159.605C332.202 159.575 332.096 159.57 331.993 159.591C331.89 159.612 331.794 159.658 331.714 159.726C331.628 159.847 331.592 159.997 331.614 160.144C331.825 161.18 332.312 162.139 333.023 162.922C333.212 163.156 333.317 163.447 333.323 163.748C333.276 164.34 332.583 164.624 332.001 164.748C330.059 165.164 328.062 165.263 326.089 165.04C326.01 165.289 326.001 165.555 326.06 165.809C326.12 166.063 326.248 166.296 326.429 166.484C326.797 166.854 327.241 167.142 327.729 167.327C328.904 167.849 330.134 168.237 331.396 168.485C329.482 167.89 327.61 167.172 325.79 166.333C325.646 166.83 325.637 167.356 325.763 167.858C325.89 168.359 326.147 168.818 326.51 169.187C327.243 169.915 328.102 170.505 329.045 170.929L326.02 169.05C325.932 168.984 325.829 168.941 325.72 168.924C325.404 168.904 325.234 169.297 325.232 169.613C325.298 170.204 325.517 170.767 325.868 171.246C326.219 171.726 326.689 172.105 327.232 172.347C329.925 173.847 333.203 173.628 336.273 173.373C336.808 173.393 337.339 173.274 337.814 173.028C338.476 172.575 338.943 171.89 339.122 171.108C339.638 169.231 338.645 167.283 337.816 165.657Z" fill="#FFB260"/>
<path d="M324.971 165.784C324.849 165.716 324.71 165.684 324.571 165.694C321.671 165.635 318.605 166.666 315.958 165.476L319.638 164.169C320.238 163.955 320.98 163.429 320.691 162.86C320.58 162.713 320.434 162.596 320.267 162.519C320.1 162.442 319.917 162.406 319.733 162.416C317.892 162.248 316.036 162.349 314.224 162.716C313.238 162.894 312.283 163.212 311.386 163.658C310.484 164.183 309.627 164.78 308.821 165.443C305.262 167.945 301.439 170.049 297.421 171.717C297.336 171.902 297.229 172.075 297.102 172.234C297.119 173.102 297.386 173.947 297.872 174.667C298.632 175.955 299.538 177.152 300.572 178.232C300.687 178.372 300.835 178.483 301.002 178.554C301.218 178.603 301.444 178.586 301.65 178.505C302.869 178.154 304.039 177.65 305.132 177.005C306.293 176.148 307.583 175.482 308.954 175.03C309.975 174.879 311.011 174.856 312.038 174.964C314.115 175.038 316.19 174.78 318.186 174.201C319.745 173.851 321.153 173.018 322.211 171.821C322.462 171.495 322.622 170.932 322.254 170.745C322.084 170.684 321.898 170.684 321.728 170.745L319.062 171.396C320.705 171.046 322.253 170.343 323.598 169.336C323.824 169.194 324.006 168.99 324.121 168.749C324.174 168.627 324.18 168.489 324.137 168.363C324.093 168.237 324.005 168.132 323.888 168.068C323.758 168.029 323.62 168.024 323.488 168.055L318.12 168.799C320.35 168.538 322.518 167.891 324.526 166.886C324.947 166.654 325.364 166.055 324.971 165.784Z" fill="#FFB260"/>
<path d="M301.755 111.775C301.371 111.203 300.903 110.691 300.367 110.258C300.097 110.043 299.782 109.891 299.446 109.814C299.109 109.736 298.76 109.735 298.423 109.81C298.021 109.972 297.662 110.224 297.373 110.547C297.083 110.87 296.872 111.255 296.755 111.672C296.268 112.865 296.201 114.189 296.565 115.425C296.755 116.037 297.095 116.592 297.554 117.039C298.013 117.487 298.577 117.812 299.194 117.986C299.479 118.018 299.752 118.121 299.987 118.286C300.129 118.436 300.233 118.62 300.287 118.82C300.649 119.867 300.824 120.978 301.278 121.987C301.893 123.196 302.72 124.285 303.72 125.202C304.949 126.446 306.23 127.636 307.562 128.772C308.901 129.913 310.522 131.062 312.255 130.766C312.775 130.657 313.277 130.475 313.747 130.226C316.755 128.768 319.629 126.526 320.674 123.354C321.075 121.746 321.341 120.107 321.467 118.454C321.915 115.466 323.083 112.638 323.774 109.697C324.465 106.756 324.636 103.509 323.188 100.857C322.809 100.13 322.279 99.492 321.635 98.9849C320.955 98.5062 320.197 98.1511 319.394 97.9359C317.27 97.2817 315.026 97.1149 312.828 97.4478C310.631 97.7807 308.537 98.6049 306.702 99.8589C304.889 101.149 303.445 102.889 302.51 104.907C301.575 106.926 301.183 109.153 301.372 111.37L301.755 111.775Z" fill="#FFB260"/>
<path d="M317.124 128.134C317.133 128.385 317.138 128.634 317.14 128.888C317.144 129.355 317.139 129.821 317.124 130.288C317.123 131.311 316.979 132.329 316.697 133.312C316.154 134.726 315.217 135.956 313.997 136.855C312.777 137.755 311.326 138.286 309.814 138.387C306.767 138.53 303.77 137.572 301.371 135.687C300.798 135.286 300.287 134.804 299.854 134.256C299.681 134.029 299.535 133.782 299.42 133.521C299.306 133.263 299.23 132.99 299.197 132.711C299.162 132.139 299.22 131.565 299.369 131.011C299.405 130.839 299.442 130.668 299.478 130.495C300.078 127.666 300.678 124.838 301.278 122.01C301.311 121.852 301.345 121.694 301.378 121.536C301.386 121.441 301.412 121.349 301.456 121.265C301.5 121.181 301.561 121.106 301.634 121.046C301.78 120.979 301.946 120.969 302.099 121.017C303.071 121.274 304.005 121.656 304.88 122.152C308.75 123.859 312.811 125.098 316.975 125.841C317.052 126.602 317.102 127.366 317.124 128.134Z" fill="#FFB260"/>
<path d="M302.057 110.016C303.497 109.109 304.796 107.994 305.91 106.708C306.243 106.264 306.649 105.879 307.11 105.569C308.133 104.983 309.41 105.316 310.557 105.588C313.999 106.397 317.571 106.488 321.05 105.855C323.12 105.477 325.391 104.631 326.202 102.689C326.437 101.947 326.524 101.166 326.458 100.391C326.391 99.6154 326.172 98.8608 325.814 98.1699C324.832 95.649 322.963 93.5737 320.558 92.3339C319.399 91.8277 318.173 91.4886 316.918 91.3269C314.721 90.9385 312.473 90.9321 310.273 91.3079C308.719 91.6345 307.209 92.1423 305.773 92.8209C304.477 93.3521 303.279 94.0957 302.228 95.0209C301.573 95.6572 301.012 96.3843 300.563 97.1799C298.224 101.209 298.263 106.159 298.701 110.797C298.776 111.597 298.958 112.529 299.688 112.855C300.08 112.963 300.496 112.933 300.868 112.769C301.239 112.605 301.543 112.317 301.726 111.955C302.153 111.264 302.306 110.437 302.686 109.72" fill="#323370"/>
<path d="M479.843 205.966C480.013 205.299 480.01 204.6 479.833 203.935C479.623 203.16 479.188 202.464 478.583 201.935C477.639 201.111 476.598 200.406 475.483 199.835C456.995 190.62 437.317 197.986 436.402 199.935C436.168 200.449 435.986 200.985 435.86 201.535C435.745 202.11 435.69 202.696 435.695 203.282C435.84 211.118 439.219 228.028 439.219 228.028C440.085 233.33 441.321 238.565 442.919 243.694C443.756 246.471 444.799 249.31 446.792 251.209C448.062 252.306 449.5 253.194 451.05 253.839L461.938 259.05C463.314 259.843 464.853 260.31 466.438 260.413C467.558 260.344 468.653 260.055 469.66 259.561C473.237 257.994 476.697 255.219 477.889 251.141C478.004 250.826 478.039 250.488 477.989 250.156C477.874 249.806 477.674 249.49 477.407 249.237C476.707 248.431 474.827 242.717 474.55 239.357C474.184 234.943 475.456 223.085 479.677 207.714" fill="#4E6EF1"/>
<path d="M466.162 204.233C465.889 203.984 465.55 203.821 465.185 203.762C463.872 203.461 462.511 203.435 461.187 203.687C459.864 203.94 458.607 204.464 457.497 205.227C457.444 205.331 457.383 205.432 457.315 205.527C457.272 205.603 457.226 205.676 457.183 205.751C457.25 211.418 457.318 217.082 457.388 222.744C457.345 223.149 457.452 223.555 457.688 223.887C457.966 224.129 458.32 224.266 458.688 224.275C460.665 224.53 462.67 224.433 464.613 223.989C465.072 223.934 465.494 223.71 465.797 223.361C465.964 223.055 466.047 222.71 466.037 222.361C466.344 216.82 466.511 211.274 466.537 205.723C466.604 205.197 466.47 204.665 466.162 204.233Z" fill="white"/>
<path d="M483.753 229.686C483.322 222.312 482.438 214.972 481.107 207.707C480.912 206.315 480.524 204.957 479.954 203.673C479.354 202.358 478.276 201.321 476.939 200.773C476.255 200.507 475.508 200.446 474.79 200.595C474.071 200.744 473.411 201.099 472.89 201.615C472.245 202.482 471.898 203.535 471.903 204.615C471.484 210.042 472.99 215.394 474.484 220.624C475.007 222.795 475.8 224.893 476.844 226.867C477.527 228.181 478.607 229.246 479.931 229.911C480.612 230.237 481.374 230.357 482.123 230.257C482.871 230.157 483.575 229.841 484.147 229.348" fill="#FFB260"/>
<path d="M473.334 221.119L474.94 228.519C475.275 230.461 475.86 232.352 476.68 234.144C477.541 235.978 479.054 237.425 480.925 238.203C481.406 238.422 481.933 238.521 482.46 238.491C482.988 238.461 483.5 238.304 483.953 238.032C484.305 237.743 484.591 237.383 484.792 236.975C485.405 235.704 485.746 234.318 485.791 232.907C485.837 231.496 485.587 230.091 485.058 228.783C483.977 226.166 482.537 223.712 480.779 221.492L478.308 218.053C478.22 217.898 478.077 217.783 477.908 217.73C477.723 217.722 477.541 217.786 477.402 217.908C475.83 218.986 474.437 220.304 473.275 221.814" fill="#FFB260"/>
<path d="M478.97 220.228C478.379 218.81 477.557 217.5 476.538 216.351L472.138 210.802C471.873 210.4 471.502 210.078 471.066 209.874C470.691 209.769 470.297 209.742 469.911 209.796L462.569 210.328C463.121 211.09 463.838 211.718 464.665 212.166C465.492 212.615 466.409 212.872 467.349 212.919C466.754 214.126 464.427 213.972 464.149 215.276C463.987 216.029 464.767 216.715 465.565 216.797C466.373 216.808 467.169 216.608 467.875 216.215C467.378 216.221 466.892 216.37 466.477 216.643C466.061 216.917 465.733 217.304 465.531 217.759C465.441 217.941 465.419 218.148 465.468 218.345C465.636 218.845 466.405 218.831 466.889 218.575C467.373 218.319 467.827 217.911 468.377 217.931C467.853 218.046 467.357 218.262 466.916 218.567C466.703 218.716 466.541 218.927 466.452 219.171C466.363 219.415 466.35 219.681 466.416 219.932C466.607 220.446 467.205 220.689 467.742 220.876C468.202 221.037 468.962 220.995 468.911 220.53C468.9 220.418 468.829 220.31 468.855 220.198C468.927 219.886 469.422 220.089 469.655 220.319C470.325 220.979 471.194 221.401 472.127 221.519C472.569 221.575 473.092 221.602 473.327 221.96C473.451 222.147 473.462 222.385 473.573 222.581C473.873 223.104 474.662 223.068 475.273 222.933C475.999 222.771 476.716 222.571 477.42 222.333C478.04 222.179 478.6 221.845 479.03 221.372C479.128 221.255 479.202 221.12 479.246 220.974C479.29 220.828 479.303 220.675 479.286 220.523C479.268 220.372 479.22 220.226 479.143 220.094C479.067 219.962 478.965 219.847 478.842 219.756" fill="#FFB260"/>
<path d="M447.207 219.786L438.189 225.724C435.029 227.804 431.666 230.138 430.441 233.716C430.115 234.59 430.01 235.531 430.134 236.455C430.431 237.667 430.992 238.797 431.779 239.765C431.928 240.023 432.142 240.238 432.4 240.387C432.703 240.495 433.031 240.511 433.344 240.434C437.202 239.848 441.056 238.299 443.644 235.373C444.451 234.409 445.184 233.384 445.836 232.308L449.582 226.463C449.834 226.131 450.003 225.744 450.075 225.334C450.082 224.937 449.993 224.544 449.816 224.188C449.17 222.639 448.326 221.181 447.304 219.85" fill="#FFB260"/>
<path d="M440.331 230.065L443.063 219.765C443.402 218.487 443.743 217.205 443.963 215.901C444.379 213.189 444.438 210.434 444.14 207.706C444.048 206.097 443.72 204.51 443.165 202.997C442.629 201.515 441.555 200.289 440.157 199.562C439.455 199.23 438.67 199.114 437.902 199.229C437.134 199.344 436.418 199.684 435.843 200.206C434.864 201.389 434.269 202.842 434.138 204.372C432.378 213.956 431.252 223.646 430.767 233.378C430.73 234.142 430.754 235.04 431.34 235.461C431.949 235.896 432.785 235.554 433.465 235.207C436.109 233.85 438.954 232.288 440.239 229.483" fill="#FFB260"/>
<path d="M446.064 220.025L448.789 214.911C449.368 213.667 450.262 212.597 451.382 211.805L456.111 207.886C456.208 207.784 456.339 207.721 456.479 207.708C456.749 207.719 456.854 208.067 456.854 208.337C456.854 209.954 455.801 211.355 454.798 212.623C457.189 212.897 459.61 212.728 461.94 212.123C462.091 213.11 461.176 213.923 460.297 214.397C458.736 215.242 456.998 215.71 455.224 215.764C456.913 215.429 458.581 214.992 460.218 214.455C460.589 215.603 459.504 216.689 458.457 217.291C457.482 217.853 456.441 218.289 455.357 218.591L459.485 216.899C459.535 217.372 459.47 217.851 459.295 218.294C459.12 218.736 458.841 219.13 458.48 219.441C457.754 220.056 456.931 220.546 456.045 220.893C456.66 220.571 457.297 220.293 457.951 220.061C458.12 220.824 457.365 221.444 456.703 221.861L451.066 225.386C450.626 225.721 450.102 225.929 449.551 225.986C448.445 225.992 447.727 224.855 447.251 223.856C446.58 222.437 445.945 220.821 446.468 219.341" fill="#FFB260"/>
<mask id="mask6_404_14" style="mask-type:luminance" maskUnits="userSpaceOnUse" x="468" y="266" width="25" height="13">
<path d="M491.304 269.392C490.198 268.342 488.773 267.69 487.255 267.539C482.761 266.664 478.172 266.371 473.603 266.667C472.622 266.663 471.654 266.894 470.78 267.339C469.94 267.876 469.281 268.653 468.889 269.569C468.496 270.485 468.389 271.498 468.58 272.476C468.716 272.923 468.919 273.348 469.18 273.736C469.258 273.796 469.331 273.862 469.406 273.928C470.44 274.3 473.151 275.672 476.716 276.957C481.185 278.567 484.474 279.149 487.326 278.619C488.48 278.451 489.563 277.957 490.447 277.195C491.212 276.415 491.751 275.443 492.006 274.381C492.298 273.554 492.387 272.669 492.265 271.801C492.143 270.932 491.813 270.106 491.304 269.392Z" fill="white"/>
</mask>
<g mask="url(#mask6_404_14)">
<path d="M487.253 278.626C484.416 279.143 481.144 278.556 476.707 276.954C473.14 275.674 470.438 274.3 469.398 273.929C469.322 273.863 469.253 273.798 469.177 273.729C468.916 273.343 468.714 272.92 468.577 272.475C468.388 271.497 468.496 270.484 468.888 269.568C469.281 268.652 469.938 267.875 470.777 267.337C471.653 266.892 472.622 266.66 473.604 266.66C478.173 266.367 482.76 266.661 487.254 267.535H487.271C485.99 268.794 485.251 270.504 485.214 272.3C485.165 274.171 485.628 276.021 486.554 277.648C486.728 278.012 486.965 278.343 487.253 278.626Z" fill="#FFB260"/>
<path d="M492 274.383C491.749 275.445 491.209 276.417 490.44 277.191C490.228 277.392 489.996 277.571 489.748 277.725C489.004 278.177 488.18 278.48 487.32 278.616C487.299 278.623 487.276 278.626 487.254 278.626C486.966 278.344 486.729 278.015 486.554 277.652C485.628 276.025 485.165 274.175 485.214 272.304C485.251 270.508 485.99 268.798 487.271 267.539C488.699 267.695 490.046 268.279 491.136 269.215C491.195 269.269 491.25 269.327 491.301 269.389C491.81 270.104 492.139 270.931 492.261 271.801C492.382 272.67 492.293 273.556 492 274.383Z" fill="#FFDEF1"/>
<path d="M481.599 274.716C481.524 273.004 481.724 271.291 482.192 269.643" stroke="#FFDEF1" stroke-width="0.062" stroke-miterlimit="10"/>
<path d="M482.981 269.554C483.042 269.23 482.786 268.909 482.408 268.837C482.031 268.766 481.675 268.971 481.613 269.295C481.552 269.62 481.808 269.941 482.186 270.012C482.563 270.084 482.919 269.879 482.981 269.554Z" stroke="#FFDEF1" stroke-width="0.151" stroke-miterlimit="10"/>
<path d="M482.282 274.845C482.343 274.521 482.087 274.2 481.709 274.128C481.332 274.057 480.976 274.262 480.914 274.586C480.853 274.911 481.109 275.232 481.487 275.303C481.865 275.375 482.22 275.17 482.282 274.845Z" stroke="#FFDEF1" stroke-width="0.151" stroke-miterlimit="10"/>
<path d="M478.423 274.112C478.348 272.4 478.549 270.687 479.016 269.038" stroke="#FFDEF1" stroke-width="0.062" stroke-miterlimit="10"/>
<path d="M479.807 268.953C479.868 268.629 479.612 268.308 479.234 268.236C478.857 268.165 478.501 268.37 478.439 268.694C478.378 269.019 478.634 269.34 479.012 269.411C479.389 269.483 479.745 269.278 479.807 268.953Z" stroke="#FFDEF1" stroke-width="0.151" stroke-miterlimit="10"/>
<path d="M479.108 274.244C479.169 273.92 478.913 273.599 478.535 273.527C478.158 273.456 477.802 273.661 477.74 273.985C477.679 274.31 477.935 274.631 478.313 274.702C478.69 274.774 479.046 274.569 479.108 274.244Z" stroke="#FFDEF1" stroke-width="0.151" stroke-miterlimit="10"/>
<path d="M474.946 273.474C474.86 271.824 475.049 270.172 475.505 268.584" stroke="#FFDEF1" stroke-width="0.061" stroke-miterlimit="10"/>
<path d="M476.294 268.51C476.353 268.197 476.095 267.886 475.717 267.815C475.339 267.743 474.985 267.939 474.926 268.251C474.867 268.564 475.125 268.875 475.503 268.946C475.88 269.018 476.235 268.823 476.294 268.51Z" stroke="#FFDEF1" stroke-width="0.148" stroke-miterlimit="10"/>
<path d="M475.631 273.609C475.69 273.296 475.432 272.985 475.054 272.914C474.676 272.842 474.322 273.038 474.263 273.35C474.204 273.663 474.462 273.974 474.84 274.045C475.218 274.117 475.572 273.922 475.631 273.609Z" stroke="#FFDEF1" stroke-width="0.148" stroke-miterlimit="10"/>
<path opacity="0.23" d="M485.652 270.383C483.168 270.414 480.686 270.231 478.234 269.836C477.056 269.612 475.898 269.289 474.725 269.036C472.595 268.619 470.44 268.338 468.274 268.194" stroke="#FFDEF1" stroke-width="0.086" stroke-miterlimit="10"/>
<path opacity="0.23" d="M486.102 274.742L481.61 273.662C480.386 273.368 479.164 273.073 477.926 272.845C474.058 272.133 470.073 272.066 466.265 271.081" stroke="#FFDEF1" stroke-width="0.086" stroke-miterlimit="10"/>
</g>
<path d="M473.827 266.164C462.348 259.369 451.578 251.443 441.678 242.504C437.446 238.68 433.11 234.526 427.578 233.154C426.546 232.825 425.457 232.712 424.379 232.821C423.301 232.929 422.257 233.258 421.311 233.786C420.432 234.442 419.731 235.307 419.27 236.302C418.809 237.297 418.602 238.391 418.669 239.486C418.829 241.679 419.53 243.798 420.709 245.654C425.258 253.53 433.476 258.724 442.099 261.617C446.24 263.006 450.558 263.947 454.483 265.866C458.857 268.005 462.566 271.271 466.688 273.866C466.899 274.06 467.153 274.201 467.429 274.276C467.706 274.352 467.996 274.359 468.276 274.298C468.556 274.237 468.817 274.11 469.038 273.926C469.258 273.743 469.43 273.509 469.541 273.245C471.439 270.833 472.888 268.099 473.82 265.175" fill="#1D2A5D"/>
<path d="M458.134 258.603C466.356 249.364 475.005 239.817 486.37 235.313C491.209 233.396 496.386 232.476 501.589 232.607C502.805 232.587 504.015 232.782 505.163 233.183C505.742 233.392 506.27 233.721 506.713 234.148C507.157 234.575 507.505 235.091 507.736 235.661C508.374 237.461 507.443 239.442 506.356 241.005C503.345 245.333 499.023 248.497 494.627 251.305C487.292 255.997 479.505 259.942 471.383 263.081C470.536 263.448 469.644 263.703 468.731 263.841C467.03 263.913 465.34 263.537 463.831 262.749C461.551 261.738 459.203 260.301 458.331 257.915" fill="#1D2A5D"/>
<path d="M419.515 235.953C417.646 239.288 418.354 243.417 419.159 247.153C420.031 251.883 421.389 256.51 423.213 260.96C425.054 265.431 428.112 269.296 432.038 272.117C433.97 273.412 436.116 274.352 438.377 274.895C441.674 275.767 445.17 275.49 448.288 274.109C449.828 273.401 451.168 272.323 452.189 270.971C453.21 269.618 453.88 268.034 454.139 266.359C454.639 262.022 451.855 257.993 448.751 254.922C446.818 253.01 444.71 251.282 442.606 249.557L433.927 242.442C431.819 240.58 429.51 238.957 427.045 237.603C424.557 236.245 421.689 235.75 418.889 236.195" fill="#1D2A5D"/>
<path d="M459.813 268.372C462.031 262.784 474.424 252.772 474.424 252.772C481.524 247.036 479.656 246.559 487.161 240.989C491.702 237.423 497.05 235.029 502.735 234.018C504.535 233.754 506.672 233.818 507.773 235.304C508.42 236.376 508.652 237.648 508.424 238.879C507.867 243.1 506.008 247.043 503.106 250.158C500.239 253.209 496.928 255.81 493.285 257.873C488.311 260.873 483.085 263.395 477.977 266.154C476.118 267.106 474.342 268.214 472.669 269.465C469.848 271.674 467.297 274.765 463.769 275.153C463.355 275.23 462.929 275.218 462.52 275.117C462.11 275.015 461.728 274.828 461.397 274.567C461.367 274.538 461.348 274.515 461.311 274.474C460.482 273.366 459.906 272.09 459.623 270.735C459.573 270.535 459.544 270.346 459.544 270.346C459.537 270.296 459.53 270.246 459.525 270.187C459.489 269.568 459.588 268.949 459.813 268.372Z" fill="#1D2A5D"/>
<g opacity="0.29">
<path d="M460.275 267.017C463.194 262.69 466.257 258.467 469.465 254.348C472.284 250.514 475.534 247.016 479.152 243.924C483.54 240.435 488.627 237.929 494.068 236.577" fill="#1D2A5D"/>
<path d="M460.275 267.017C463.194 262.69 466.257 258.467 469.465 254.348C472.284 250.514 475.534 247.016 479.152 243.924C483.54 240.435 488.627 237.929 494.068 236.577" stroke="#FFDEF1" stroke-width="0.061" stroke-miterlimit="10"/>
</g>
<g opacity="0.29">
<path d="M424.478 244.112C426.562 248.512 428.736 253.034 432.341 256.312C433.74 257.528 435.241 258.623 436.826 259.583C441.257 262.521 446.038 264.894 451.057 266.647" fill="#1D2A5D"/>
<path d="M424.478 244.112C426.562 248.512 428.736 253.034 432.341 256.312C433.74 257.528 435.241 258.623 436.826 259.583C441.257 262.521 446.038 264.894 451.057 266.647" stroke="#FFDEF1" stroke-width="0.061" stroke-miterlimit="10"/>
</g>
<g opacity="0.29">
<path d="M489.334 237.78C489.682 237.145 490.193 236.614 490.814 236.242Z" fill="#1D2A5D"/>
<path d="M489.334 237.78C489.682 237.145 490.193 236.614 490.814 236.242" stroke="#FFDEF1" stroke-width="0.061" stroke-miterlimit="10"/>
</g>
<g opacity="0.29">
<path d="M423.604 248.12C424.521 248.784 425.555 249.27 426.651 249.554Z" fill="#1D2A5D"/>
<path d="M423.604 248.12C424.521 248.784 425.555 249.27 426.651 249.554" stroke="#FFDEF1" stroke-width="0.061" stroke-miterlimit="10"/>
</g>
<g opacity="0.29">
<path d="M464.046 260.056C453.741 254.465 445.394 245.937 436.057 238.848Z" fill="#1D2A5D"/>
<path d="M464.046 260.056C453.741 254.465 445.394 245.937 436.057 238.848" stroke="#FFDEF1" stroke-width="0.061" stroke-miterlimit="10"/>
</g>
<mask id="mask7_404_14" style="mask-type:luminance" maskUnits="userSpaceOnUse" x="437" y="264" width="28" height="19">
<path d="M461.371 267.405C460.128 266.448 458.732 265.709 457.243 265.217C456.495 264.978 455.7 264.93 454.929 265.075C454.158 265.22 453.435 265.555 452.825 266.049C452.169 266.66 451.761 267.51 451.06 268.066C450.335 268.556 449.51 268.877 448.644 269.003L444.086 270.02C443.436 270.146 442.797 270.326 442.177 270.559C441.247 270.984 440.412 271.59 439.721 272.343C439.029 273.095 438.494 273.978 438.149 274.94C437.468 276.868 437.145 278.903 437.195 280.947C437.167 281.129 437.18 281.316 437.232 281.493C437.283 281.67 437.373 281.834 437.495 281.973C437.699 282.111 437.94 282.184 438.187 282.184C444.98 282.784 451.435 279.423 458.146 278.209C459.774 278.081 461.35 277.581 462.754 276.748C464.054 275.774 464.699 273.686 463.574 272.509C462.862 271.765 461.626 271.547 461.182 270.617C460.676 269.561 461.528 268.347 461.471 267.18" fill="white"/>
</mask>
<g mask="url(#mask7_404_14)">
<path d="M455.356 265.08C454.695 265.586 454.092 266.162 453.556 266.799C453.098 267.444 452.6 268.06 452.065 268.643C449.76 270.881 445.907 270.374 443.084 271.826C442.797 271.974 442.52 272.144 442.258 272.333C440.108 273.907 439.381 276.753 438.835 279.364C438.608 280.298 438.478 281.253 438.446 282.214H438.406C438.159 282.216 437.917 282.144 437.712 282.007C437.591 281.867 437.502 281.704 437.45 281.527C437.399 281.35 437.386 281.163 437.412 280.981C437.364 278.935 437.687 276.898 438.366 274.968C438.712 274.006 439.247 273.123 439.939 272.371C440.631 271.619 441.467 271.012 442.397 270.588C443.017 270.356 443.656 270.177 444.306 270.054C445.827 269.711 447.348 269.377 448.862 269.034C449.729 268.913 450.556 268.592 451.278 268.096C451.983 267.543 452.393 266.696 453.041 266.079C453.686 265.506 454.497 265.156 455.356 265.08Z" fill="#FFDEF1"/>
<path d="M445.391 279.306C445.399 280.115 445.267 280.92 445.002 281.685C442.811 282.182 440.559 282.351 438.318 282.185C438.35 281.225 438.48 280.271 438.707 279.337C439.253 276.724 439.98 273.879 442.13 272.304C442.393 272.115 442.669 271.946 442.956 271.797C443.523 272.151 444.011 272.618 444.39 273.169C444.77 273.719 445.032 274.341 445.162 274.997C445.445 276.415 445.522 277.866 445.391 279.306Z" fill="#FFDEF1"/>
<path d="M462.845 276.751C461.441 277.583 459.866 278.084 458.24 278.215C453.766 279.015 449.423 280.776 445.002 281.684C445.267 280.919 445.398 280.114 445.391 279.305C445.522 277.868 445.445 276.42 445.163 275.005C445.033 274.349 444.771 273.727 444.391 273.177C444.012 272.626 443.524 272.159 442.957 271.805C445.781 270.353 449.632 270.86 451.938 268.623C452.473 268.039 452.971 267.422 453.43 266.777C453.966 266.141 454.569 265.565 455.23 265.059C455.937 264.988 456.65 265.046 457.336 265.231C458.824 265.72 460.218 266.458 461.459 267.413L461.567 267.186C461.624 268.36 460.773 269.576 461.273 270.625C461.443 270.952 461.699 271.226 462.013 271.418C462.602 271.726 463.156 272.097 463.665 272.524C464.793 273.685 464.151 275.773 462.845 276.751Z" fill="#FFB260"/>
<path opacity="0.29" d="M445.231 277.165C451.188 276.155 456.498 272.656 462.461 271.685" stroke="#FFDEF1" stroke-width="0.063" stroke-miterlimit="10"/>
<path d="M448.865 275.649C449.254 275.649 449.569 275.334 449.569 274.945C449.569 274.556 449.254 274.241 448.865 274.241C448.476 274.241 448.161 274.556 448.161 274.945C448.161 275.334 448.476 275.649 448.865 275.649Z" stroke="#FFDEF1" stroke-width="0.143" stroke-miterlimit="10"/>
<path d="M452.183 274.498C452.572 274.498 452.887 274.183 452.887 273.794C452.887 273.405 452.572 273.09 452.183 273.09C451.794 273.09 451.479 273.405 451.479 273.794C451.479 274.183 451.794 274.498 452.183 274.498Z" stroke="#FFDEF1" stroke-width="0.143" stroke-miterlimit="10"/>
<path d="M455.385 273.251C455.774 273.251 456.089 272.936 456.089 272.547C456.089 272.158 455.774 271.843 455.385 271.843C454.996 271.843 454.681 272.158 454.681 272.547C454.681 272.936 454.996 273.251 455.385 273.251Z" stroke="#FFDEF1" stroke-width="0.143" stroke-miterlimit="10"/>
<path d="M448.954 275.045C449.404 276.941 449.591 278.89 449.511 280.837" stroke="#FFDEF1" stroke-width="0.086" stroke-miterlimit="10"/>
<path d="M452.137 273.862C452.817 275.732 453.028 277.74 452.752 279.71" stroke="#FFDEF1" stroke-width="0.086" stroke-miterlimit="10"/>
<path d="M455.392 272.839C455.87 274.915 456.251 277.144 455.492 279.133" stroke="#FFDEF1" stroke-width="0.086" stroke-miterlimit="10"/>
</g>
<path d="M451.167 214.968C450.425 215.56 449.518 215.91 448.571 215.972C447.623 216.033 446.679 215.802 445.867 215.31C444.247 214.286 442.91 212.872 441.979 211.197C440.692 209.177 439.54 206.797 440.053 204.45C440.379 203.501 440.646 202.532 440.853 201.55C441.01 199.858 439.985 198.263 439.929 196.564C439.854 194.299 441.456 192.394 442.394 190.34C444.76 185.154 442.859 178.94 444.253 173.402C445.832 167.123 451.837 162.481 458.189 161.972C459.777 161.804 461.383 161.991 462.889 162.521C464.838 163.343 466.49 164.742 467.622 166.529C469.042 168.875 470.127 171.407 470.845 174.053L476.329 191.089C476.774 192.22 476.999 193.425 476.993 194.64C476.91 195.84 476.372 197.016 476.519 198.214C476.782 200.376 479.133 201.775 479.495 203.924C479.58 205.258 479.264 206.586 478.586 207.738C478.017 209.143 477.242 210.455 476.286 211.631C475.809 212.212 475.207 212.678 474.525 212.995C473.843 213.312 473.098 213.471 472.346 213.461C470.146 213.296 468.59 211.282 467.323 209.445C466.147 208.003 465.344 206.294 464.983 204.469C464.972 203.623 464.898 202.779 464.759 201.944C464.299 200.899 463.776 199.884 463.192 198.903C462.484 197.162 462.729 194.77 461.126 193.827C460.629 193.577 460.087 193.429 459.532 193.393C457.654 193.035 455.721 193.079 453.862 193.524C452.93 193.766 452.083 194.262 451.415 194.957C450.748 195.651 450.286 196.517 450.081 197.458C449.681 200.212 452.171 202.766 451.789 205.522C451.674 206.352 451.301 207.129 451.213 207.962C451.055 209.453 451.813 210.871 452.076 212.347C452.339 213.823 451.711 215.747 450.242 215.863" fill="#1D2A5D"/>
<path d="M457.162 166.928C456.329 167.042 455.528 167.324 454.808 167.758C454.088 168.191 453.463 168.767 452.972 169.449C452 170.821 451.3 172.368 450.912 174.005C449.628 178.671 449.477 183.563 449.333 188.4C449.285 189.061 449.322 189.726 449.441 190.378C449.74 191.401 450.267 192.343 450.982 193.133C452.599 195.145 454.668 197.076 457.236 197.343C458.469 197.443 459.708 197.229 460.836 196.72C462.281 196.103 463.558 195.153 464.565 193.948C465.111 193.277 465.59 192.554 465.996 191.79C467.741 188.466 468.525 184.721 468.26 180.977C467.995 177.232 466.691 173.635 464.496 170.59C463.648 169.363 462.539 168.338 461.248 167.59C460.6 167.221 459.881 166.998 459.138 166.935C458.396 166.872 457.649 166.971 456.948 167.225" fill="#FFB260"/>
<path d="M451.084 191.063C451.36 193.512 449.538 195.973 450.271 198.326C450.768 199.512 451.577 200.541 452.612 201.305C453.248 201.932 453.984 202.448 454.79 202.832C455.406 203.055 456.048 203.199 456.7 203.261C458.783 203.547 461.015 203.775 462.894 202.832C463.051 202.769 463.185 202.659 463.279 202.519C463.35 202.345 463.367 202.154 463.328 201.97C463.038 199.371 463.128 196.743 463.594 194.17L450.89 191.491" fill="#FFB260"/>
<path d="M455.265 166.821C452.45 168.209 451.173 170.967 452.257 173.321C452.348 173.561 452.514 173.765 452.73 173.904C452.946 174.043 453.201 174.109 453.457 174.092C453.716 174.034 453.946 173.886 454.106 173.674C454.511 173.215 454.846 172.699 455.1 172.143C455.469 173.392 456.165 174.519 457.117 175.407C457.397 175.677 457.927 175.959 458.275 175.742C458.385 175.662 458.463 175.545 458.492 175.412L458.851 174.332C460.597 174.675 462.371 174.854 464.151 174.866C465.046 174.872 466.097 174.766 466.498 174.21C466.657 173.95 466.711 173.64 466.65 173.342C466.331 170.369 463.272 167.588 459.26 166.621C457.898 166.293 456.2 166.221 455.26 166.959" fill="#1D2A5D"/>
<path d="M270.364 27.6279C269.231 21.0219 277.081 14.9369 284.134 16.3019C291.187 17.6669 295.805 25.0149 294.686 31.6239C293.567 38.2329 287.637 43.6079 280.768 45.6239C283.733 51.9956 287.085 58.1795 290.807 64.1409" stroke="white" stroke-width="0.964" stroke-miterlimit="10"/>
<path d="M338.834 47.4481C341.542 44.2621 347.839 46.0231 350.198 50.2811C352.557 54.5391 350.979 59.8521 347.308 61.8501C343.637 63.8481 338.501 62.8221 334.588 59.9871C332.771 64.0668 331.217 68.2587 329.935 72.5371" stroke="white" stroke-width="0.626" stroke-miterlimit="10"/>
<path d="M376.095 86.98H362.774V73.854H376.105L376.095 86.98ZM375.902 67.188H362.967C362.967 46.788 382.356 47.981 382.356 35.076C382.348 33.3867 382.007 31.7155 381.353 30.158C380.699 28.6004 379.745 27.1869 378.545 25.9983C377.344 24.8096 375.922 23.8691 374.358 23.2304C372.794 22.5917 371.119 22.2674 369.43 22.276C366.01 22.3454 362.751 23.7403 360.34 26.1666C357.929 28.5928 356.554 31.8607 356.506 35.281H343.579C343.607 28.4603 346.329 21.9269 351.152 17.1043C355.975 12.2817 362.509 9.56076 369.33 9.53437C376.151 9.50799 382.705 12.1783 387.566 16.9634C392.426 21.7485 395.199 28.2607 395.279 35.081C395.279 51.218 375.891 53.055 375.891 67.193L375.902 67.188Z" fill="black"/>
<path d="M119.956 63.069L114.307 59.807L117.521 54.2393L123.175 57.5038L119.956 63.069ZM124.722 54.6276L119.235 51.4601C124.23 42.8085 132.166 48.0634 135.326 42.5901C135.736 41.8716 136.001 41.0793 136.105 40.2584C136.209 39.4375 136.151 38.6042 135.933 37.806C135.715 37.0079 135.341 36.2604 134.834 35.6065C134.328 34.9525 133.697 34.4048 132.978 33.9946C131.511 33.1864 129.787 32.9798 128.17 33.4184C126.553 33.8569 125.17 34.9064 124.312 36.3453L118.826 33.1778C120.507 30.2916 123.262 28.1871 126.488 27.3226C129.715 26.4581 133.152 26.9038 136.052 28.5626C138.951 30.2214 141.078 32.9588 141.968 36.1785C142.858 39.3982 142.44 42.8391 140.804 45.7517C136.854 52.5933 128.177 48.6227 124.713 54.6217L124.722 54.6276Z" fill="#EF7069"/>
<path d="M253.483 37.9864L256.106 42.9203L251.244 45.5052L248.619 40.5677L253.483 37.9864ZM246.192 41.9545L248.739 46.7454C241.185 50.7622 237.808 43.3464 233.028 45.8882C231.768 46.5669 230.83 47.7177 230.418 49.088C230.006 50.4583 230.155 51.936 230.832 53.1966C231.531 54.4494 232.69 55.3818 234.063 55.797C235.436 56.2122 236.917 56.0777 238.193 55.422L240.739 60.2094C238.208 61.5396 235.253 61.8161 232.519 60.9788C229.785 60.1415 227.492 58.2581 226.14 55.7386C224.787 53.219 224.485 50.2673 225.298 47.5258C226.112 44.7844 227.975 42.4752 230.482 41.1008C236.459 37.9229 240.957 44.7416 246.194 41.9571L246.192 41.9545Z" fill="#FFB260"/>
</g>
<defs>
<clipPath id="clip0_404_14">
<rect width="636.186" height="359.8" fill="white"/>
</clipPath>
</defs>
</svg>
