<svg height="359.8" viewBox="0 0 636.186 359.8" width="636.186" xmlns="http://www.w3.org/2000/svg" xmlns:xlink="http://www.w3.org/1999/xlink"><clipPath id="a"><path d="m16.986 344.131a66.739 66.739 0 0 1 16.818-23.6 9.11 9.11 0 0 1 4.2-2.5c3.574-.668 6.546 2.613 9.934 3.934 5.954 2.32 12.488-1.689 16.915-6.3a13.457 13.457 0 0 1 4.291-3.5 11.576 11.576 0 0 1 4.683-.552c16.918.409 34.344 3.31 48.5 12.577 3.608 2.362 7.336 6.05 6.491 10.279-1.141 5.708-8.867 6.55-14.666 6.052l-12.022-1.036a11.436 11.436 0 0 0 -5.665.47c-4.5 2.015-4.8 8.765-8.933 11.453-5.194 3.377-12.631-1.738-18.152 1.072-2.551 1.3-4.042 4-6.214 5.864-6.448 5.538-16.569 2.247-23.388-2.828s-12.978-11.903-21.329-13.467" transform="translate(-16.986 -311.604)"/></clipPath><clipPath id="b"><path d="m32.445 354.425c-2.2-6.292-4.416-12.688-4.7-19.261s1.619-13.464 6.58-17.8c2.88-2.515 6.639-4.062 9.164-6.912 8.5-9.594-.534-28.76 10.628-35.374 3.169-1.879 7.136-2 10.733-2.994 18.418-5.084 22.128-30.148 38.9-38.884 3.331-1.735 7.741-2.637 10.868-.381 2.719 1.962 3.445 5.617 3.176 8.82-.721 8.586-6.793 15.774-8.435 24.21-2.254 11.573 3.772 25.171-3.13 34.742-3.884 5.387-11.112 8.02-14.354 13.8-3.262 5.818-1.961 13.959-6.938 18.481-4.021 3.656-10.556 3.353-15.182 6.28-2.607 1.65-4.421 4.21-6.745 6.211-8.623 7.422-22.015 5.836-33.647 3.821" transform="translate(-27.713 -231.477)"/></clipPath><clipPath id="c"><path d="m91.539 353.66a12.236 12.236 0 0 0 -2.474-3.8c.238-.059.5-.122.763-.177a33.756 33.756 0 0 1 5.318-.641c7.594-.5-3.078.073 9.131-.639 7.311-.431 8.017-.45 8.867.256a5.231 5.231 0 0 1 1.617 2.731 7.5 7.5 0 0 1 .039 3.782 6.121 6.121 0 0 1 -.621 1.52c-.86 1.446-3.7 2.442-9.33 4.375-2 .684-3.8 1.287-6.361 1.988a41.306 41.306 0 0 1 -7.35 1.623 9.174 9.174 0 0 0 1.372-3.5 10.485 10.485 0 0 0 -.078-2.351c-.1-.924-.223-1.854-.359-2.774a12.66 12.66 0 0 0 -.534-2.393z" transform="translate(-89.065 -348.103)"/></clipPath><clipPath id="d"><path d="m157.619 357.3a12.2 12.2 0 0 0 1.553 4.259c-.247 0-.511.007-.784 0a33.735 33.735 0 0 1 -5.325-.577c-7.51-1.234 3.015.623-9.039-1.442-7.22-1.232-7.912-1.375-8.58-2.254a5.248 5.248 0 0 1 -.96-3.025 7.526 7.526 0 0 1 .819-3.693 6.137 6.137 0 0 1 .948-1.34c1.165-1.215 4.153-1.544 10.078-2.152 2.1-.215 3.986-.4 6.645-.5a41.213 41.213 0 0 1 7.527.08 9.145 9.145 0 0 0 -2.129 3.1 10.531 10.531 0 0 0 -.455 2.308c-.109.924-.2 1.856-.277 2.782a12.621 12.621 0 0 0 -.021 2.454z" transform="translate(-134.478 -346.458)"/></clipPath><clipPath id="e"><path d="m283.4 331.731-8.287 3.917a8.143 8.143 0 0 0 -3.827 2.859 6.1 6.1 0 0 0 .029 5.3c.691 1.694 1.77 3.206 2.5 4.884 1.586 3.66 1.4 7.8 1.824 11.769a6.2 6.2 0 0 0 .766 2.725 5.153 5.153 0 0 0 1.926 1.649 10.788 10.788 0 0 0 5.578 1.313c1.778-.07 3.906-1.039 3.914-2.82a4.415 4.415 0 0 0 -.885-2.237 21.444 21.444 0 0 1 -3.384-8.554 10.3 10.3 0 0 1 2.624-8.56c.944-.925 2.212-1.8 2.274-3.117a4.027 4.027 0 0 0 -.717-2.094l-4.384-7.705" transform="translate(-270.689 -331.056)"/></clipPath><clipPath id="f"><path d="m281.969 353.226 2.216 7.175a9.313 9.313 0 0 0 1.649 3.5 8.879 8.879 0 0 0 2.62 1.84 28.573 28.573 0 0 0 7.781 3.055 11.821 11.821 0 0 0 8.14-1.077c1.923-1.116 3.47-3.614 2.311-5.512-1.07-1.752-3.6-1.76-5.341-2.844a9.327 9.327 0 0 1 -1.981-1.849l-7.563-8.586a2.077 2.077 0 0 0 -.743-.615 1.99 1.99 0 0 0 -1.287.078 19.827 19.827 0 0 0 -8.093 4.793" transform="translate(-281.68 -348.236)"/></clipPath><clipPath id="g"><path d="m406.136 319.635a6.866 6.866 0 0 0 -4.049-1.853 53.4 53.4 0 0 0 -13.652-.872 6.169 6.169 0 0 0 -2.823.672 4.966 4.966 0 0 0 -2.2 5.137 4.711 4.711 0 0 0 .6 1.26c.078.06.151.126.226.192 1.034.372 3.745 1.744 7.31 3.029 4.469 1.61 7.758 2.192 10.61 1.662a6.138 6.138 0 0 0 3.121-1.424 6.034 6.034 0 0 0 1.559-2.814 5.458 5.458 0 0 0 -.702-4.989z" transform="translate(-383.285 -316.798)"/></clipPath><clipPath id="h"><path d="m385.7 318.116a13.925 13.925 0 0 0 -4.128-2.188 4.733 4.733 0 0 0 -4.418.832c-.656.611-1.064 1.461-1.765 2.017a5.808 5.808 0 0 1 -2.416.937l-4.558 1.017a11.813 11.813 0 0 0 -1.909.539 7.666 7.666 0 0 0 -4.028 4.381 16.8 16.8 0 0 0 -.954 6.007 1.269 1.269 0 0 0 .3 1.026 1.231 1.231 0 0 0 .692.211c6.793.6 13.248-2.761 19.959-3.975a10.66 10.66 0 0 0 4.608-1.461c1.3-.974 1.945-3.062.82-4.239-.712-.744-1.948-.962-2.392-1.892-.506-1.056.346-2.27.289-3.437" transform="translate(-361.526 -315.726)"/></clipPath><path d="m299.6 146.388c-13.637 3.5-79.3-8.851-102.834-10.5-8.24-.577-56.5-3.01-88.142 30.664-24.361 25.922-39.266 70.95-22.3 100.063 6.482 11.12 16.272 20.134 21.145 32.106 16.925 41.575-32.955 82.45-31.732 127.571 1.237 45.642 54 71.4 97.849 68.176s85.438-24.1 129.389-25.015c32.03-.665 63.449 9.345 95.464 10.575a176.41 176.41 0 0 0 81.1-16.434c45.924-21.435 84.757-73.783 69.705-123.687-19.217-63.682-108.325-79.577-130.521-142.207-4.11-11.6-5.618-24.261-11.464-35.023-11.566-21.29-39.2-27.354-56.355-27.724-1.927-.041-17.677-.282-29.332 4.256-1.223.477-5.523 2.222-11.625 4.186 0 .005-5.157 1.661-10.347 2.993z" fill="#f3f7ff" opacity=".61" transform="translate(-64.16 -134.94)"/><g opacity=".54" transform="translate(515.038 280.444)"><g clip-path="url(#a)" fill="#4e6ef1" transform="translate(9.199)"><path d="m16.986 344.131a66.739 66.739 0 0 1 16.818-23.6 9.11 9.11 0 0 1 4.2-2.5c3.574-.668 6.546 2.613 9.934 3.934 5.954 2.32 12.488-1.689 16.915-6.3a13.457 13.457 0 0 1 4.291-3.5 11.576 11.576 0 0 1 4.683-.552c16.918.409 34.344 3.31 48.5 12.577 3.608 2.362 7.336 6.05 6.491 10.279-1.141 5.708-8.867 6.55-14.666 6.052l-12.022-1.036a11.436 11.436 0 0 0 -5.665.47c-4.5 2.015-4.8 8.765-8.933 11.453-5.194 3.377-12.631-1.738-18.152 1.072-2.551 1.3-4.042 4-6.214 5.864-6.448 5.538-16.569 2.247-23.388-2.828s-12.978-11.903-21.329-13.467" transform="translate(-16.986 -311.604)"/><g stroke="#fff" stroke-miterlimit="10"><path d="m150.013 335.157c-8.734-7.253-20.061-10.819-31.359-11.948s-22.686.014-33.972 1.25c-26.265 2.871-54.023 6.876-74.424 23.664" stroke-width=".391" transform="translate(-28.399 -306.742)"/><path d="m46.023 330.1a57.237 57.237 0 0 1 15.015-20.446" stroke-width=".391" transform="translate(9.202 -312.455)"/><path d="m33.614 323.659a82.289 82.289 0 0 0 19.586 15.18" stroke-width=".391" transform="translate(34.867 -306.343)"/><path d="m24.7 325.763a39.863 39.863 0 0 1 12.385-9.644" stroke-width=".391" transform="translate(63.792 -309.634)"/><path d="m48.677 325.56c7.627 11.818 15.873 24.2 28.53 30.328" stroke-width=".391" transform="translate(-10.78 -305.514)"/><path d="m74.207 332.633a35.424 35.424 0 0 1 7.4-19.286" stroke-width=".391" transform="translate(-51.856 -310.844)"/><path d="m72.266 330.041a23.735 23.735 0 0 1 4.571-11.288" stroke-width=".039" transform="translate(-44.293 -308.485)"/><path d="m67.191 330.3a53.979 53.979 0 0 1 5.832-14.948" stroke-width=".039" transform="translate(-33.189 -309.971)"/><path d="m62.458 330.115a43.06 43.06 0 0 1 5.2-16.1" stroke-width=".039" transform="translate(-21.028 -310.554)"/><path d="m54.737 330.638a56.889 56.889 0 0 1 8.224-20.42" stroke-width=".039" transform="translate(-5.238 -312.21)"/><path d="m80.34 330.5a88.647 88.647 0 0 0 9.423 9.3" stroke-width=".039" transform="translate(-68.817 -303.356)"/><path d="m75.917 327.986a110.92 110.92 0 0 0 8 9.613" stroke-width=".039" transform="translate(-56.616 -304.455)"/><path d="m70.282 327.945q4.214 5.262 8.021 10.832" stroke-width=".039" transform="translate(-42.909 -304.473)"/><path d="m31.816 323.339a122.417 122.417 0 0 0 14.7 13.886" stroke-width=".039" transform="translate(44.128 -306.483)"/><path d="m28.446 323.066q6.007 7.548 12.748 14.471" stroke-width=".039" transform="translate(54.294 -306.602)"/><path d="m23.714 322.843 10.509 14.425" stroke-width=".039" transform="translate(68.063 -306.7)"/><path d="m18.012 325.6a87.685 87.685 0 0 1 8.14 11.178" stroke-width=".039" transform="translate(84.324 -305.497)"/></g></g><path d="m105.356 331.395a144.84 144.84 0 0 0 -13.265 9.235" fill="none" stroke="#fff" stroke-miterlimit="10" stroke-width=".391" transform="translate(-92.091 -302.967)"/></g><g opacity=".54" transform="translate(530.65 165.346)"><g clip-path="url(#b)" fill="#ff67a3"><path d="m32.511 354.4c-2.2-6.292-4.416-12.688-4.7-19.261s1.619-13.465 6.58-17.8c2.88-2.515 6.639-4.062 9.164-6.912 8.5-9.594-.534-28.76 10.628-35.375 3.169-1.877 7.136-2 10.733-2.992 18.417-5.084 22.127-30.148 38.9-38.885 3.331-1.735 7.74-2.637 10.868-.381 2.718 1.962 3.445 5.616 3.176 8.82-.721 8.586-6.793 15.774-8.435 24.21-2.254 11.573 3.772 25.169-3.13 34.74-3.886 5.388-11.114 8.021-14.356 13.8-3.261 5.818-1.959 13.959-6.937 18.481-4.022 3.656-10.556 3.353-15.182 6.28-2.607 1.65-4.421 4.21-6.745 6.211-8.623 7.422-22.015 5.836-33.647 3.821" transform="translate(-27.874 -231.489)"/><g stroke="#fff" stroke-miterlimit="10"><path d="m136.1 229.4c-11.655 7.3-16.592 21.041-23.481 32.706-4.421 7.488-9.865 14.362-14.173 21.913-3.873 6.791-6.806 14.1-11.035 20.679a124.629 124.629 0 0 1 -8.633 11.4l-51.368 62.702" stroke-width=".343" transform="translate(-45.536 -232.384)"/><path d="m78.048 285.178 4.495 24.622" stroke-width=".343" transform="translate(-64.717 -208.04)"/><path d="m45.08 298.671 41.562-3.341" stroke-width=".343" transform="translate(-21.46 -203.609)"/><path d="m28.043 278.618a6.39 6.39 0 0 1 3.518-1.856 352.184 352.184 0 0 1 38.624-8.508" stroke-width=".343" transform="translate(19.469 -215.426)"/><path d="m69.849 290.76a232.964 232.964 0 0 1 -8.959-32.067" stroke-width=".343" transform="translate(-27.377 -219.599)"/><path d="m48.521 257.6q-3.038-8.922-5.167-18.073" stroke-width=".343" transform="translate(19.14 -227.964)"/><path d="m26.7 253.233c8.084-2.38 17.244-1.518 24.722-5.244" stroke-width=".343" transform="translate(40.168 -224.271)"/><path d="m78.908 296.7q-7.132-18.952-15.867-37.337" stroke-width=".034" transform="translate(-39.526 -219.305)"/><path d="m80.053 298.146q-6.356-16.8-13.76-33.238" stroke-width=".034" transform="translate(-45.342 -216.887)"/><path d="m80.015 299.094a230.665 230.665 0 0 0 -11.323-24.539" stroke-width=".034" transform="translate(-48.751 -212.676)"/><path d="m80.489 300.911q-4.572-8.524-8.68-17.259" stroke-width=".034" transform="translate(-53.702 -208.706)"/><path d="m28.095 248.5q8.683-2.594 17.243-5.517" stroke-width=".034" transform="translate(44.242 -226.456)"/><path d="m23.865 243.229q10.028-2.715 20.176-5.036" stroke-width=".034" transform="translate(51.615 -228.546)"/><path d="m23.665 239.347q8.425-2.646 16.691-5.7" stroke-width=".034" transform="translate(55.587 -230.528)"/><path d="m51.839 303.28a244.454 244.454 0 0 0 38 .934" stroke-width=".034" transform="translate(-34.361 -200.14)"/><path d="m60.28 307.409a11.492 11.492 0 0 0 3.021.07 135.9 135.9 0 0 1 28.881 1.333" stroke-width=".034" transform="translate(-48.834 -198.415)"/><path d="m66.194 310.02c2.8 1.652 6.075 2.3 9.275 2.863q8.983 1.573 18.043 2.517" stroke-width=".034" transform="translate(-58.659 -197.198)"/></g></g><path d="m92.185 313.38a66.293 66.293 0 0 0 -5.885 11.933" fill="none" stroke="#fff" stroke-miterlimit="10" stroke-width=".343" transform="translate(-86.213 -195.731)"/></g><path d="m57.164 190.463h155.892v39.584h-108.74v54.723h101.86v39.582h-101.86v89.456h-47.152z" fill="#487cff" transform="translate(-57.164 -105.381)"/><path d="m218.9 362.218-17.425 51.59h-47.475l75.84-223.345h60.66l79.119 223.344h-50.77l-18.358-51.59zm71.2-39.581c-15.857-47.135-25.964-77.249-31.355-97.323h-.323c-5.507 22.018-16.663 57.054-29.372 97.323z" fill="#ef7069" transform="translate(-14.902 -105.381)"/><path d="m520.091 302.356c0 62.159-37.322 115.675-109.863 115.675-70.092 0-106.776-50.938-106.776-114.911 0-65 40.522-114.912 109.9-114.912 65.335 0 106.739 45.779 106.739 114.148zm-166.765-.208c0 43.6 19.135 76.587 58.73 76.587 42.949 0 58.16-35.967 58.16-75.769 0-42.253-17.309-75.46-58.939-75.46-40.343-.006-57.95 31.158-57.95 74.642zm119.716 78.431 63.506 43.536-27.919 32.1-78.747-54.553z" fill="#ffb260" transform="translate(50.325 -106.365)"/><path d="m97.334 349.046a33.112 33.112 0 0 0 -5.312.641c-3.6.773-4.836 1.763-5.276 2.145a7.947 7.947 0 0 0 -2.224 3.215 7.325 7.325 0 0 0 -.164 4.668c1.385 4 6.927 4.841 7.543 4.927 1.928.266 4.21-.352 8.777-1.587 2.571-.7 4.362-1.306 6.361-1.989 5.638-1.931 8.474-2.925 9.33-4.375 1.441-2.443 1-6.343-1.034-8.033-.847-.7-1.559-.679-8.863-.251-12.211.713-1.541.142-9.138.639z" fill="#3282b8" transform="translate(-45.434 -36.581)"/><g clip-path="url(#c)" fill="none" stroke="#ffdef1" stroke-miterlimit="10" transform="translate(45.824 311.522)"><circle cx=".685" cy=".685" r=".685" stroke-width=".263" transform="translate(9.736 11.457)"/><path d="m92.062 358.022q11.3-2.37 22.508-5.183" opacity=".29" stroke-width=".092" transform="translate(-87.757 -346.036)"/><path d="m114.379 350.3c-1.7.389-3.486.259-5.207.565-.955.169-1.883.473-2.84.636-1.116.191-2.257.19-3.383.3a45.973 45.973 0 0 0 -5.007.971 56.982 56.982 0 0 1 -6.418 1.011" opacity=".29" stroke-width=".092" transform="translate(-87.992 -347.143)"/><path d="m95.325 351.25a15.786 15.786 0 0 1 1.521 7.324" opacity=".97" stroke-width=".092" transform="translate(-86.333 -346.73)"/><path d="m98.133 350.755a27.686 27.686 0 0 1 1.243 4.953 4.746 4.746 0 0 1 -.129 2.183" opacity=".97" stroke-width=".087" transform="translate(-85.107 -346.946)"/><path d="m101.078 350.221.776 4.8a4.323 4.323 0 0 1 -.057 2.369" opacity=".97" stroke-width=".077" transform="translate(-83.822 -347.179)"/><g stroke-width=".263"><circle cx=".685" cy=".685" r=".685" transform="translate(13.449 10.519)"/><circle cx=".685" cy=".685" r=".685" transform="translate(17.184 9.731)"/><circle cx=".685" cy=".685" r=".685" transform="translate(16.377 2.025)"/><circle cx=".685" cy=".685" r=".685" transform="translate(12.369 2.735)"/><circle cx=".685" cy=".685" r=".685" transform="translate(8.262 3.511)"/></g></g><path d="m84.525 354.511a7.914 7.914 0 0 1 1.434-2.42 8.77 8.77 0 0 1 .793-.791c.4-.348 1.494-1.225 4.506-1.971a12.237 12.237 0 0 1 2.474 3.8 12.661 12.661 0 0 1 .536 2.395c.136.919.257 1.85.359 2.774a10.485 10.485 0 0 1 .078 2.351 9.174 9.174 0 0 1 -1.372 3.5 6.991 6.991 0 0 1 -1.433-.049 13.525 13.525 0 0 1 -4.194-1.337 6.659 6.659 0 0 1 -3.347-3.588 7.323 7.323 0 0 1 .166-4.664z" fill="#ffdef1" transform="translate(-45.433 -36.046)"/><path d="m153.068 360.981a33.2 33.2 0 0 0 5.319.577c3.682.06 5.109-.623 5.624-.9a7.929 7.929 0 0 0 2.893-2.629 7.32 7.32 0 0 0 1.215-4.512c-.445-4.207-5.652-6.282-6.234-6.5-1.817-.7-4.18-.609-8.907-.438-2.663.1-4.545.284-6.646.5-5.927.6-8.915.932-10.077 2.153-1.956 2.054-2.412 5.951-.807 8.057.667.876 1.363 1.016 8.576 2.25 12.055 2.061 1.53.209 9.044 1.442z" fill="#3282b8" transform="translate(-23.422 -37.298)"/><g clip-path="url(#d)" fill="none" stroke="#ffdef1" stroke-miterlimit="10" transform="translate(111.057 309.159)"><circle cx=".685" cy=".685" r=".685" stroke-width=".263" transform="translate(16.204 1.948)"/><path d="m157.375 349.4q-11.547-.246-23.1-.039" opacity=".29" stroke-width=".092" transform="translate(-134.564 -345.233)"/><path d="m133.994 351.87c1.747 0 3.455.536 5.2.628.97.05 1.942-.035 2.912.022 1.13.066 2.239.325 3.364.467a45.684 45.684 0 0 0 5.1.187 57.173 57.173 0 0 1 6.481.465" opacity=".29" stroke-width=".092" transform="translate(-134.689 -344.096)"/><path d="m146.117 355.955a15.765 15.765 0 0 1 .174-7.477" opacity=".97" stroke-width=".092" transform="translate(-129.558 -345.577)"/><path d="m143.211 355.719a27.837 27.837 0 0 1 -.09-5.107 4.76 4.76 0 0 1 .619-2.1" opacity=".97" stroke-width=".087" transform="translate(-130.743 -345.56)"/><path d="m140.168 355.558.33-4.854a4.318 4.318 0 0 1 .59-2.294" opacity=".97" stroke-width=".077" transform="translate(-131.994 -345.606)"/><g stroke-width=".263"><circle cx=".685" cy=".685" r=".685" transform="translate(12.375 2.022)"/><circle cx=".685" cy=".685" r=".685" transform="translate(8.559 1.945)"/><circle cx=".685" cy=".685" r=".685" transform="translate(7.603 9.634)"/><circle cx=".685" cy=".685" r=".685" transform="translate(11.668 9.849)"/><circle cx=".685" cy=".685" r=".685" transform="translate(15.843 10.021)"/></g></g><path d="m159.885 357.973a7.881 7.881 0 0 1 -1.944 2.034 8.738 8.738 0 0 1 -.951.592c-.471.247-1.732.856-4.834.9a12.2 12.2 0 0 1 -1.553-4.259 12.624 12.624 0 0 1 .02-2.453c.075-.927.168-1.859.277-2.782a10.447 10.447 0 0 1 .455-2.308 9.144 9.144 0 0 1 2.129-3.1 6.9 6.9 0 0 1 1.383.363 13.549 13.549 0 0 1 3.784 2.251 6.657 6.657 0 0 1 2.449 4.252 7.317 7.317 0 0 1 -1.215 4.51z" fill="#ffdef1" transform="translate(-16.406 -37.239)"/><path d="m94.982 341.963q28.887-4.568 57.4-11.186c4.169-.967 8.4-1.974 12.672-1.76s8.68 1.829 11.288 5.221a7.973 7.973 0 0 1 1.666 3.748c.407 3.042-1.467 5.917-3.57 8.153-5.908 6.29-14.179 10-22.656 11.631s-17.2 1.3-25.8.5c-10.253-.964-20.571-2.65-30.006-6.78a2.834 2.834 0 0 1 -1.135-.74 2.784 2.784 0 0 1 -.457-1.556 29.692 29.692 0 0 1 .434-7.846" fill="#1d2a5d" transform="translate(-40.956 -44.924)"/><path d="m163.912 355.363c-46.6-16.11-54.2-20.4-54.2-20.4a34.353 34.353 0 0 0 -12.152-4c-4.242-.556-8.867.243-12.04 3.114a7.977 7.977 0 0 0 -2.311 3.387c-.945 2.92.384 6.085 2.05 8.662 4.686 7.248 12.158 12.384 20.2 15.5s16.693 4.367 25.291 5.111c16.907 1.464 28.411-1.685 30.734-1.294a1.752 1.752 0 0 0 1.29-.2 2.39 2.39 0 0 0 .687-1.774c.238-1.816.447-.972 1.047-4.207.451-2.435.378-3.156-.066-3.59a1.376 1.376 0 0 0 -.53-.309z" fill="#1d2a5d" transform="translate(-45.936 -44.133)"/><path d="m159.205 354.951a101.268 101.268 0 0 1 -16.713-5.025c-1.694-.731-3.347-1.554-5.033-2.3-1.761-.777-3.557-1.471-5.352-2.163l-31.477-12.144c-3-1.159-6.257-2.334-9.368-1.507" fill="none" stroke="#fff" stroke-miterlimit="10" stroke-width=".095" transform="translate(-42.282 -43.813)"/><path d="m117.237 342.908c3.768-3.343 8.541-5.286 13.214-7.168a40.768 40.768 0 0 1 7.459-2.459c3.748-.72 7.606-.375 11.405-.027" fill="none" stroke="#fff" stroke-miterlimit="10" stroke-width=".095" transform="translate(-30.946 -43.235)"/><path d="m132.219 356.993a11.1 11.1 0 0 0 5.086-6.036" fill="none" stroke="#fff" stroke-miterlimit="10" stroke-width=".095" transform="translate(-24.407 -35.336)"/><path d="m135.785 355.084a18.4 18.4 0 0 0 2.076-3.559" fill="none" stroke="#fff" stroke-miterlimit="10" stroke-width=".095" transform="translate(-22.851 -35.088)"/><path d="m151.249 333.88a7.681 7.681 0 0 1 -.554 7.277" fill="none" opacity=".29" stroke="#ffdef1" stroke-miterlimit="10" stroke-width=".095" transform="translate(-16.344 -42.789)"/><path d="m85.085 336.339a15.245 15.245 0 0 0 3 6.633 28.807 28.807 0 0 0 5.23 5.138" fill="none" stroke="#fff" stroke-miterlimit="10" stroke-width=".095" transform="translate(-44.978 -41.716)"/><path d="m160.4 336.786c-.01 3.006-.145 6.185-1.731 8.749-1.62 2.59-4.492 4.147-7.4 5.089a29.331 29.331 0 0 1 -5 1.132 80.976 80.976 0 0 1 -14.155 1.893.385.385 0 0 1 -.1.009c-.761.036-1.521.072-2.3.09-1.059.027-2.137.046-3.223.046-2.825 0-5.57-.109-8.169-.309-.082-.009-.154-.009-.227-.017-.47-.037-.941-.082-1.4-.128-8.712-.823-15.73-2.735-19.145-5.171-.019-.009-.027-.017-.046-.027-.009.019-.017.027-.026.046s-.01.027-.019.036c-.009-.027-.027-.045-.036-.072q-1.088-2.243-1.956-4.456c-6.223-15.875-4.113-30.629 1.041-37 3.65-4.519 12.977-9.945 15.495-10.614.073-.019.136-.027.208-.046.425-.108.852-.208 1.287-.3a38.607 38.607 0 0 1 4.681-.642s.317-.027.6-.046c.335-.082.671-.162 1-.227.733-.162 1.467-.289 2.182-.4h.009a42.505 42.505 0 0 1 12.87.236q1.194.177 2.445.381 1.724.284 3.6.625c.7.126 1.421.253 2.155.389a34.394 34.394 0 0 1 5.769 1.685 15.3 15.3 0 0 1 5.571 3.287c2.762 2.754 3.613 6.848 4.193 10.7a164.691 164.691 0 0 1 1.827 25.062z" fill="#2e3783" transform="translate(-42.118 -60.177)"/><path d="m129.239 295.046-.5 2.644c-1.1 3.659-1.921 6.945-2.535 9.735-.326 1.441-.6 2.745-.816 3.9-.434 2.272-.96 5.342-1.412 9.083 0 .027-.01.046-.01.063q-.2 1.726-.389 3.641c0 .055-.009.109-.009.162-.009.1-.019.218-.027.336-.1 1.05-.181 2.137-.253 3.269-.01.126-.019.263-.027.406a140.288 140.288 0 0 0 .715 25.367c-.761.036-1.521.072-2.3.09-1.059.027-2.137.046-3.223.046-2.825 0-5.57-.109-8.169-.309-.082-.009-.154-.009-.227-.017q.748-26.151 1.5-52.319v-.017c.036-1.133.063-2.265.1-3.4l.082-2.907c.733-.162 1.467-.289 2.182-.4h.009a42.505 42.505 0 0 1 12.87.236q1.188.187 2.439.391z" fill="#ffdef1" transform="translate(-34.079 -60.177)"/><path d="m135.987 313.873c-.073 1.658-.154 3.324-.227 4.982-.072 1.612-.326 3.522-1.684 4.22a17.553 17.553 0 0 1 -1.839.516 1.392 1.392 0 0 0 -1.006 1.494 2 2 0 0 0 .471.761 8.009 8.009 0 0 1 1.231 6.221 15.691 15.691 0 0 1 -.4 1.821 22.788 22.788 0 0 1 -1.7 4.328c-1.576 3.088-2.056 10.416-3.287 14.028-.543 1.6-1.123 2.165-1.413 3.478a2.565 2.565 0 0 1 -.1.336.385.385 0 0 1 -.1.009c-.761.036-1.521.072-2.3.09a15.959 15.959 0 0 1 .181-4.266c.625-4.509.218-9.11.679-13.638.336-3.324.562-5.752.725-7.554.009-.144.017-.28.027-.407.126-1.468.2-2.491.253-3.269.009-.118.019-.236.027-.336 0-.053.009-.108.009-.162a26.068 26.068 0 0 1 .389-3.641c0-.017.01-.036.01-.063.452-2.634 1.467-7.843 2.228-12.987a69.079 69.079 0 0 0 .932-10.206 9.427 9.427 0 0 0 -.343-2.554 3.166 3.166 0 0 0 -1.241-1.757 3.484 3.484 0 0 0 -1.965-.381 18.691 18.691 0 0 0 -7.952 1.186c-.734.28-1.277.5-1.712.715h-.009a3.591 3.591 0 0 0 -1.033.734 4.92 4.92 0 0 0 -1.231 2.571 14.91 14.91 0 0 0 -.1 3.4v.017c.162 3.469-.463 6.982-.037 10.433.507 4.2.6 14.653-1.231 41.9-.082-.009-.154-.009-.227-.017-.47-.037-.941-.082-1.4-.128-.9-2.481-1.721-13.2-3.84-19.515 0 0-1.685-5.335-.317-8.242.118-.244.254-.48.389-.715.825-1.34 1.051-1.62 1.214-1.974.526-1.214-.833-2.5-1.675-4.773a16.231 16.231 0 0 1 -.707-4.681c-.29-3.886.072-6.883.707-11.9a40.121 40.121 0 0 1 1.033-5.8 24.716 24.716 0 0 1 1.168-3.468 8.851 8.851 0 0 1 1.54-2.545 7.993 7.993 0 0 1 2.925-1.793 25.614 25.614 0 0 1 6.937-1.74 16.318 16.318 0 0 1 8.169 1.258 9.617 9.617 0 0 1 4.737 3.551 14.55 14.55 0 0 1 1.267 2.78c.254.662.463 1.3.635 1.885a24.149 24.149 0 0 1 .579 2.354c.858 4.288.957 5.927.614 13.444z" fill="#323370" transform="translate(-36.036 -62.585)"/><path d="m136 299c-2.923 2.662-3.108 7.119-3.084 11.072l.139 23.654a13.621 13.621 0 0 1 -.332 3.784c-1.01 3.584-4.806 5.954-5.5 9.611" fill="none" opacity=".29" stroke="#fff" stroke-miterlimit="10" stroke-width=".095" transform="translate(-26.585 -58.013)"/><path d="m133.131 325.435a13.2 13.2 0 0 1 7.919.5" fill="none" opacity=".29" stroke="#fff" stroke-miterlimit="10" stroke-width=".095" transform="translate(-24.009 -46.643)"/><path d="m139.363 329.11-6.816-3.007" fill="none" opacity=".29" stroke="#fff" stroke-miterlimit="10" stroke-width=".095" transform="translate(-24.264 -46.183)"/><path d="m96.817 302.412c5.331 6.47 6.4 15.42 6.276 23.8-.047 3.236-.236 6.514.461 9.676.955 4.328 3.491 8.113 5.976 11.782" fill="none" opacity=".29" stroke="#fff" stroke-miterlimit="10" stroke-width=".095" transform="translate(-39.858 -56.523)"/><path d="m101.62 326a6.689 6.689 0 0 0 -4.857 2.067" fill="none" opacity=".29" stroke="#ffdef1" stroke-miterlimit="10" stroke-width=".095" transform="translate(-39.881 -46.23)"/><path d="m102.466 327.559a11.568 11.568 0 0 0 -5.02 4.107" fill="none" opacity=".29" stroke="#ffdef1" stroke-miterlimit="10" stroke-width=".095" transform="translate(-39.583 -45.548)"/><path d="m111.054 291.343.168 7.653a4.789 4.789 0 0 0 .185 1.469c.475 1.372 2.018 1.9 3.377 2.063a15.611 15.611 0 0 0 9.725-2.05 4.812 4.812 0 0 0 2.209-2.234 6.189 6.189 0 0 0 -.312-4l-1.365-4.4a3.289 3.289 0 0 0 -1.11-1.9 2.78 2.78 0 0 0 -2.188-.063 48.893 48.893 0 0 0 -10.355 3.982" fill="#ffb8ca" transform="translate(-33.645 -62.949)"/><path d="m113.228 269.383c-2.35-.389-4.627 1.488-5.609 3.807a16.677 16.677 0 0 0 -.79 7.51 92.958 92.958 0 0 0 2.063 14.577c.852 3.812 2.218 7.939 5.438 9.805 3.92 2.271 9.087-.016 11.668-3.906s3.143-8.889 3.275-13.656a27.561 27.561 0 0 0 -.652-7.9c-1.936-7.218-9.547-12.1-16.406-10.516" fill="#ffb8ca" transform="translate(-35.525 -71.191)"/><path d="m128.4 285.812c-.665-2.12-1.491-4.447-3.357-5.453a6.042 6.042 0 0 0 -2.456-.611c-3.12-.225-6.26.567-9.368.205s-6.444-2.433-6.819-5.757c-.34-3.025 2.027-5.808 4.742-6.724s5.657-.4 8.435.269c3.8.916 7.912 2.407 9.824 6.039 1.221 2.32 1.306 5.118 1.185 7.778q-.125 2.788-.5 5.555" fill="#1d2a5d" transform="translate(-35.692 -71.987)"/><path d="m120.854 283.376 1.579-1.882a5.633 5.633 0 0 1 1.378-1.31 1.629 1.629 0 0 1 1.728-.044 2.411 2.411 0 0 1 .839 1.477c.579 2.531-.962 5.43-3.2 6.022a1.4 1.4 0 0 1 -1.054-.052 1.864 1.864 0 0 1 -.723-1.142 6.681 6.681 0 0 1 .059-3.886" fill="#ffb8ca" transform="translate(-29.367 -66.343)"/><rect fill="#f1f3fb" height="39.627" rx="6.501" width="58.093" x="50.492" y="256.289"/><g transform="translate(306.716 287.035)"><path d="m283.4 331.731-8.287 3.917a8.143 8.143 0 0 0 -3.827 2.859 6.1 6.1 0 0 0 .029 5.3c.691 1.694 1.77 3.206 2.5 4.884 1.586 3.66 1.4 7.8 1.824 11.769a6.2 6.2 0 0 0 .766 2.725 5.153 5.153 0 0 0 1.926 1.649 10.788 10.788 0 0 0 5.578 1.313c1.778-.07 3.906-1.039 3.914-2.82a4.415 4.415 0 0 0 -.885-2.237 21.444 21.444 0 0 1 -3.384-8.554 10.3 10.3 0 0 1 2.624-8.56c.944-.925 2.212-1.8 2.274-3.117a4.027 4.027 0 0 0 -.717-2.094l-4.384-7.705" fill="#32224c" transform="translate(-270.689 -331.056)"/><g clip-path="url(#e)" fill="none" stroke="#ffdef1" stroke-miterlimit="10"><path d="m276.383 355.1a10.27 10.27 0 0 1 3.511-4.292 6.41 6.41 0 0 1 5.358-.895" opacity=".29" stroke-width=".081" transform="translate(-268.204 -322.938)"/><path d="m277.145 344.239a5.311 5.311 0 0 1 4.518-.172" stroke-width=".067" transform="translate(-267.871 -325.562)"/><path d="m277.466 346.156a5.373 5.373 0 0 1 4.924.207" stroke-width=".067" transform="translate(-267.731 -324.684)"/><path d="m277.932 347.926a4.828 4.828 0 0 1 4.532.131" stroke-width=".067" transform="translate(-267.527 -323.912)"/><g stroke-width=".092"><circle cx=".478" cy=".478" r=".478" transform="translate(9.762 23.675)"/><circle cx=".478" cy=".478" r=".478" transform="translate(9.762 23.675)"/><circle cx=".478" cy=".478" r=".478" transform="translate(9.115 20.976)"/><circle cx=".478" cy=".478" r=".478" transform="translate(8.612 18.288)"/></g><path d="m287.847 361.7a6.031 6.031 0 0 1 -4.46 1.564 9.135 9.135 0 0 1 -4.154-.873 5.679 5.679 0 0 1 -2.841-3.07 9.411 9.411 0 0 1 -.4-2.067l-.787-6.741a17.034 17.034 0 0 0 -.687-3.608c-.562-1.63-1.6-3.051-2.3-4.627a11.993 11.993 0 0 1 -.83-6.981" opacity=".29" stroke-width=".081" transform="translate(-270.468 -329.203)"/></g></g><g transform="translate(322.504 311.714)"><path d="m281.969 353.226 2.216 7.175a9.313 9.313 0 0 0 1.649 3.5 8.879 8.879 0 0 0 2.62 1.84 28.573 28.573 0 0 0 7.781 3.055 11.821 11.821 0 0 0 8.14-1.077c1.923-1.116 3.47-3.614 2.311-5.512-1.07-1.752-3.6-1.76-5.341-2.844a9.327 9.327 0 0 1 -1.981-1.849l-7.563-8.586a2.077 2.077 0 0 0 -.743-.615 1.99 1.99 0 0 0 -1.287.078 19.827 19.827 0 0 0 -8.093 4.793" fill="#32224c" transform="translate(-281.68 -348.236)"/><g clip-path="url(#f)" fill="none" stroke="#ffdef1" stroke-miterlimit="10"><path d="m282.836 355.338a20.709 20.709 0 0 0 11.109 8.406 14.22 14.22 0 0 0 13.314-2.81" opacity=".29" stroke-width=".087" transform="translate(-281.175 -345.137)"/><path d="m291.637 363.472a10.987 10.987 0 0 1 2.757-5.254 6.863 6.863 0 0 1 5.424-2.09" opacity=".29" stroke-width=".087" transform="translate(-277.334 -344.806)"/><path d="m288.265 353.843a5.677 5.677 0 0 1 4-2.716" stroke-width=".071" transform="translate(-278.806 -346.975)"/><path d="m289.659 355.392a5.745 5.745 0 0 1 4.587-2.6" stroke-width=".071" transform="translate(-278.198 -346.249)"/><path d="m291.085 356.688a5.168 5.168 0 0 1 4.189-2.449" stroke-width=".071" transform="translate(-277.575 -345.617)"/><g stroke-width=".099"><circle cx=".511" cy=".511" r=".511" transform="translate(12.927 10.779)"/><circle cx=".511" cy=".511" r=".511" transform="translate(12.927 10.779)"/><circle cx=".511" cy=".511" r=".511" transform="translate(10.811 8.697)"/><circle cx=".511" cy=".511" r=".511" transform="translate(8.831 6.542)"/></g></g></g><path d="m259.98 275.355c-.865 12.2 4.436 23.853 8.12 35.516 3.851 12.191 6.01 24.891 10.348 36.916a50.81 50.81 0 0 1 2.532 8.074c.358 1.968.427 3.977.71 5.957a55.6 55.6 0 0 0 2.2 8.656l2.3 7.366c.921 2.945 1.889 5.977 3.893 8.323a4.422 4.422 0 0 0 2.724 1.724 5.283 5.283 0 0 0 2.509-.557q3.443-1.4 6.777-3.055a3.687 3.687 0 0 0 1.322-.924 3.439 3.439 0 0 0 .337-2.8 44.636 44.636 0 0 0 -2.7-7.8 85.314 85.314 0 0 1 -2.972-8.836 124.535 124.535 0 0 1 -2.751-13.027c-4.167-25.385-4.026-51.264-6.53-76.864a1.177 1.177 0 0 0 -1.5-1.274l-18.215.145c-3.271.026-7.13.371-8.805 3.18" fill="#624ff3" transform="translate(31.312 -69.469)"/><path d="m274.507 283.691c6.6-6.155 13.975-12.655 22.983-13.224a3.606 3.606 0 0 1 1.524.142 3.338 3.338 0 0 1 1.3 1.061 20.842 20.842 0 0 1 3.22 6.708l9.452 27.844a51.94 51.94 0 0 1 2.742 10.378c.8 6.632-.98 13.307-3.31 19.567a111.1 111.1 0 0 1 -20.318 34.166 1.283 1.283 0 0 1 -.865.556 1.253 1.253 0 0 1 -.835-.48 24.5 24.5 0 0 1 -6.467-12.2 7.41 7.41 0 0 1 -.167-2.591 10.142 10.142 0 0 1 1.676-3.574c4.966-8.122 6.045-18.073 10.446-26.514a5.62 5.62 0 0 0 .915-2.8 5.2 5.2 0 0 0 -.8-2.16l-6.836-12.419-14.372-26.1" fill="#624ff3" transform="translate(37.693 -70.472)"/><path d="m284.92 340.276 9.071-22.348c1.059-2.607 2.135-5.451 1.39-8.165a12.954 12.954 0 0 0 -1.872-3.613l-10.782-16.337" fill="#624ff3" opacity=".29" stroke="#ffdef1" stroke-miterlimit="10" stroke-width=".071" transform="translate(41.282 -62.02)"/><path d="m282.621 281.476a102.232 102.232 0 0 0 -1.392 11.889c-.092 2.416-.013 4.835.066 7.251.613 18.657 1.241 37.436 5.25 55.668" fill="#624ff3" opacity=".29" stroke="#ffdef1" stroke-miterlimit="10" stroke-width=".071" transform="translate(40.61 -65.659)"/><path d="m290.094 306.846a13.3 13.3 0 0 1 6 2.965" fill="#624ff3" opacity=".29" stroke="#ffdef1" stroke-miterlimit="10" stroke-width=".071" transform="translate(44.496 -54.587)"/><path d="m289.639 307.861a29.958 29.958 0 0 1 6.116 6.277" fill="#624ff3" opacity=".29" stroke="#ffdef1" stroke-miterlimit="10" stroke-width=".071" transform="translate(44.298 -54.144)"/><path d="m286.707 340.11-1.856 7.23" fill="#624ff3" opacity=".29" stroke="#ffdef1" stroke-miterlimit="10" stroke-width=".071" transform="translate(42.208 -40.069)"/><path d="m287.421 343.285a18.956 18.956 0 0 1 -1.741 6.873" fill="#624ff3" opacity=".29" stroke="#ffdef1" stroke-miterlimit="10" stroke-width=".071" transform="translate(42.57 -38.683)"/><path d="m269.55 281.128a38.365 38.365 0 0 1 .471 4.549 6.808 6.808 0 0 1 -.072 1.64 7.536 7.536 0 0 1 -.879 2.078l-4.614 8.426" fill="#624ff3" opacity=".29" stroke="#ffdef1" stroke-miterlimit="10" stroke-width=".071" transform="translate(33.307 -65.811)"/><path d="m278.533 281.439q2.1 5.8 3.669 11.782" fill="#624ff3" opacity=".29" stroke="#ffdef1" stroke-miterlimit="10" stroke-width=".071" transform="translate(39.451 -65.675)"/><path d="m295.045 305.861a93.351 93.351 0 0 1 -17.543 1.626q-.521-11.607-1.043-23.21c-.4-8.877-.8-17.759-1.54-26.613l.569 1.425a22.327 22.327 0 0 0 -.632-2.182c-.269-3.13-.59-6.257-1.135-9.35a65.463 65.463 0 0 0 -7.877-21.5 7.134 7.134 0 0 0 1.515 1.431 12.706 12.706 0 0 0 8.445 2.7 7.943 7.943 0 0 0 6.883-5.076 10.985 10.985 0 0 0 .427-3.024q.022-.7.016-1.4a26.381 26.381 0 0 1 2.882.128 59.143 59.143 0 0 0 -1.706 24.455c.021.157.044.313.067.47.01.07.022.142.032.213.017.111.034.223.053.333.032.2.065.405.1.606.024.145.049.292.075.437.01.06.02.119.032.18.026.151.053.3.08.454v.017c.033.177.065.353.1.53l.009.05c.032.161.062.325.093.487.027.141.055.282.083.421l.065.32q.123.612.253 1.224.086.409.175.816.164.761.333 1.517l.116.523c2.57 11.492 5.414 22.992 7.324 34.6z" fill="#ffb260" transform="translate(33.912 -92.19)"/><path d="m256.155 276.63c.243.254.5.5.756.728.05.144.108.286.171.425z" fill="#32224c" transform="translate(29.684 -67.774)"/><path d="m279.888 256.761c.743 8.854 1.141 17.736 1.54 26.613q.521 11.6 1.043 23.21h-.544a91.509 91.509 0 0 1 -10.7-.712c-4.859-.612-9.967-1.768-13.58-5a14.223 14.223 0 0 1 -.266-6.4c.5-4.47.974-8.973 1.357-13.49 1.53-17.961 1.607-36.111-4.226-53.01l-.01-.03-.017-.052-.029-.082c3.921-1.3 7.571-3.443 11.389-4.982.062-.026.125-.05.188-.075.017.257.037.514.055.77q.276 3.812.554 7.619a4.006 4.006 0 0 0 .6 2.2c.737.964 2.179 1.112 3.2 1.732a2.455 2.455 0 0 1 .717.632c.009.009.016.02.023.029a4.341 4.341 0 0 1 .563 2.034c.822 6.629 4.888 12.277 8.071 18.234a22.316 22.316 0 0 1 .632 2.182z" fill="#32224c" transform="translate(28.944 -91.287)"/><path d="m283.762 220.688q.007.7-.016 1.4a10.983 10.983 0 0 1 -.427 3.024 7.943 7.943 0 0 1 -6.883 5.076 12.706 12.706 0 0 1 -8.445-2.7 7.136 7.136 0 0 1 -1.515-1.431 3.636 3.636 0 0 1 -.434-.735q-.791-1.317-1.645-2.6c.563-.164 1.129-.307 1.7-.428.408-.086.819-.161 1.235-.22 2.346-.339 4.733-.227 7.1-.4.35-.026.7-.057 1.05-.095 2.395-.249 4.767-.712 7.169-.849.171-.01.34-.019.511-.026.2-.004.4-.013.6-.016z" fill="#ffdef1" transform="translate(33.281 -92.189)"/><path d="m279.5 242.171q-.131-.612-.253-1.224.121.612.253 1.224z" fill="#32224c" transform="translate(39.761 -83.347)"/><path d="m307.447 300.017a1.667 1.667 0 0 1 -.791.52 92.138 92.138 0 0 1 -17.433 5.165l-.257.05-1.75-17.394c-1.91-11.606-4.755-23.107-7.324-34.6l-.116-.523c1.093-5.525 2.326-11.032 1.22-16.469a4.326 4.326 0 0 1 -.112-2.106l.011-.036a2.849 2.849 0 0 1 .8-1.164c.776-.74 1.824-1.324 2.168-2.324a4.014 4.014 0 0 0 -.132-2.277q-.95-3.7-1.9-7.4l-.136-.529c.789.124 1.572.279 2.353.458.126.027.253.057.379.088a80.715 80.715 0 0 1 11.3 3.923 1.505 1.505 0 0 1 .77.523 1.561 1.561 0 0 1 .047 1.126l-.007.03c-1.409 6.914-.129 14.023 1.356 20.962q.256 1.2.516 2.387.735 3.387 1.445 6.779 1.454 6.953 2.8 13.929 2.665 13.777 4.91 27.63a1.7 1.7 0 0 1 -.117 1.252z" fill="#32224c" transform="translate(39.992 -92.081)"/><path d="m257.881 226.168a17.673 17.673 0 0 1 7.263 4.7c2.973 3.242 3.91 6.9 4.637 9.483a20.011 20.011 0 0 1 .873 5.052c.088 5.346-3.232 10.338-3 15.68 1.554.452 3.195-1.691 4.592-.876a2.564 2.564 0 0 1 .839 1q1.562 2.687 3.106 5.384a3.352 3.352 0 0 1 .626 1.961 3.3 3.3 0 0 1 -1.254 1.892c-4.153 3.825-8.764 7.33-14.113 9.139a10.772 10.772 0 0 1 -4.947.684c-3.865-.56-6.491-4.308-7.658-8.035-1.755-5.612-1.276-11.661-.487-17.487a128.631 128.631 0 0 1 4.848-23.621 27.207 27.207 0 0 1 1.007-2.634 8.141 8.141 0 0 1 2.04-1.63 8.037 8.037 0 0 1 1.628-.692z" fill="#32224c" transform="translate(25.972 -89.798)"/><path d="m291.554 224.046a13.378 13.378 0 0 0 -1.7 9.626 150.539 150.539 0 0 0 5.03 18.876c.184.487.708 1.852.08 2.659a1.565 1.565 0 0 1 -.7.471c-2.34 1.01-3.516 1.53-3.815 2.214-.188.431.04.575.3 1.939.583 3.05.487 3.542.312 3.848-.527.924-1.557.655-1.721 1.217-.369 1.264 4.222 4.726 9.489 4.982 1.543.075 3.9.263 5.507-1.291 1.633-1.581 1.9-4.077 1.941-6.35.293-14.973-.389-24.58-8.254-32.942a31.28 31.28 0 0 0 -6.469-5.249z" fill="#32224c" transform="translate(44.162 -90.724)"/><path d="m265.976 224.646a3.637 3.637 0 0 1 -.434-.735q.218.366.434.735z" fill="#32224c" transform="translate(33.781 -90.783)"/><path d="m279.5 242.171q-.131-.612-.253-1.224.121.612.253 1.224z" fill="#32224c" transform="translate(39.761 -83.347)"/><path d="m287.216 284.552c-1.91-11.606-4.755-23.107-7.324-34.6l-.116-.523c1.093-5.525 2.326-11.032 1.22-16.469a4.326 4.326 0 0 1 -.112-2.106l.011-.036a2.849 2.849 0 0 1 .8-1.164l.114 1.123.293 2.916z" fill="#32224c" transform="translate(39.992 -88.275)"/><path d="m276.307 256.289c-3.183-5.957-7.25-11.6-8.071-18.234a4.341 4.341 0 0 0 -.563-2.034c-.007-.009-.014-.02-.023-.029a2.454 2.454 0 0 0 -.717-.632c-1.026-.621-2.468-.768-3.2-1.732a4.006 4.006 0 0 1 -.6-2.2q-.278-3.809-.555-7.619c-.017-.256-.037-.513-.055-.77l.25-.1.046-.017c.662-.257 1.332-.494 2.008-.7.131-.042.261-.08.392-.119q.853 1.28 1.645 2.6a3.637 3.637 0 0 0 .434.735 65.463 65.463 0 0 1 7.877 21.5c.542 3.094.863 6.221 1.132 9.351z" fill="#323370" transform="translate(32.462 -91.572)"/><path d="m279.967 243.884c-.223 1.128-.44 2.258-.631 3.386l.3-4.9q.164.758.331 1.514z" fill="#ffb260" transform="translate(39.801 -82.728)"/><path d="m284.5 231.208c-.343 1-1.392 1.584-2.168 2.324a2.848 2.848 0 0 0 -.8 1.164l-.011.036a4.326 4.326 0 0 0 .112 2.106c1.106 5.437-.126 10.944-1.22 16.469q-.168-.756-.333-1.517-.088-.407-.175-.816-.129-.612-.253-1.224l-.065-.32c-.029-.139-.056-.28-.083-.421-.032-.162-.062-.326-.093-.487l-.009-.05c-.035-.177-.066-.353-.1-.53v-.017c-.027-.152-.055-.3-.08-.454-.011-.06-.022-.119-.032-.18-.026-.145-.05-.292-.075-.437-.033-.2-.066-.4-.1-.606-.019-.111-.036-.223-.053-.333-.01-.07-.022-.142-.032-.213-.023-.157-.046-.313-.068-.47a59.144 59.144 0 0 1 1.706-24.455c.161.016.323.033.484.052q.448.052.893.116c.128.019.256.037.384.059l.136.529q.95 3.7 1.9 7.4a4.014 4.014 0 0 1 .135 2.275z" fill="#323370" transform="translate(39.348 -92.15)"/><g fill="none"><path d="m249.412 262.436a9.1 9.1 0 0 0 6.547 1.659 21.459 21.459 0 0 0 6.589-2.028 68.563 68.563 0 0 0 12.875-7.6" opacity=".29" stroke="#ffdef1" stroke-miterlimit="10" stroke-width=".071" transform="translate(26.741 -77.445)"/><path d="m290.906 251.486a50.018 50.018 0 0 0 6.8 2.443 16.766 16.766 0 0 0 7.165.4" opacity=".29" stroke="#ffdef1" stroke-miterlimit="10" stroke-width=".071" transform="translate(44.85 -78.748)"/><path d="m258.1 284.33a52.275 52.275 0 0 0 1.969-6.677c.961-4.793.56-9.743.155-14.616" opacity=".29" stroke="#ffdef1" stroke-miterlimit="10" stroke-width=".071" transform="translate(30.535 -73.706)"/><path d="m254.156 226.391a7.508 7.508 0 0 1 4.611 2.063 17.612 17.612 0 0 1 3.139 4.065c3.078 5.082 5.377 10.933 4.8 16.847" opacity=".29" stroke="#ffdef1" stroke-miterlimit="10" stroke-width=".071" transform="translate(28.811 -89.7)"/><path d="m292.1 224.558a20.378 20.378 0 0 0 -2.078 11.375 60.781 60.781 0 0 0 2.39 11.461" opacity=".29" stroke="#ffdef1" stroke-miterlimit="10" stroke-width=".071" transform="translate(44.429 -90.5)"/><path d="m253.959 253.9a12.222 12.222 0 0 1 10.831-2.62" opacity=".29" stroke="#ffdef1" stroke-miterlimit="10" stroke-width=".071" transform="translate(28.725 -78.987)"/><path d="m258.5 250.915-5.262-.145" opacity=".29" stroke="#ffdef1" stroke-miterlimit="10" stroke-width=".071" transform="translate(28.41 -79.06)"/><path d="m293.384 245.737a4.329 4.329 0 0 1 3.924.468" opacity=".29" stroke="#ffdef1" stroke-miterlimit="10" stroke-width=".071" transform="translate(45.932 -81.375)"/><path d="m293.3 245.969a5.787 5.787 0 0 1 4.462-2.232" opacity=".29" stroke="#ffdef1" stroke-miterlimit="10" stroke-width=".071" transform="translate(45.897 -82.13)"/><path d="m261.749 253.81a45.1 45.1 0 0 0 1.5-10.769" opacity=".29" stroke="#ffdef1" stroke-miterlimit="10" stroke-width=".068" transform="translate(32.125 -82.434)"/><path d="m282.374 222.45a32.608 32.608 0 0 1 11.688 4.508" opacity=".29" stroke="#ffdef1" stroke-miterlimit="10" stroke-width=".071" transform="translate(41.127 -91.42)"/><path d="m256.7 227.943a20.688 20.688 0 0 1 7.265-3.506" opacity=".29" stroke="#ffdef1" stroke-miterlimit="10" stroke-width=".071" transform="translate(29.923 -90.553)"/></g><path d="m291.225 238.677a2.223 2.223 0 0 0 -1.122-.589 11.347 11.347 0 0 0 -9.322 1.607c-.026.045-.058.086-.086.131q-.218 10.054-.435 20.106a1.955 1.955 0 0 0 .3 1.347 1.862 1.862 0 0 0 1.149.491 19.713 19.713 0 0 0 6.925-.1 2.168 2.168 0 0 0 1.406-.687 2.28 2.28 0 0 0 .319-1.156q.864-9.681 1.241-19.4a2.461 2.461 0 0 0 -.375-1.75z" fill="#4e6ef1" transform="translate(40.203 -84.763)"/><path d="m296.163 248.4c-.09-.177-.142-.269-.431-.826-1.142-2.212-1.05-2.169-1.307-2.59a6.257 6.257 0 0 0 -3.775-2.636.631.631 0 0 0 -.589.121.58.58 0 0 0 -.1.418 5.882 5.882 0 0 0 1.409 2.778 1.356 1.356 0 0 1 .3.826c-.047.592-.74.876-1.322 1a18.372 18.372 0 0 1 -5.912.292 1.451 1.451 0 0 0 .34 1.444 3.669 3.669 0 0 0 1.3.843 17.169 17.169 0 0 0 3.667 1.158 46.021 46.021 0 0 1 -5.606-2.152 2.914 2.914 0 0 0 .72 2.854 8.593 8.593 0 0 0 2.535 1.742l-3.025-1.879a.684.684 0 0 0 -.3-.126c-.316-.02-.486.373-.488.689a3.405 3.405 0 0 0 2 2.734c2.693 1.5 5.971 1.281 9.041 1.026a3.094 3.094 0 0 0 1.541-.345 3.188 3.188 0 0 0 1.308-1.92c.516-1.877-.477-3.825-1.306-5.451z" fill="#f6b0c2" transform="translate(41.653 -82.743)"/><path d="m291.866 247.691a.714.714 0 0 0 -.4-.09c-2.9-.059-5.966.972-8.613-.218l3.68-1.307c.6-.214 1.342-.74 1.053-1.309a1.128 1.128 0 0 0 -.958-.444 19.061 19.061 0 0 0 -5.509.3 10.605 10.605 0 0 0 -2.838.942 19.365 19.365 0 0 0 -2.565 1.785 59.454 59.454 0 0 1 -11.4 6.274 2.493 2.493 0 0 1 -.319.517 4.5 4.5 0 0 0 .77 2.433 19.415 19.415 0 0 0 2.7 3.565 1.129 1.129 0 0 0 .43.322 1.1 1.1 0 0 0 .648-.049 15.021 15.021 0 0 0 3.482-1.5 13.613 13.613 0 0 1 3.822-1.975 12.292 12.292 0 0 1 3.084-.066 19.556 19.556 0 0 0 6.148-.763 7.591 7.591 0 0 0 4.025-2.38c.251-.326.411-.889.043-1.076a.778.778 0 0 0 -.526 0l-2.666.651a11.606 11.606 0 0 0 4.536-2.06 1.418 1.418 0 0 0 .523-.587.534.534 0 0 0 -.233-.681.78.78 0 0 0 -.4-.013l-5.368.744a19.342 19.342 0 0 0 6.406-1.913c.421-.232.838-.831.445-1.102z" fill="#f6b0c2" transform="translate(33.105 -81.907)"/><path d="m268.883 213.445a6.878 6.878 0 0 0 -1.388-1.517 2.316 2.316 0 0 0 -1.944-.448 2.834 2.834 0 0 0 -1.668 1.862 5.679 5.679 0 0 0 -.19 3.753 3.846 3.846 0 0 0 2.629 2.561 1.709 1.709 0 0 1 .793.3 1.255 1.255 0 0 1 .3.534c.362 1.047.537 2.158.991 3.167a11.315 11.315 0 0 0 2.442 3.215q1.844 1.866 3.842 3.57c1.339 1.141 2.96 2.29 4.693 1.994a5.667 5.667 0 0 0 1.492-.54c3.008-1.458 5.882-3.7 6.927-6.872a29.5 29.5 0 0 0 .793-4.9c.448-2.988 1.616-5.816 2.307-8.757s.862-6.188-.586-8.84a5.793 5.793 0 0 0 -1.553-1.872 7.069 7.069 0 0 0 -2.241-1.049 14.782 14.782 0 0 0 -12.692 1.923 12.794 12.794 0 0 0 -5.33 11.511z" fill="#f6b0c2" transform="translate(32.872 -101.67)"/><path d="m283.387 222.606c.009.251.014.5.016.754q.006.7-.016 1.4a11 11 0 0 1 -.427 3.024 7.939 7.939 0 0 1 -6.883 5.075 12.7 12.7 0 0 1 -8.443-2.7 7.179 7.179 0 0 1 -1.517-1.431 3.635 3.635 0 0 1 -.434-.735 2.827 2.827 0 0 1 -.223-.81 5.3 5.3 0 0 1 .172-1.7c.036-.172.073-.343.109-.516q.9-4.243 1.8-8.485c.033-.158.067-.316.1-.474a.708.708 0 0 1 .256-.49.654.654 0 0 1 .465-.029 11.723 11.723 0 0 1 2.781 1.135 53.055 53.055 0 0 0 12.095 3.689q.116 1.141.149 2.293z" fill="#f6b0c2" transform="translate(33.737 -94.472)"/><path d="m268.535 213.59a17.281 17.281 0 0 0 3.853-3.308 4.951 4.951 0 0 1 1.2-1.139c1.023-.586 2.3-.253 3.447.019a25.728 25.728 0 0 0 10.493.267c2.07-.378 4.341-1.224 5.152-3.166a5.926 5.926 0 0 0 -.388-4.519 11.1 11.1 0 0 0 -5.256-5.836 13.369 13.369 0 0 0 -3.64-1.007 19.405 19.405 0 0 0 -6.645-.019 20.3 20.3 0 0 0 -4.5 1.513 12.6 12.6 0 0 0 -3.545 2.2 9.546 9.546 0 0 0 -1.665 2.159c-2.339 4.029-2.3 8.979-1.862 13.617.075.8.257 1.732.987 2.058a1.759 1.759 0 0 0 2.038-.9c.427-.691.58-1.518.96-2.235" fill="#323370" transform="translate(33.522 -103.574)"/><path d="m404.627 277.856a4.023 4.023 0 0 0 -.01-2.031 4.066 4.066 0 0 0 -1.25-2 15.382 15.382 0 0 0 -3.1-2.1c-18.488-9.215-38.166-1.849-39.081.1a8.371 8.371 0 0 0 -.542 1.6 8.537 8.537 0 0 0 -.165 1.747c.145 7.836 3.524 24.746 3.524 24.746a115.064 115.064 0 0 0 3.7 15.666c.837 2.777 1.88 5.616 3.873 7.515a15.8 15.8 0 0 0 4.258 2.63l10.888 5.211a10.361 10.361 0 0 0 4.5 1.363 8.5 8.5 0 0 0 3.222-.852c3.577-1.567 7.037-4.342 8.229-8.42a2 2 0 0 0 .1-.985 2.224 2.224 0 0 0 -.582-.919c-.7-.806-2.58-6.52-2.857-9.88-.366-4.414.906-16.272 5.127-31.643" fill="#4e6ef1" transform="translate(75.216 -71.89)"/><path d="m384.419 273.631a1.9 1.9 0 0 0 -.977-.471 9.728 9.728 0 0 0 -7.688 1.465 2.379 2.379 0 0 1 -.182.3c-.043.076-.089.149-.132.224q.1 8.5.205 16.993a1.667 1.667 0 0 0 .3 1.143 1.581 1.581 0 0 0 1 .388 16.882 16.882 0 0 0 5.925-.286 1.861 1.861 0 0 0 1.184-.628 1.966 1.966 0 0 0 .24-1q.461-8.311.5-16.638a2.109 2.109 0 0 0 -.375-1.49z" fill="#fff" transform="translate(81.743 -69.398)"/><path d="m397.559 299.989a180.26 180.26 0 0 0 -2.646-21.979 15.075 15.075 0 0 0 -1.153-4.034 5.68 5.68 0 0 0 -3.015-2.9 3.8 3.8 0 0 0 -4.049.842 4.989 4.989 0 0 0 -.987 3c-.419 5.427 1.087 10.779 2.581 16.009a26.791 26.791 0 0 0 2.36 6.243 7.039 7.039 0 0 0 3.087 3.044 3.89 3.89 0 0 0 4.216-.563" fill="#ff91b5" transform="translate(86.194 -70.303)"/><path d="m386.7 286.2 1.606 7.4a22.9 22.9 0 0 0 1.74 5.625 8.146 8.146 0 0 0 4.245 4.059 3.259 3.259 0 0 0 3.028-.171 3.194 3.194 0 0 0 .839-1.057 10.12 10.12 0 0 0 .266-8.192 30.516 30.516 0 0 0 -4.279-7.291l-2.471-3.439a.7.7 0 0 0 -.4-.323.72.72 0 0 0 -.506.178 18.181 18.181 0 0 0 -4.127 3.906" fill="#ff91b5" transform="translate(86.634 -65.081)"/><path d="m395.59 287.723a13.908 13.908 0 0 0 -2.432-3.877l-4.4-5.549a2.61 2.61 0 0 0 -1.072-.928 2.83 2.83 0 0 0 -1.155-.078l-7.342.532a6.293 6.293 0 0 0 4.78 2.591c-.595 1.207-2.922 1.053-3.2 2.357-.162.753.618 1.439 1.416 1.521a4.617 4.617 0 0 0 2.31-.582 2.6 2.6 0 0 0 -2.344 1.544.852.852 0 0 0 -.063.586c.168.5.937.486 1.421.23s.938-.664 1.488-.644a4.134 4.134 0 0 0 -1.461.636 1.273 1.273 0 0 0 -.5 1.365c.191.514.789.757 1.326.944.46.161 1.22.119 1.169-.346-.011-.112-.082-.22-.056-.332.072-.312.567-.109.8.121a4.289 4.289 0 0 0 2.472 1.2c.442.056.965.083 1.2.441.124.187.135.425.246.621.3.523 1.089.487 1.7.352a20.834 20.834 0 0 0 2.147-.6 3.224 3.224 0 0 0 1.61-.961 1.116 1.116 0 0 0 -.188-1.616" fill="#ff91b5" transform="translate(83.38 -67.495)"/><path d="m373.7 284.239-9.018 5.938c-3.16 2.08-6.523 4.414-7.748 7.992a5.684 5.684 0 0 0 -.307 2.739 8.429 8.429 0 0 0 1.645 3.31 1.7 1.7 0 0 0 .621.622 1.643 1.643 0 0 0 .944.047c3.858-.586 7.712-2.135 10.3-5.061a24.716 24.716 0 0 0 2.192-3.065l3.746-5.845a2.621 2.621 0 0 0 .493-1.129 2.464 2.464 0 0 0 -.259-1.146 19.336 19.336 0 0 0 -2.512-4.338" fill="#ff91b5" transform="translate(73.507 -64.453)"/><path d="m366.616 300.776 2.732-10.3c.339-1.278.68-2.56.9-3.864a31.508 31.508 0 0 0 .177-8.195 16.391 16.391 0 0 0 -.975-4.709 6.281 6.281 0 0 0 -3.008-3.435 3.922 3.922 0 0 0 -4.314.644 7.543 7.543 0 0 0 -1.705 4.166 221.563 221.563 0 0 0 -3.371 29.006c-.037.764-.013 1.662.573 2.083.609.435 1.445.093 2.125-.254 2.644-1.357 5.489-2.919 6.774-5.724" fill="#ff91b5" transform="translate(73.715 -70.711)"/><path d="m367.7 288.147 2.725-5.114a7.871 7.871 0 0 1 2.593-3.106l4.729-3.919a.584.584 0 0 1 .368-.178c.27.011.375.359.375.629 0 1.617-1.053 3.018-2.056 4.286a19.551 19.551 0 0 0 7.142-.5c.151.987-.764 1.8-1.643 2.274a11.379 11.379 0 0 1 -5.073 1.367 42.754 42.754 0 0 0 4.994-1.309c.371 1.148-.714 2.234-1.761 2.836a13.424 13.424 0 0 1 -3.1 1.3l4.128-1.692a2.944 2.944 0 0 1 -1.005 2.542 8.651 8.651 0 0 1 -2.435 1.452 14.65 14.65 0 0 1 1.906-.832c.169.763-.586 1.383-1.248 1.8l-5.637 3.525a3.011 3.011 0 0 1 -1.515.6c-1.106.006-1.824-1.131-2.3-2.13-.671-1.419-1.306-3.035-.783-4.515" fill="#ff91b5" transform="translate(78.364 -68.122)"/><g clip-path="url(#g)" transform="translate(468.453 266.555)"><path d="m402.085 328.87c-2.837.517-6.109-.07-10.546-1.672-3.567-1.28-6.269-2.654-7.309-3.025-.076-.066-.145-.131-.221-.2a4.713 4.713 0 0 1 -.6-1.254 4.981 4.981 0 0 1 2.2-5.138 6.246 6.246 0 0 1 2.827-.677 53.526 53.526 0 0 1 13.65.875h.017a6.88 6.88 0 0 0 -2.057 4.765 10.274 10.274 0 0 0 1.34 5.348 3.478 3.478 0 0 0 .699.978z" fill="#ff67a3" transform="translate(-383.285 -316.799)"/><path d="m401.741 324.327a5.916 5.916 0 0 1 -1.56 2.808 4.318 4.318 0 0 1 -.692.534 6.693 6.693 0 0 1 -2.428.891.211.211 0 0 1 -.066.01 3.479 3.479 0 0 1 -.7-.974 10.275 10.275 0 0 1 -1.34-5.348 6.88 6.88 0 0 1 2.057-4.765 7.114 7.114 0 0 1 3.865 1.676 1.711 1.711 0 0 1 .165.174 5.466 5.466 0 0 1 .699 4.994z" fill="#ffdef1" transform="translate(-378.194 -316.499)"/><g fill="none" stroke="#ffdef1" stroke-miterlimit="10"><path d="m392.441 324.021a16.007 16.007 0 0 1 .593-5.073" stroke-width=".062" transform="translate(-379.295 -315.86)"/><ellipse cx=".598" cy=".696" rx=".598" ry=".696" stroke-width=".151" transform="matrix(.18599245 -.98255117 .98255117 .18599245 13.049 3.328)"/><ellipse cx=".598" cy=".696" rx=".598" ry=".696" stroke-width=".151" transform="matrix(.18599245 -.98255117 .98255117 .18599245 12.35 8.619)"/><path d="m390.23 323.6a16.047 16.047 0 0 1 .593-5.074" stroke-width=".062" transform="translate(-380.26 -316.043)"/><ellipse cx=".598" cy=".696" rx=".598" ry=".696" stroke-width=".151" transform="matrix(.18599245 -.98255117 .98255117 .18599245 9.875 2.727)"/><ellipse cx=".598" cy=".696" rx=".598" ry=".696" stroke-width=".151" transform="matrix(.18599245 -.98255117 .98255117 .18599245 9.176 8.018)"/><path d="m387.811 323.1a14.906 14.906 0 0 1 .559-4.89" stroke-width=".061" transform="translate(-381.318 -316.181)"/><ellipse cx=".576" cy=".696" rx=".576" ry=".696" stroke-width=".148" transform="matrix(.18599245 -.98255117 .98255117 .18599245 6.366 2.262)"/><ellipse cx=".576" cy=".696" rx=".576" ry=".696" stroke-width=".148" transform="matrix(.18599245 -.98255117 .98255117 .18599245 5.703 7.361)"/><path d="m400.538 320.127a43.242 43.242 0 0 1 -7.418-.547c-1.178-.224-2.336-.547-3.509-.8a51.408 51.408 0 0 0 -6.451-.842" opacity=".23" stroke-width=".086" transform="translate(-383.339 -316.299)"/><path d="m401.6 323.61-4.492-1.08c-1.224-.294-2.446-.589-3.684-.817-3.868-.712-7.853-.779-11.661-1.764" opacity=".23" stroke-width=".086" transform="translate(-383.951 -315.423)"/></g></g><path d="m403.787 326.66a199.923 199.923 0 0 1 -32.149-23.66c-4.232-3.824-8.568-7.978-14.1-9.35a7.928 7.928 0 0 0 -6.267.632 6.612 6.612 0 0 0 -2.642 5.7 13.318 13.318 0 0 0 2.04 6.168c4.549 7.876 12.767 13.07 21.39 15.963 4.141 1.389 8.459 2.33 12.384 4.249 4.374 2.139 8.083 5.405 12.205 8a1.782 1.782 0 0 0 2.853-.621 25.65 25.65 0 0 0 4.279-8.07" fill="#1d2a5d" transform="translate(70.04 -60.496)"/><path d="m376.1 319.165c8.222-9.239 16.871-18.786 28.236-23.29a38.668 38.668 0 0 1 15.219-2.706 10.3 10.3 0 0 1 3.574.576 4.386 4.386 0 0 1 2.573 2.478c.638 1.8-.293 3.781-1.38 5.344-3.011 4.328-7.333 7.492-11.729 10.3a130.4 130.4 0 0 1 -23.244 11.776 10.686 10.686 0 0 1 -2.652.76 9.7 9.7 0 0 1 -4.9-1.092c-2.28-1.011-4.628-2.448-5.5-4.834" fill="#1d2a5d" transform="translate(82.034 -60.562)"/><path d="m349.576 295.494c-1.869 3.335-1.161 7.464-.356 11.2a69.754 69.754 0 0 0 4.054 13.807 25.867 25.867 0 0 0 8.825 11.157 19.593 19.593 0 0 0 6.339 2.778 15 15 0 0 0 9.911-.786 10.252 10.252 0 0 0 5.851-7.75c.5-4.337-2.284-8.366-5.388-11.437-1.933-1.912-4.041-3.64-6.145-5.365l-8.679-7.115a38.148 38.148 0 0 0 -6.882-4.839 12.824 12.824 0 0 0 -8.156-1.408" fill="#1d2a5d" transform="translate(69.939 -59.541)"/><path d="m377.359 328.537c2.218-5.588 14.611-15.6 14.611-15.6 7.1-5.736 5.232-6.213 12.737-11.783a35.191 35.191 0 0 1 15.574-6.971c1.8-.264 3.937-.2 5.038 1.286a5.113 5.113 0 0 1 .651 3.575 20.478 20.478 0 0 1 -5.318 11.279 41.66 41.66 0 0 1 -9.821 7.715c-4.974 3-10.2 5.522-15.308 8.281a37.089 37.089 0 0 0 -5.308 3.311c-2.821 2.209-5.372 5.3-8.9 5.688a2.957 2.957 0 0 1 -2.372-.586c-.03-.029-.049-.052-.086-.093a9.467 9.467 0 0 1 -1.688-3.739c-.05-.2-.079-.389-.079-.389-.007-.05-.014-.1-.019-.159a4.309 4.309 0 0 1 .288-1.815z" fill="#1d2a5d" transform="translate(82.454 -60.165)"/><path d="m377.592 326.369q4.378-6.49 9.19-12.669a62.1 62.1 0 0 1 9.687-10.424 39.137 39.137 0 0 1 14.916-7.347" fill="#1d2a5d" opacity=".29" stroke="#ffdef1" stroke-miterlimit="10" stroke-width=".061" transform="translate(82.683 -59.352)"/><path d="m352.671 301.174c2.084 4.4 4.258 8.922 7.863 12.2a32.505 32.505 0 0 0 4.485 3.271 63.89 63.89 0 0 0 14.231 7.064" fill="#1d2a5d" opacity=".29" stroke="#ffdef1" stroke-miterlimit="10" stroke-width=".061" transform="translate(71.807 -57.062)"/><path d="m397.822 297.233a4.079 4.079 0 0 1 1.48-1.538" fill="#1d2a5d" opacity=".29" stroke="#ffdef1" stroke-miterlimit="10" stroke-width=".061" transform="translate(91.512 -59.453)"/><path d="m352.063 303.964a9.087 9.087 0 0 0 3.047 1.434" fill="#1d2a5d" opacity=".29" stroke="#ffdef1" stroke-miterlimit="10" stroke-width=".061" transform="translate(71.541 -55.844)"/><path d="m388.721 318.717c-10.305-5.591-18.652-14.119-27.989-21.208" fill="#1d2a5d" opacity=".29" stroke="#ffdef1" stroke-miterlimit="10" stroke-width=".061" transform="translate(75.325 -58.661)"/><g clip-path="url(#h)" transform="translate(437.197 265.015)"><path d="m379.621 315.772a11.465 11.465 0 0 0 -1.8 1.719 18.922 18.922 0 0 1 -1.491 1.844c-2.305 2.238-6.158 1.731-8.981 3.183a6.536 6.536 0 0 0 -.826.507c-2.15 1.574-2.877 4.42-3.423 7.031a14.051 14.051 0 0 0 -.389 2.85h-.04a1.23 1.23 0 0 1 -.694-.207 1.286 1.286 0 0 1 -.3-1.026 16.939 16.939 0 0 1 .954-6.013 7.668 7.668 0 0 1 4.031-4.38 11.543 11.543 0 0 1 1.909-.534c1.521-.343 3.042-.677 4.556-1.02a5.646 5.646 0 0 0 2.416-.938c.705-.553 1.115-1.4 1.763-2.017a4.021 4.021 0 0 1 2.315-.999z" fill="#ffdef1" transform="translate(-361.462 -315.707)"/><path d="m369.379 327.957a7.07 7.07 0 0 1 -.389 2.379 22.645 22.645 0 0 1 -6.684.5 14.049 14.049 0 0 1 .389-2.848c.546-2.613 1.273-5.458 3.423-7.033a6.707 6.707 0 0 1 .826-.507 4.893 4.893 0 0 1 2.206 3.2 15.029 15.029 0 0 1 .229 4.309z" fill="#ffdef1" transform="translate(-361.185 -313.666)"/><path d="m385.424 327.461a10.722 10.722 0 0 1 -4.605 1.464c-4.474.8-8.817 2.561-13.238 3.469a7.071 7.071 0 0 0 .389-2.379 15.026 15.026 0 0 0 -.228-4.3 4.893 4.893 0 0 0 -2.206-3.2c2.824-1.452 6.675-.945 8.981-3.182a19.335 19.335 0 0 0 1.492-1.846 11.446 11.446 0 0 1 1.8-1.718 5.838 5.838 0 0 1 2.106.172 13.843 13.843 0 0 1 4.123 2.182l.108-.227c.057 1.174-.794 2.39-.294 3.439a2.025 2.025 0 0 0 .74.793 9.285 9.285 0 0 1 1.652 1.106c1.128 1.161.486 3.249-.82 4.227z" fill="#ff67a3" transform="translate(-359.776 -315.725)"/><g fill="none" stroke="#ffdef1" stroke-miterlimit="10"><path d="m367.119 325.85c5.957-1.01 11.267-4.509 17.23-5.48" opacity=".29" stroke-width=".063" transform="translate(-359.085 -313.7)"/><circle cx=".704" cy=".704" r=".704" stroke-width=".143" transform="translate(10.964 9.226)"/><circle cx=".704" cy=".704" r=".704" stroke-width=".143" transform="translate(14.282 8.075)"/><circle cx=".704" cy=".704" r=".704" stroke-width=".143" transform="translate(17.484 6.828)"/><path d="m369.71 322.709a21.294 21.294 0 0 1 .557 5.792" stroke-width=".086" transform="translate(-357.953 -312.679)"/><path d="m371.926 321.885a12.16 12.16 0 0 1 .615 5.848" stroke-width=".086" transform="translate(-356.986 -313.038)"/><path d="m374.192 321.173c.478 2.076.859 4.305.1 6.294" stroke-width=".086" transform="translate(-355.997 -313.349)"/></g></g><path d="m374.666 297a4.644 4.644 0 0 1 -5.3.342 11.44 11.44 0 0 1 -3.888-4.113c-1.287-2.02-2.439-4.4-1.926-6.747a24.541 24.541 0 0 0 .8-2.9c.157-1.692-.868-3.287-.924-4.986-.075-2.265 1.527-4.17 2.465-6.224 2.366-5.186.465-11.4 1.859-16.938 1.579-6.279 7.584-10.921 13.936-11.43a10.746 10.746 0 0 1 4.7.549 10.375 10.375 0 0 1 4.733 4.008 29.412 29.412 0 0 1 3.223 7.524l5.484 17.036a9.579 9.579 0 0 1 .664 3.551c-.083 1.2-.621 2.376-.474 3.574.263 2.162 2.614 3.561 2.976 5.71a6.681 6.681 0 0 1 -.909 3.814 15.238 15.238 0 0 1 -2.3 3.893 5.011 5.011 0 0 1 -3.94 1.83c-2.2-.165-3.756-2.179-5.023-4.016a11.361 11.361 0 0 1 -2.34-4.976 16.719 16.719 0 0 0 -.224-2.525 28.042 28.042 0 0 0 -1.567-3.041c-.708-1.741-.463-4.133-2.066-5.076a4.142 4.142 0 0 0 -1.594-.434 13.5 13.5 0 0 0 -5.67.131 5.21 5.21 0 0 0 -3.781 3.934c-.4 2.754 2.09 5.308 1.708 8.064-.115.83-.488 1.607-.576 2.44-.158 1.491.6 2.909.863 4.385s-.365 3.4-1.834 3.516" fill="#1d2a5d" transform="translate(76.501 -82.032)"/><path d="m377.808 247.448a6.2 6.2 0 0 0 -4.19 2.521 13.115 13.115 0 0 0 -2.06 4.556c-1.284 4.666-1.435 9.558-1.579 14.395a7.848 7.848 0 0 0 .108 1.978 7.061 7.061 0 0 0 1.541 2.755c1.617 2.012 3.686 3.943 6.254 4.21a7.307 7.307 0 0 0 3.6-.623 9.942 9.942 0 0 0 3.729-2.772 13.284 13.284 0 0 0 1.431-2.158 20.2 20.2 0 0 0 -1.5-21.2 10.114 10.114 0 0 0 -3.248-3 5.147 5.147 0 0 0 -4.3-.365" fill="#ff91b5" transform="translate(79.354 -80.52)"/><path d="m371.494 264.243c.276 2.449-1.546 4.91-.813 7.263a7.128 7.128 0 0 0 2.341 2.979 8.03 8.03 0 0 0 2.178 1.527 7.788 7.788 0 0 0 1.91.429c2.083.286 4.315.514 6.194-.429a.845.845 0 0 0 .385-.313.934.934 0 0 0 .049-.549 27.007 27.007 0 0 1 .266-7.8l-12.704-2.679" fill="#ff91b5" transform="translate(79.59 -73.18)"/><path d="m375.135 247.5c-2.815 1.388-4.092 4.146-3.008 6.5a1.2 1.2 0 0 0 1.2.771 1.118 1.118 0 0 0 .649-.418 6.2 6.2 0 0 0 .994-1.531 7.289 7.289 0 0 0 2.017 3.264c.28.27.81.552 1.158.335a.554.554 0 0 0 .217-.33l.359-1.08a28.535 28.535 0 0 0 5.3.534c.895.006 1.946-.1 2.347-.656a1.2 1.2 0 0 0 .152-.868c-.319-2.973-3.378-5.754-7.39-6.721-1.362-.328-3.06-.4-4 .338" fill="#1d2a5d" transform="translate(80.13 -80.679)"/><path d="m245.416 153.966c-1.133-6.606 6.717-12.691 13.77-11.326s11.671 8.713 10.552 15.322-7.049 11.984-13.918 14a171.952 171.952 0 0 0 10.039 18.517" fill="none" stroke="#fff" stroke-miterlimit="10" stroke-width=".964" transform="translate(24.948 -126.338)"/><path d="m295.752 164.76c2.708-3.186 9.005-1.425 11.364 2.833s.781 9.571-2.89 11.569-8.807.972-12.72-1.863a104.587 104.587 0 0 0 -4.653 12.55" fill="none" stroke="#fff" stroke-miterlimit="10" stroke-width=".626" transform="translate(43.082 -117.312)"/><path d="m587.846 109.162h-13.321v-13.126h13.331zm-.193-19.792h-12.935c0-20.4 19.389-19.207 19.389-32.112a12.861 12.861 0 0 0 -12.926-12.8 13.193 13.193 0 0 0 -12.924 13.005h-12.927a25.851 25.851 0 0 1 51.7-.2c0 16.137-19.388 17.974-19.388 32.112z" fill="#487cff" transform="translate(-211.751 -22.182)"/><path d="m571.255 69.592h-6.524v-6.429h6.529zm-.094-9.693h-6.335c0-9.99 9.5-9.407 9.5-15.727a6.3 6.3 0 0 0 -6.331-6.27 6.461 6.461 0 0 0 -6.33 6.369h-6.335a12.661 12.661 0 0 1 25.321-.1c0 7.9-9.5 8.8-9.5 15.727z" fill="#ef7069" transform="matrix(.8660254 .5 -.5 .8660254 -339.969 -282.827)"/><path d="m568.969 64.14h-5.588v-5.506h5.592zm-.081-8.3h-5.426c0-8.556 8.133-8.056 8.133-13.47a5.4 5.4 0 0 0 -5.422-5.37 5.534 5.534 0 0 0 -5.421 5.455h-5.422a10.844 10.844 0 0 1 21.687-.085c0 6.769-8.132 7.539-8.132 13.47z" fill="#ffb260" transform="matrix(-.46947156 -.88294759 .88294759 -.46947156 463.965 570.468)"/></svg>